<svg width="769" height="184" viewBox="0 0 769 184" fill="none" xmlns="http://www.w3.org/2000/svg">
<g filter="url(#filter0_d_233_19)">
<rect width="663" height="162" rx="20" transform="matrix(-1 0 0 1 764.316 11)" fill="#2495EB"/>
</g>
<g filter="url(#filter1_d_233_19)">
<path d="M4 92.2322L113.781 171.27L113.217 12.417L4 92.2322Z" fill="#2495EB"/>
</g>
<path d="M131.117 75V40.0909H137.441V69.6989H152.816V75H131.117ZM160.705 75V40.0909H183.41V45.392H167.029V54.8693H182.233V60.1705H167.029V69.6989H183.546V75H160.705ZM196.744 75H189.994L202.284 40.0909H210.091L222.398 75H215.648L206.324 47.25H206.051L196.744 75ZM196.966 61.3125H215.375V66.392H196.966V61.3125ZM229.396 75V40.0909H242.486C245.168 40.0909 247.418 40.5568 249.236 41.4886C251.066 42.4205 252.447 43.7273 253.379 45.4091C254.322 47.0795 254.793 49.0284 254.793 51.2557C254.793 53.4943 254.316 55.4375 253.361 57.0852C252.418 58.7216 251.026 59.9886 249.185 60.8864C247.344 61.7727 245.083 62.2159 242.401 62.2159H233.077V56.9659H241.549C243.117 56.9659 244.401 56.75 245.401 56.3182C246.401 55.875 247.14 55.233 247.617 54.392C248.106 53.5398 248.35 52.4943 248.35 51.2557C248.35 50.017 248.106 48.9602 247.617 48.0852C247.129 47.1989 246.384 46.5284 245.384 46.0739C244.384 45.608 243.094 45.375 241.515 45.375H235.719V75H229.396ZM247.43 59.1818L256.072 75H249.015L240.526 59.1818H247.43ZM291.702 40.0909V75H286.077L269.628 51.2216H269.338V75H263.014V40.0909H268.673L285.105 63.8864H285.412V40.0909H291.702Z" fill="white"/>
<path d="M136.294 116L131.163 97.8182H134.705L137.981 111.179H138.149L141.647 97.8182H144.87L148.377 111.188H148.537L151.812 97.8182H155.355L150.223 116H146.974L143.334 103.243H143.192L139.543 116H136.294ZM163.392 116.266C162.025 116.266 160.844 115.982 159.85 115.414C158.861 114.84 158.101 114.029 157.568 112.982C157.035 111.928 156.769 110.688 156.769 109.262C156.769 107.859 157.035 106.628 157.568 105.569C158.107 104.503 158.858 103.675 159.823 103.083C160.788 102.485 161.921 102.186 163.223 102.186C164.064 102.186 164.857 102.322 165.602 102.594C166.354 102.861 167.017 103.275 167.591 103.837C168.171 104.4 168.627 105.116 168.958 105.986C169.29 106.85 169.455 107.88 169.455 109.075V110.061H158.278V107.895H166.375C166.369 107.279 166.236 106.732 165.975 106.252C165.715 105.767 165.351 105.385 164.883 105.107C164.422 104.829 163.883 104.69 163.268 104.69C162.611 104.69 162.033 104.849 161.536 105.169C161.039 105.483 160.651 105.897 160.373 106.412C160.101 106.921 159.962 107.48 159.956 108.09V109.981C159.956 110.774 160.101 111.455 160.391 112.023C160.681 112.585 161.087 113.017 161.607 113.319C162.128 113.615 162.738 113.763 163.436 113.763C163.904 113.763 164.327 113.698 164.706 113.567C165.085 113.431 165.413 113.233 165.691 112.973C165.969 112.712 166.179 112.39 166.321 112.005L169.322 112.342C169.133 113.135 168.772 113.828 168.239 114.42C167.712 115.006 167.038 115.461 166.215 115.787C165.392 116.107 164.451 116.266 163.392 116.266ZM183.69 116L179.837 102.364H183.113L185.51 111.952H185.634L188.084 102.364H191.325L193.775 111.898H193.908L196.27 102.364H199.554L195.692 116H192.346L189.789 106.785H189.602L187.045 116H183.69ZM203.048 116V102.364H206.262V116H203.048ZM204.664 100.428C204.155 100.428 203.717 100.26 203.35 99.9222C202.983 99.579 202.8 99.1676 202.8 98.6882C202.8 98.2029 202.983 97.7915 203.35 97.4542C203.717 97.1109 204.155 96.9393 204.664 96.9393C205.179 96.9393 205.617 97.1109 205.978 97.4542C206.345 97.7915 206.528 98.2029 206.528 98.6882C206.528 99.1676 206.345 99.579 205.978 99.9222C205.617 100.26 205.179 100.428 204.664 100.428ZM214.031 97.8182V116H210.817V97.8182H214.031ZM221.799 97.8182V116H218.585V97.8182H221.799ZM237.019 108.01V116H233.805V97.8182H236.948V104.681H237.108C237.427 103.911 237.921 103.305 238.59 102.861C239.265 102.411 240.123 102.186 241.165 102.186C242.112 102.186 242.937 102.384 243.642 102.781C244.346 103.177 244.891 103.757 245.275 104.521C245.666 105.284 245.861 106.217 245.861 107.317V116H242.647V107.815C242.647 106.897 242.411 106.184 241.937 105.675C241.47 105.16 240.813 104.903 239.966 104.903C239.398 104.903 238.889 105.027 238.439 105.276C237.995 105.518 237.646 105.87 237.392 106.332C237.143 106.794 237.019 107.353 237.019 108.01ZM256.424 116.266C255.057 116.266 253.876 115.982 252.882 115.414C251.893 114.84 251.133 114.029 250.6 112.982C250.067 111.928 249.801 110.688 249.801 109.262C249.801 107.859 250.067 106.628 250.6 105.569C251.139 104.503 251.89 103.675 252.855 103.083C253.82 102.485 254.953 102.186 256.255 102.186C257.096 102.186 257.889 102.322 258.635 102.594C259.386 102.861 260.049 103.275 260.623 103.837C261.203 104.4 261.659 105.116 261.99 105.986C262.322 106.85 262.488 107.88 262.488 109.075V110.061H251.31V107.895H259.407C259.401 107.279 259.268 106.732 259.007 106.252C258.747 105.767 258.383 105.385 257.915 105.107C257.454 104.829 256.915 104.69 256.3 104.69C255.643 104.69 255.066 104.849 254.569 105.169C254.071 105.483 253.684 105.897 253.406 106.412C253.133 106.921 252.994 107.48 252.988 108.09V109.981C252.988 110.774 253.133 111.455 253.423 112.023C253.713 112.585 254.119 113.017 254.64 113.319C255.16 113.615 255.77 113.763 256.468 113.763C256.936 113.763 257.359 113.698 257.738 113.567C258.117 113.431 258.445 113.233 258.723 112.973C259.002 112.712 259.212 112.39 259.354 112.005L262.354 112.342C262.165 113.135 261.804 113.828 261.271 114.42C260.745 115.006 260.07 115.461 259.247 115.787C258.424 116.107 257.483 116.266 256.424 116.266ZM269.67 97.8182V116H266.456V97.8182H269.67ZM274.225 121.114V102.364H277.385V104.619H277.572C277.738 104.287 277.971 103.935 278.273 103.562C278.575 103.183 278.984 102.861 279.498 102.594C280.013 102.322 280.67 102.186 281.469 102.186C282.523 102.186 283.473 102.455 284.319 102.994C285.171 103.527 285.846 104.317 286.343 105.364C286.846 106.406 287.098 107.684 287.098 109.2C287.098 110.697 286.852 111.969 286.361 113.017C285.87 114.065 285.201 114.864 284.355 115.414C283.508 115.964 282.549 116.24 281.478 116.24C280.697 116.24 280.049 116.109 279.534 115.849C279.019 115.589 278.605 115.275 278.291 114.908C277.983 114.535 277.744 114.183 277.572 113.852H277.439V121.114H274.225ZM277.377 109.182C277.377 110.064 277.501 110.836 277.749 111.499C278.004 112.162 278.368 112.68 278.841 113.053C279.321 113.42 279.901 113.603 280.582 113.603C281.292 113.603 281.887 113.414 282.366 113.035C282.845 112.65 283.206 112.126 283.449 111.463C283.698 110.795 283.822 110.034 283.822 109.182C283.822 108.335 283.701 107.584 283.458 106.927C283.215 106.27 282.854 105.755 282.375 105.382C281.895 105.009 281.298 104.823 280.582 104.823C279.895 104.823 279.312 105.003 278.833 105.364C278.353 105.725 277.989 106.231 277.741 106.882C277.498 107.533 277.377 108.3 277.377 109.182ZM300.549 121.114C300.111 121.114 299.705 121.078 299.332 121.007C298.965 120.942 298.672 120.865 298.453 120.776L299.199 118.273C299.667 118.409 300.084 118.474 300.451 118.468C300.818 118.462 301.141 118.347 301.419 118.122C301.703 117.903 301.942 117.536 302.138 117.021L302.413 116.284L297.468 102.364H300.877L304.02 112.662H304.162L307.314 102.364H310.732L305.272 117.651C305.017 118.373 304.68 118.992 304.26 119.507C303.839 120.028 303.324 120.424 302.715 120.696C302.111 120.975 301.389 121.114 300.549 121.114ZM319.69 116.266C318.358 116.266 317.204 115.973 316.227 115.387C315.251 114.801 314.493 113.982 313.955 112.928C313.422 111.875 313.156 110.644 313.156 109.235C313.156 107.826 313.422 106.592 313.955 105.533C314.493 104.474 315.251 103.651 316.227 103.065C317.204 102.479 318.358 102.186 319.69 102.186C321.021 102.186 322.176 102.479 323.152 103.065C324.129 103.651 324.883 104.474 325.416 105.533C325.955 106.592 326.224 107.826 326.224 109.235C326.224 110.644 325.955 111.875 325.416 112.928C324.883 113.982 324.129 114.801 323.152 115.387C322.176 115.973 321.021 116.266 319.69 116.266ZM319.707 113.692C320.43 113.692 321.033 113.493 321.519 113.097C322.004 112.694 322.365 112.156 322.602 111.481C322.844 110.806 322.966 110.055 322.966 109.226C322.966 108.392 322.844 107.637 322.602 106.962C322.365 106.282 322.004 105.74 321.519 105.338C321.033 104.935 320.43 104.734 319.707 104.734C318.968 104.734 318.352 104.935 317.861 105.338C317.376 105.74 317.012 106.282 316.769 106.962C316.532 107.637 316.414 108.392 316.414 109.226C316.414 110.055 316.532 110.806 316.769 111.481C317.012 112.156 317.376 112.694 317.861 113.097C318.352 113.493 318.968 113.692 319.707 113.692ZM338.893 110.265V102.364H342.107V116H338.991V113.576H338.849C338.541 114.34 338.035 114.964 337.33 115.45C336.632 115.935 335.771 116.178 334.747 116.178C333.853 116.178 333.063 115.979 332.377 115.583C331.696 115.18 331.163 114.597 330.779 113.834C330.394 113.064 330.202 112.135 330.202 111.046V102.364H333.415V110.549C333.415 111.413 333.652 112.1 334.126 112.609C334.599 113.118 335.22 113.372 335.99 113.372C336.463 113.372 336.922 113.257 337.366 113.026C337.81 112.795 338.174 112.452 338.458 111.996C338.748 111.534 338.893 110.957 338.893 110.265ZM357.326 97.8182V116H354.113V97.8182H357.326ZM367.918 116.266C366.551 116.266 365.37 115.982 364.376 115.414C363.388 114.84 362.627 114.029 362.094 112.982C361.562 111.928 361.295 110.688 361.295 109.262C361.295 107.859 361.562 106.628 362.094 105.569C362.633 104.503 363.385 103.675 364.349 103.083C365.314 102.485 366.447 102.186 367.749 102.186C368.59 102.186 369.383 102.322 370.129 102.594C370.88 102.861 371.543 103.275 372.117 103.837C372.697 104.4 373.153 105.116 373.485 105.986C373.816 106.85 373.982 107.88 373.982 109.075V110.061H362.805V107.895H370.901C370.895 107.279 370.762 106.732 370.502 106.252C370.241 105.767 369.877 105.385 369.41 105.107C368.948 104.829 368.409 104.69 367.794 104.69C367.137 104.69 366.56 104.849 366.063 105.169C365.566 105.483 365.178 105.897 364.9 106.412C364.627 106.921 364.488 107.48 364.482 108.09V109.981C364.482 110.774 364.627 111.455 364.917 112.023C365.207 112.585 365.613 113.017 366.134 113.319C366.655 113.615 367.264 113.763 367.963 113.763C368.43 113.763 368.853 113.698 369.232 113.567C369.611 113.431 369.939 113.233 370.218 112.973C370.496 112.712 370.706 112.39 370.848 112.005L373.849 112.342C373.659 113.135 373.298 113.828 372.765 114.42C372.239 115.006 371.564 115.461 370.741 115.787C369.919 116.107 368.978 116.266 367.918 116.266ZM381.875 116.275C381.01 116.275 380.232 116.121 379.54 115.814C378.853 115.5 378.309 115.038 377.906 114.429C377.51 113.819 377.311 113.067 377.311 112.174C377.311 111.404 377.453 110.768 377.737 110.265C378.022 109.762 378.409 109.359 378.9 109.058C379.392 108.756 379.945 108.528 380.561 108.374C381.182 108.214 381.824 108.099 382.487 108.028C383.286 107.945 383.934 107.871 384.431 107.806C384.929 107.735 385.29 107.628 385.514 107.486C385.745 107.338 385.861 107.11 385.861 106.803V106.749C385.861 106.08 385.662 105.563 385.266 105.196C384.869 104.829 384.298 104.645 383.552 104.645C382.765 104.645 382.141 104.817 381.679 105.16C381.224 105.503 380.916 105.909 380.756 106.376L377.755 105.95C377.992 105.122 378.383 104.429 378.927 103.873C379.472 103.311 380.137 102.89 380.925 102.612C381.712 102.328 382.582 102.186 383.535 102.186C384.192 102.186 384.846 102.263 385.497 102.417C386.148 102.571 386.743 102.825 387.281 103.18C387.82 103.53 388.252 104.006 388.577 104.61C388.909 105.213 389.074 105.968 389.074 106.874V116H385.985V114.127H385.878C385.683 114.506 385.408 114.861 385.053 115.192C384.704 115.518 384.263 115.781 383.73 115.982C383.203 116.178 382.585 116.275 381.875 116.275ZM382.709 113.914C383.354 113.914 383.914 113.786 384.387 113.532C384.86 113.272 385.224 112.928 385.479 112.502C385.739 112.076 385.87 111.611 385.87 111.108V109.501C385.769 109.584 385.597 109.661 385.355 109.732C385.118 109.803 384.852 109.865 384.556 109.919C384.26 109.972 383.967 110.019 383.677 110.061C383.387 110.102 383.135 110.138 382.922 110.167C382.443 110.232 382.014 110.339 381.635 110.487C381.256 110.635 380.957 110.842 380.738 111.108C380.519 111.369 380.41 111.706 380.41 112.12C380.41 112.712 380.626 113.159 381.058 113.461C381.49 113.763 382.04 113.914 382.709 113.914ZM393.556 116V102.364H396.672V104.636H396.814C397.063 103.849 397.489 103.243 398.093 102.816C398.702 102.384 399.398 102.168 400.179 102.168C400.356 102.168 400.555 102.177 400.774 102.195C400.999 102.207 401.185 102.228 401.333 102.257V105.213C401.197 105.166 400.981 105.125 400.685 105.089C400.395 105.048 400.114 105.027 399.842 105.027C399.256 105.027 398.729 105.154 398.261 105.409C397.8 105.657 397.436 106.004 397.169 106.447C396.903 106.891 396.77 107.403 396.77 107.983V116H393.556ZM407.932 108.01V116H404.718V102.364H407.79V104.681H407.95C408.263 103.917 408.763 103.311 409.45 102.861C410.143 102.411 410.998 102.186 412.016 102.186C412.957 102.186 413.776 102.387 414.475 102.79C415.179 103.192 415.724 103.775 416.108 104.539C416.499 105.302 416.691 106.228 416.685 107.317V116H413.472V107.815C413.472 106.903 413.235 106.19 412.761 105.675C412.294 105.16 411.646 104.903 410.817 104.903C410.255 104.903 409.755 105.027 409.317 105.276C408.885 105.518 408.544 105.87 408.296 106.332C408.053 106.794 407.932 107.353 407.932 108.01ZM431.468 116L427.615 102.364H430.891L433.288 111.952H433.412L435.862 102.364H439.103L441.553 111.898H441.686L444.048 102.364H447.333L443.471 116H440.124L437.567 106.785H437.381L434.824 116H431.468ZM454.04 108.01V116H450.827V97.8182H453.969V104.681H454.129C454.449 103.911 454.943 103.305 455.612 102.861C456.286 102.411 457.145 102.186 458.186 102.186C459.133 102.186 459.959 102.384 460.663 102.781C461.367 103.177 461.912 103.757 462.297 104.521C462.687 105.284 462.883 106.217 462.883 107.317V116H459.669V107.815C459.669 106.897 459.432 106.184 458.959 105.675C458.491 105.16 457.834 104.903 456.988 104.903C456.42 104.903 455.911 105.027 455.461 105.276C455.017 105.518 454.668 105.87 454.413 106.332C454.165 106.794 454.04 107.353 454.04 108.01ZM471.333 116.275C470.468 116.275 469.69 116.121 468.998 115.814C468.311 115.5 467.767 115.038 467.364 114.429C466.968 113.819 466.769 113.067 466.769 112.174C466.769 111.404 466.911 110.768 467.196 110.265C467.48 109.762 467.867 109.359 468.359 109.058C468.85 108.756 469.403 108.528 470.019 108.374C470.64 108.214 471.282 108.099 471.945 108.028C472.744 107.945 473.392 107.871 473.889 107.806C474.387 107.735 474.748 107.628 474.972 107.486C475.203 107.338 475.319 107.11 475.319 106.803V106.749C475.319 106.08 475.12 105.563 474.724 105.196C474.327 104.829 473.756 104.645 473.01 104.645C472.223 104.645 471.599 104.817 471.137 105.16C470.682 105.503 470.374 105.909 470.214 106.376L467.213 105.95C467.45 105.122 467.841 104.429 468.385 103.873C468.93 103.311 469.595 102.89 470.383 102.612C471.17 102.328 472.04 102.186 472.993 102.186C473.65 102.186 474.304 102.263 474.955 102.417C475.606 102.571 476.201 102.825 476.739 103.18C477.278 103.53 477.71 104.006 478.035 104.61C478.367 105.213 478.533 105.968 478.533 106.874V116H475.443V114.127H475.336C475.141 114.506 474.866 114.861 474.511 115.192C474.162 115.518 473.721 115.781 473.188 115.982C472.661 116.178 472.043 116.275 471.333 116.275ZM472.167 113.914C472.812 113.914 473.372 113.786 473.845 113.532C474.318 113.272 474.682 112.928 474.937 112.502C475.197 112.076 475.328 111.611 475.328 111.108V109.501C475.227 109.584 475.055 109.661 474.813 109.732C474.576 109.803 474.31 109.865 474.014 109.919C473.718 109.972 473.425 110.019 473.135 110.061C472.845 110.102 472.593 110.138 472.38 110.167C471.901 110.232 471.472 110.339 471.093 110.487C470.714 110.635 470.415 110.842 470.196 111.108C469.977 111.369 469.868 111.706 469.868 112.12C469.868 112.712 470.084 113.159 470.516 113.461C470.948 113.763 471.498 113.914 472.167 113.914ZM489.823 102.364V104.849H481.984V102.364H489.823ZM483.92 99.0966H487.133V111.898C487.133 112.33 487.198 112.662 487.329 112.893C487.465 113.118 487.642 113.272 487.861 113.354C488.08 113.437 488.323 113.479 488.589 113.479C488.791 113.479 488.974 113.464 489.14 113.434C489.311 113.405 489.442 113.378 489.53 113.354L490.072 115.867C489.9 115.926 489.655 115.991 489.335 116.062C489.021 116.133 488.637 116.175 488.181 116.186C487.376 116.21 486.651 116.089 486.006 115.822C485.361 115.55 484.849 115.13 484.47 114.562C484.097 113.994 483.914 113.283 483.92 112.431V99.0966ZM503.21 121.114C502.772 121.114 502.366 121.078 501.994 121.007C501.627 120.942 501.334 120.865 501.115 120.776L501.86 118.273C502.328 118.409 502.745 118.474 503.112 118.468C503.479 118.462 503.802 118.347 504.08 118.122C504.364 117.903 504.604 117.536 504.799 117.021L505.074 116.284L500.129 102.364H503.538L506.681 112.662H506.823L509.975 102.364H513.393L507.933 117.651C507.678 118.373 507.341 118.992 506.921 119.507C506.501 120.028 505.986 120.424 505.376 120.696C504.772 120.975 504.05 121.114 503.21 121.114ZM522.351 116.266C521.019 116.266 519.865 115.973 518.889 115.387C517.912 114.801 517.154 113.982 516.616 112.928C516.083 111.875 515.817 110.644 515.817 109.235C515.817 107.826 516.083 106.592 516.616 105.533C517.154 104.474 517.912 103.651 518.889 103.065C519.865 102.479 521.019 102.186 522.351 102.186C523.683 102.186 524.837 102.479 525.813 103.065C526.79 103.651 527.544 104.474 528.077 105.533C528.616 106.592 528.885 107.826 528.885 109.235C528.885 110.644 528.616 111.875 528.077 112.928C527.544 113.982 526.79 114.801 525.813 115.387C524.837 115.973 523.683 116.266 522.351 116.266ZM522.369 113.692C523.091 113.692 523.694 113.493 524.18 113.097C524.665 112.694 525.026 112.156 525.263 111.481C525.505 110.806 525.627 110.055 525.627 109.226C525.627 108.392 525.505 107.637 525.263 106.962C525.026 106.282 524.665 105.74 524.18 105.338C523.694 104.935 523.091 104.734 522.369 104.734C521.629 104.734 521.013 104.935 520.522 105.338C520.037 105.74 519.673 106.282 519.43 106.962C519.193 107.637 519.075 108.392 519.075 109.226C519.075 110.055 519.193 110.806 519.43 111.481C519.673 112.156 520.037 112.694 520.522 113.097C521.013 113.493 521.629 113.692 522.369 113.692ZM541.554 110.265V102.364H544.768V116H541.652V113.576H541.51C541.202 114.34 540.696 114.964 539.992 115.45C539.293 115.935 538.432 116.178 537.408 116.178C536.514 116.178 535.724 115.979 535.038 115.583C534.357 115.18 533.824 114.597 533.44 113.834C533.055 113.064 532.863 112.135 532.863 111.046V102.364H536.076V110.549C536.076 111.413 536.313 112.1 536.787 112.609C537.26 113.118 537.882 113.372 538.651 113.372C539.125 113.372 539.583 113.257 540.027 113.026C540.471 112.795 540.835 112.452 541.119 111.996C541.409 111.534 541.554 110.957 541.554 110.265ZM559.988 108.01V116H556.774V102.364H559.846V104.681H560.005C560.319 103.917 560.819 103.311 561.506 102.861C562.198 102.411 563.053 102.186 564.071 102.186C565.012 102.186 565.832 102.387 566.531 102.79C567.235 103.192 567.779 103.775 568.164 104.539C568.555 105.302 568.747 106.228 568.741 107.317V116H565.527V107.815C565.527 106.903 565.291 106.19 564.817 105.675C564.35 105.16 563.701 104.903 562.873 104.903C562.311 104.903 561.811 105.027 561.373 105.276C560.94 105.518 560.6 105.87 560.352 106.332C560.109 106.794 559.988 107.353 559.988 108.01ZM579.295 116.266C577.928 116.266 576.747 115.982 575.753 115.414C574.764 114.84 574.004 114.029 573.471 112.982C572.939 111.928 572.672 110.688 572.672 109.262C572.672 107.859 572.939 106.628 573.471 105.569C574.01 104.503 574.761 103.675 575.726 103.083C576.691 102.485 577.824 102.186 579.126 102.186C579.967 102.186 580.76 102.322 581.506 102.594C582.257 102.861 582.92 103.275 583.494 103.837C584.074 104.4 584.53 105.116 584.862 105.986C585.193 106.85 585.359 107.88 585.359 109.075V110.061H574.181V107.895H582.278C582.272 107.279 582.139 106.732 581.879 106.252C581.618 105.767 581.254 105.385 580.787 105.107C580.325 104.829 579.786 104.69 579.171 104.69C578.514 104.69 577.937 104.849 577.44 105.169C576.942 105.483 576.555 105.897 576.277 106.412C576.004 106.921 575.865 107.48 575.859 108.09V109.981C575.859 110.774 576.004 111.455 576.294 112.023C576.584 112.585 576.99 113.017 577.511 113.319C578.032 113.615 578.641 113.763 579.34 113.763C579.807 113.763 580.23 113.698 580.609 113.567C580.988 113.431 581.316 113.233 581.594 112.973C581.873 112.712 582.083 112.39 582.225 112.005L585.226 112.342C585.036 113.135 584.675 113.828 584.142 114.42C583.616 115.006 582.941 115.461 582.118 115.787C581.296 116.107 580.355 116.266 579.295 116.266ZM595.364 116.266C593.997 116.266 592.817 115.982 591.822 115.414C590.834 114.84 590.073 114.029 589.541 112.982C589.008 111.928 588.742 110.688 588.742 109.262C588.742 107.859 589.008 106.628 589.541 105.569C590.079 104.503 590.831 103.675 591.796 103.083C592.76 102.485 593.894 102.186 595.196 102.186C596.036 102.186 596.829 102.322 597.575 102.594C598.327 102.861 598.99 103.275 599.564 103.837C600.144 104.4 600.599 105.116 600.931 105.986C601.262 106.85 601.428 107.88 601.428 109.075V110.061H590.251V107.895H598.347C598.341 107.279 598.208 106.732 597.948 106.252C597.687 105.767 597.323 105.385 596.856 105.107C596.394 104.829 595.856 104.69 595.24 104.69C594.583 104.69 594.006 104.849 593.509 105.169C593.012 105.483 592.624 105.897 592.346 106.412C592.074 106.921 591.935 107.48 591.929 108.09V109.981C591.929 110.774 592.074 111.455 592.364 112.023C592.654 112.585 593.059 113.017 593.58 113.319C594.101 113.615 594.71 113.763 595.409 113.763C595.876 113.763 596.3 113.698 596.678 113.567C597.057 113.431 597.386 113.233 597.664 112.973C597.942 112.712 598.152 112.39 598.294 112.005L601.295 112.342C601.105 113.135 600.744 113.828 600.212 114.42C599.685 115.006 599.01 115.461 598.188 115.787C597.365 116.107 596.424 116.266 595.364 116.266ZM610.457 116.24C609.386 116.24 608.427 115.964 607.581 115.414C606.734 114.864 606.066 114.065 605.574 113.017C605.083 111.969 604.838 110.697 604.838 109.2C604.838 107.684 605.086 106.406 605.583 105.364C606.086 104.317 606.764 103.527 607.616 102.994C608.469 102.455 609.419 102.186 610.466 102.186C611.265 102.186 611.922 102.322 612.437 102.594C612.952 102.861 613.36 103.183 613.662 103.562C613.964 103.935 614.198 104.287 614.363 104.619H614.497V97.8182H617.719V116H614.559V113.852H614.363C614.198 114.183 613.958 114.535 613.644 114.908C613.331 115.275 612.916 115.589 612.401 115.849C611.887 116.109 611.238 116.24 610.457 116.24ZM611.354 113.603C612.035 113.603 612.615 113.42 613.094 113.053C613.573 112.68 613.937 112.162 614.186 111.499C614.434 110.836 614.559 110.064 614.559 109.182C614.559 108.3 614.434 107.533 614.186 106.882C613.943 106.231 613.582 105.725 613.103 105.364C612.629 105.003 612.046 104.823 611.354 104.823C610.638 104.823 610.04 105.009 609.561 105.382C609.081 105.755 608.72 106.27 608.477 106.927C608.235 107.584 608.113 108.335 608.113 109.182C608.113 110.034 608.235 110.795 608.477 111.463C608.726 112.126 609.09 112.65 609.569 113.035C610.055 113.414 610.65 113.603 611.354 113.603ZM636.654 102.364V104.849H628.815V102.364H636.654ZM630.751 99.0966H633.964V111.898C633.964 112.33 634.03 112.662 634.16 112.893C634.296 113.118 634.473 113.272 634.692 113.354C634.911 113.437 635.154 113.479 635.42 113.479C635.622 113.479 635.805 113.464 635.971 113.434C636.142 113.405 636.273 113.378 636.361 113.354L636.903 115.867C636.731 115.926 636.486 115.991 636.166 116.062C635.852 116.133 635.468 116.175 635.012 116.186C634.207 116.21 633.482 116.089 632.837 115.822C632.192 115.55 631.68 115.13 631.301 114.562C630.928 113.994 630.745 113.283 630.751 112.431V99.0966ZM646.394 116.266C645.062 116.266 643.908 115.973 642.931 115.387C641.955 114.801 641.197 113.982 640.659 112.928C640.126 111.875 639.86 110.644 639.86 109.235C639.86 107.826 640.126 106.592 640.659 105.533C641.197 104.474 641.955 103.651 642.931 103.065C643.908 102.479 645.062 102.186 646.394 102.186C647.726 102.186 648.88 102.479 649.856 103.065C650.833 103.651 651.587 104.474 652.12 105.533C652.659 106.592 652.928 107.826 652.928 109.235C652.928 110.644 652.659 111.875 652.12 112.928C651.587 113.982 650.833 114.801 649.856 115.387C648.88 115.973 647.726 116.266 646.394 116.266ZM646.412 113.692C647.134 113.692 647.737 113.493 648.223 113.097C648.708 112.694 649.069 112.156 649.306 111.481C649.548 110.806 649.67 110.055 649.67 109.226C649.67 108.392 649.548 107.637 649.306 106.962C649.069 106.282 648.708 105.74 648.223 105.338C647.737 104.935 647.134 104.734 646.412 104.734C645.672 104.734 645.056 104.935 644.565 105.338C644.08 105.74 643.716 106.282 643.473 106.962C643.236 107.637 643.118 108.392 643.118 109.226C643.118 110.055 643.236 110.806 643.473 111.481C643.716 112.156 644.08 112.694 644.565 113.097C645.056 113.493 645.672 113.692 646.412 113.692ZM664.499 116V97.8182H667.713V104.619H667.846C668.012 104.287 668.245 103.935 668.547 103.562C668.849 103.183 669.257 102.861 669.772 102.594C670.287 102.322 670.944 102.186 671.743 102.186C672.797 102.186 673.747 102.455 674.593 102.994C675.445 103.527 676.12 104.317 676.617 105.364C677.12 106.406 677.372 107.684 677.372 109.2C677.372 110.697 677.126 111.969 676.635 113.017C676.144 114.065 675.475 114.864 674.628 115.414C673.782 115.964 672.823 116.24 671.752 116.24C670.971 116.24 670.323 116.109 669.808 115.849C669.293 115.589 668.879 115.275 668.565 114.908C668.257 114.535 668.017 114.183 667.846 113.852H667.659V116H664.499ZM667.65 109.182C667.65 110.064 667.775 110.836 668.023 111.499C668.278 112.162 668.642 112.68 669.115 113.053C669.595 113.42 670.175 113.603 670.855 113.603C671.566 113.603 672.16 113.414 672.64 113.035C673.119 112.65 673.48 112.126 673.723 111.463C673.972 110.795 674.096 110.034 674.096 109.182C674.096 108.335 673.974 107.584 673.732 106.927C673.489 106.27 673.128 105.755 672.649 105.382C672.169 105.009 671.572 104.823 670.855 104.823C670.169 104.823 669.586 105.003 669.106 105.364C668.627 105.725 668.263 106.231 668.014 106.882C667.772 107.533 667.65 108.3 667.65 109.182ZM682.888 121.114C682.45 121.114 682.044 121.078 681.671 121.007C681.304 120.942 681.011 120.865 680.792 120.776L681.538 118.273C682.006 118.409 682.423 118.474 682.79 118.468C683.157 118.462 683.479 118.347 683.758 118.122C684.042 117.903 684.281 117.536 684.477 117.021L684.752 116.284L679.807 102.364H683.216L686.359 112.662H686.501L689.652 102.364H693.07L687.611 117.651C687.356 118.373 687.019 118.992 686.598 119.507C686.178 120.028 685.663 120.424 685.054 120.696C684.45 120.975 683.728 121.114 682.888 121.114ZM138.362 146.266C136.995 146.266 135.815 145.982 134.82 145.414C133.832 144.84 133.071 144.029 132.539 142.982C132.006 141.928 131.74 140.688 131.74 139.262C131.74 137.859 132.006 136.628 132.539 135.569C133.077 134.503 133.829 133.675 134.794 133.083C135.758 132.485 136.892 132.186 138.194 132.186C139.034 132.186 139.827 132.322 140.573 132.594C141.325 132.861 141.988 133.275 142.562 133.837C143.142 134.4 143.597 135.116 143.929 135.986C144.26 136.85 144.426 137.88 144.426 139.075V140.061H133.249V137.895H141.345C141.34 137.279 141.206 136.732 140.946 136.252C140.686 135.767 140.322 135.385 139.854 135.107C139.392 134.829 138.854 134.69 138.238 134.69C137.581 134.69 137.004 134.849 136.507 135.169C136.01 135.483 135.622 135.897 135.344 136.412C135.072 136.921 134.933 137.48 134.927 138.09V139.981C134.927 140.774 135.072 141.455 135.362 142.023C135.652 142.585 136.057 143.017 136.578 143.319C137.099 143.615 137.708 143.763 138.407 143.763C138.874 143.763 139.298 143.698 139.676 143.567C140.055 143.431 140.384 143.233 140.662 142.973C140.94 142.712 141.15 142.39 141.292 142.005L144.293 142.342C144.103 143.135 143.742 143.828 143.21 144.42C142.683 145.006 142.008 145.461 141.186 145.787C140.363 146.107 139.422 146.266 138.362 146.266ZM150.73 132.364L153.482 137.397L156.278 132.364H159.679L155.568 139.182L159.75 146H156.367L153.482 141.091L150.623 146H147.214L151.369 139.182L147.321 132.364H150.73ZM168.85 146.266C167.489 146.266 166.32 145.967 165.343 145.37C164.372 144.772 163.624 143.946 163.097 142.893C162.576 141.833 162.316 140.614 162.316 139.235C162.316 137.85 162.582 136.628 163.115 135.569C163.647 134.503 164.399 133.675 165.37 133.083C166.346 132.485 167.5 132.186 168.832 132.186C169.939 132.186 170.918 132.39 171.771 132.799C172.629 133.201 173.312 133.772 173.821 134.512C174.33 135.246 174.62 136.104 174.692 137.087H171.62C171.495 136.43 171.2 135.882 170.732 135.444C170.27 135 169.652 134.778 168.877 134.778C168.22 134.778 167.643 134.956 167.145 135.311C166.648 135.66 166.261 136.163 165.982 136.82C165.71 137.477 165.574 138.264 165.574 139.182C165.574 140.111 165.71 140.91 165.982 141.579C166.255 142.242 166.636 142.754 167.128 143.115C167.625 143.47 168.208 143.647 168.877 143.647C169.35 143.647 169.773 143.559 170.146 143.381C170.525 143.198 170.841 142.934 171.096 142.591C171.35 142.248 171.525 141.83 171.62 141.339H174.692C174.615 142.304 174.33 143.159 173.839 143.905C173.348 144.645 172.679 145.225 171.833 145.645C170.986 146.059 169.992 146.266 168.85 146.266ZM181.794 127.818V146H178.58V127.818H181.794ZM195.04 140.265V132.364H198.254V146H195.138V143.576H194.996C194.688 144.34 194.182 144.964 193.478 145.45C192.78 145.935 191.918 146.178 190.894 146.178C190.001 146.178 189.211 145.979 188.524 145.583C187.843 145.18 187.311 144.597 186.926 143.834C186.541 143.064 186.349 142.135 186.349 141.046V132.364H189.563V140.549C189.563 141.413 189.8 142.1 190.273 142.609C190.746 143.118 191.368 143.372 192.137 143.372C192.611 143.372 193.07 143.257 193.513 143.026C193.957 142.795 194.321 142.452 194.605 141.996C194.895 141.534 195.04 140.957 195.04 140.265ZM213.587 135.968L210.657 136.288C210.574 135.992 210.429 135.714 210.222 135.453C210.021 135.193 209.748 134.983 209.405 134.823C209.062 134.663 208.642 134.583 208.145 134.583C207.476 134.583 206.913 134.728 206.458 135.018C206.008 135.308 205.786 135.684 205.792 136.146C205.786 136.542 205.931 136.865 206.227 137.113C206.529 137.362 207.026 137.566 207.718 137.726L210.044 138.223C211.335 138.501 212.293 138.942 212.921 139.546C213.554 140.15 213.874 140.94 213.88 141.916C213.874 142.774 213.622 143.532 213.125 144.189C212.634 144.84 211.95 145.349 211.074 145.716C210.198 146.083 209.192 146.266 208.056 146.266C206.387 146.266 205.043 145.917 204.025 145.219C203.007 144.514 202.401 143.535 202.205 142.28L205.339 141.978C205.481 142.594 205.783 143.058 206.245 143.372C206.706 143.686 207.307 143.843 208.047 143.843C208.81 143.843 209.423 143.686 209.885 143.372C210.352 143.058 210.586 142.671 210.586 142.209C210.586 141.819 210.435 141.496 210.133 141.241C209.837 140.987 209.376 140.792 208.748 140.656L206.422 140.167C205.114 139.895 204.147 139.436 203.519 138.791C202.892 138.14 202.581 137.317 202.587 136.323C202.581 135.483 202.809 134.755 203.271 134.139C203.738 133.518 204.386 133.038 205.215 132.701C206.049 132.358 207.011 132.186 208.1 132.186C209.698 132.186 210.956 132.526 211.873 133.207C212.797 133.888 213.368 134.808 213.587 135.968ZM217.78 146V132.364H220.993V146H217.78ZM219.395 130.428C218.886 130.428 218.448 130.26 218.082 129.922C217.715 129.579 217.531 129.168 217.531 128.688C217.531 128.203 217.715 127.792 218.082 127.454C218.448 127.111 218.886 126.939 219.395 126.939C219.91 126.939 220.348 127.111 220.709 127.454C221.076 127.792 221.26 128.203 221.26 128.688C221.26 129.168 221.076 129.579 220.709 129.922C220.348 130.26 219.91 130.428 219.395 130.428ZM237.729 132.364L232.872 146H229.321L224.465 132.364H227.892L231.026 142.493H231.168L234.311 132.364H237.729ZM246.776 146.266C245.408 146.266 244.228 145.982 243.233 145.414C242.245 144.84 241.484 144.029 240.952 142.982C240.419 141.928 240.153 140.688 240.153 139.262C240.153 137.859 240.419 136.628 240.952 135.569C241.49 134.503 242.242 133.675 243.207 133.083C244.171 132.485 245.305 132.186 246.607 132.186C247.447 132.186 248.24 132.322 248.986 132.594C249.738 132.861 250.401 133.275 250.975 133.837C251.555 134.4 252.011 135.116 252.342 135.986C252.673 136.85 252.839 137.88 252.839 139.075V140.061H241.662V137.895H249.759C249.753 137.279 249.619 136.732 249.359 136.252C249.099 135.767 248.735 135.385 248.267 135.107C247.805 134.829 247.267 134.69 246.651 134.69C245.994 134.69 245.417 134.849 244.92 135.169C244.423 135.483 244.035 135.897 243.757 136.412C243.485 136.921 243.346 137.48 243.34 138.09V139.981C243.34 140.774 243.485 141.455 243.775 142.023C244.065 142.585 244.47 143.017 244.991 143.319C245.512 143.615 246.122 143.763 246.82 143.763C247.288 143.763 247.711 143.698 248.09 143.567C248.468 143.431 248.797 143.233 249.075 142.973C249.353 142.712 249.563 142.39 249.705 142.005L252.706 142.342C252.517 143.135 252.156 143.828 251.623 144.42C251.096 145.006 250.421 145.461 249.599 145.787C248.776 146.107 247.835 146.266 246.776 146.266ZM270.296 146.266C268.929 146.266 267.748 145.982 266.754 145.414C265.765 144.84 265.005 144.029 264.472 142.982C263.94 141.928 263.673 140.688 263.673 139.262C263.673 137.859 263.94 136.628 264.472 135.569C265.011 134.503 265.762 133.675 266.727 133.083C267.692 132.485 268.825 132.186 270.127 132.186C270.968 132.186 271.761 132.322 272.507 132.594C273.258 132.861 273.921 133.275 274.495 133.837C275.075 134.4 275.531 135.116 275.862 135.986C276.194 136.85 276.36 137.88 276.36 139.075V140.061H265.182V137.895H273.279C273.273 137.279 273.14 136.732 272.88 136.252C272.619 135.767 272.255 135.385 271.788 135.107C271.326 134.829 270.787 134.69 270.172 134.69C269.515 134.69 268.938 134.849 268.441 135.169C267.943 135.483 267.556 135.897 267.278 136.412C267.005 136.921 266.866 137.48 266.86 138.09V139.981C266.86 140.774 267.005 141.455 267.295 142.023C267.585 142.585 267.991 143.017 268.512 143.319C269.032 143.615 269.642 143.763 270.34 143.763C270.808 143.763 271.231 143.698 271.61 143.567C271.989 143.431 272.317 143.233 272.595 142.973C272.874 142.712 273.084 142.39 273.226 142.005L276.226 142.342C276.037 143.135 275.676 143.828 275.143 144.42C274.617 145.006 273.942 145.461 273.119 145.787C272.297 146.107 271.356 146.266 270.296 146.266ZM292.118 132.364L287.262 146H283.711L278.855 132.364H282.282L285.415 142.493H285.558L288.7 132.364H292.118ZM301.165 146.266C299.798 146.266 298.617 145.982 297.623 145.414C296.635 144.84 295.874 144.029 295.341 142.982C294.809 141.928 294.542 140.688 294.542 139.262C294.542 137.859 294.809 136.628 295.341 135.569C295.88 134.503 296.632 133.675 297.596 133.083C298.561 132.485 299.694 132.186 300.997 132.186C301.837 132.186 302.63 132.322 303.376 132.594C304.127 132.861 304.79 133.275 305.364 133.837C305.944 134.4 306.4 135.116 306.732 135.986C307.063 136.85 307.229 137.88 307.229 139.075V140.061H296.052V137.895H304.148C304.142 137.279 304.009 136.732 303.749 136.252C303.488 135.767 303.124 135.385 302.657 135.107C302.195 134.829 301.656 134.69 301.041 134.69C300.384 134.69 299.807 134.849 299.31 135.169C298.813 135.483 298.425 135.897 298.147 136.412C297.875 136.921 297.735 137.48 297.73 138.09V139.981C297.73 140.774 297.875 141.455 298.165 142.023C298.455 142.585 298.86 143.017 299.381 143.319C299.902 143.615 300.511 143.763 301.21 143.763C301.677 143.763 302.1 143.698 302.479 143.567C302.858 143.431 303.186 143.233 303.465 142.973C303.743 142.712 303.953 142.39 304.095 142.005L307.096 142.342C306.906 143.135 306.545 143.828 306.013 144.42C305.486 145.006 304.811 145.461 303.988 145.787C303.166 146.107 302.225 146.266 301.165 146.266ZM314.411 138.01V146H311.198V132.364H314.269V134.681H314.429C314.743 133.917 315.243 133.311 315.93 132.861C316.622 132.411 317.477 132.186 318.495 132.186C319.436 132.186 320.256 132.387 320.954 132.79C321.659 133.192 322.203 133.775 322.588 134.539C322.979 135.302 323.171 136.228 323.165 137.317V146H319.951V137.815C319.951 136.903 319.714 136.19 319.241 135.675C318.773 135.16 318.125 134.903 317.297 134.903C316.734 134.903 316.234 135.027 315.796 135.276C315.364 135.518 315.024 135.87 314.775 136.332C314.533 136.794 314.411 137.353 314.411 138.01ZM334.491 132.364V134.849H326.652V132.364H334.491ZM328.588 129.097H331.801V141.898C331.801 142.33 331.866 142.662 331.997 142.893C332.133 143.118 332.31 143.272 332.529 143.354C332.748 143.437 332.991 143.479 333.257 143.479C333.459 143.479 333.642 143.464 333.808 143.434C333.979 143.405 334.11 143.378 334.198 143.354L334.74 145.867C334.568 145.926 334.323 145.991 334.003 146.062C333.689 146.133 333.305 146.175 332.849 146.186C332.044 146.21 331.319 146.089 330.674 145.822C330.029 145.55 329.517 145.13 329.138 144.562C328.765 143.994 328.582 143.283 328.588 142.431V129.097ZM349.011 135.968L346.082 136.288C345.999 135.992 345.854 135.714 345.647 135.453C345.446 135.193 345.173 134.983 344.83 134.823C344.487 134.663 344.067 134.583 343.569 134.583C342.901 134.583 342.338 134.728 341.883 135.018C341.433 135.308 341.211 135.684 341.217 136.146C341.211 136.542 341.356 136.865 341.652 137.113C341.954 137.362 342.451 137.566 343.143 137.726L345.469 138.223C346.759 138.501 347.718 138.942 348.346 139.546C348.979 140.15 349.299 140.94 349.304 141.916C349.299 142.774 349.047 143.532 348.55 144.189C348.059 144.84 347.375 145.349 346.499 145.716C345.623 146.083 344.617 146.266 343.481 146.266C341.812 146.266 340.468 145.917 339.45 145.219C338.432 144.514 337.825 143.535 337.63 142.28L340.764 141.978C340.906 142.594 341.208 143.058 341.669 143.372C342.131 143.686 342.732 143.843 343.472 143.843C344.235 143.843 344.848 143.686 345.309 143.372C345.777 143.058 346.011 142.671 346.011 142.209C346.011 141.819 345.86 141.496 345.558 141.241C345.262 140.987 344.8 140.792 344.173 140.656L341.847 140.167C340.539 139.895 339.571 139.436 338.944 138.791C338.317 138.14 338.006 137.317 338.012 136.323C338.006 135.483 338.234 134.755 338.695 134.139C339.163 133.518 339.811 133.038 340.64 132.701C341.474 132.358 342.436 132.186 343.525 132.186C345.123 132.186 346.381 132.526 347.298 133.207C348.221 133.888 348.792 134.808 349.011 135.968ZM356.978 143.514L356.862 144.491C356.779 145.237 356.631 145.994 356.418 146.763C356.211 147.539 355.992 148.252 355.761 148.903C355.53 149.554 355.344 150.066 355.202 150.439H353.036C353.119 150.078 353.231 149.587 353.373 148.965C353.521 148.344 353.663 147.645 353.799 146.87C353.935 146.095 354.027 145.308 354.074 144.509L354.137 143.514H356.978ZM379.495 135.968L376.565 136.288C376.482 135.992 376.337 135.714 376.13 135.453C375.929 135.193 375.657 134.983 375.313 134.823C374.97 134.663 374.55 134.583 374.053 134.583C373.384 134.583 372.822 134.728 372.366 135.018C371.916 135.308 371.694 135.684 371.7 136.146C371.694 136.542 371.839 136.865 372.135 137.113C372.437 137.362 372.934 137.566 373.627 137.726L375.953 138.223C377.243 138.501 378.202 138.942 378.829 139.546C379.462 140.15 379.782 140.94 379.788 141.916C379.782 142.774 379.53 143.532 379.033 144.189C378.542 144.84 377.858 145.349 376.982 145.716C376.106 146.083 375.1 146.266 373.964 146.266C372.295 146.266 370.951 145.917 369.933 145.219C368.915 144.514 368.309 143.535 368.113 142.28L371.247 141.978C371.389 142.594 371.691 143.058 372.153 143.372C372.615 143.686 373.215 143.843 373.955 143.843C374.719 143.843 375.331 143.686 375.793 143.372C376.26 143.058 376.494 142.671 376.494 142.209C376.494 141.819 376.343 141.496 376.041 141.241C375.745 140.987 375.284 140.792 374.656 140.656L372.33 140.167C371.022 139.895 370.055 139.436 369.427 138.791C368.8 138.14 368.489 137.317 368.495 136.323C368.489 135.483 368.717 134.755 369.179 134.139C369.646 133.518 370.294 133.038 371.123 132.701C371.958 132.358 372.919 132.186 374.008 132.186C375.606 132.186 376.864 132.526 377.781 133.207C378.705 133.888 379.276 134.808 379.495 135.968ZM389.725 146.266C388.358 146.266 387.177 145.982 386.183 145.414C385.194 144.84 384.434 144.029 383.901 142.982C383.368 141.928 383.102 140.688 383.102 139.262C383.102 137.859 383.368 136.628 383.901 135.569C384.44 134.503 385.191 133.675 386.156 133.083C387.121 132.485 388.254 132.186 389.556 132.186C390.397 132.186 391.19 132.322 391.935 132.594C392.687 132.861 393.35 133.275 393.924 133.837C394.504 134.4 394.96 135.116 395.291 135.986C395.623 136.85 395.788 137.88 395.788 139.075V140.061H384.611V137.895H392.708C392.702 137.279 392.569 136.732 392.308 136.252C392.048 135.767 391.684 135.385 391.216 135.107C390.755 134.829 390.216 134.69 389.601 134.69C388.944 134.69 388.366 134.849 387.869 135.169C387.372 135.483 386.985 135.897 386.706 136.412C386.434 136.921 386.295 137.48 386.289 138.09V139.981C386.289 140.774 386.434 141.455 386.724 142.023C387.014 142.585 387.42 143.017 387.94 143.319C388.461 143.615 389.071 143.763 389.769 143.763C390.237 143.763 390.66 143.698 391.039 143.567C391.418 143.431 391.746 143.233 392.024 142.973C392.302 142.712 392.512 142.39 392.654 142.005L395.655 142.342C395.466 143.135 395.105 143.828 394.572 144.42C394.045 145.006 393.371 145.461 392.548 145.787C391.725 146.107 390.784 146.266 389.725 146.266ZM410.535 135.968L407.605 136.288C407.522 135.992 407.377 135.714 407.17 135.453C406.969 135.193 406.697 134.983 406.353 134.823C406.01 134.663 405.59 134.583 405.093 134.583C404.424 134.583 403.862 134.728 403.406 135.018C402.956 135.308 402.734 135.684 402.74 136.146C402.734 136.542 402.879 136.865 403.175 137.113C403.477 137.362 403.974 137.566 404.667 137.726L406.993 138.223C408.283 138.501 409.242 138.942 409.869 139.546C410.502 140.15 410.822 140.94 410.828 141.916C410.822 142.774 410.57 143.532 410.073 144.189C409.582 144.84 408.898 145.349 408.022 145.716C407.147 146.083 406.14 146.266 405.004 146.266C403.335 146.266 401.991 145.917 400.973 145.219C399.955 144.514 399.349 143.535 399.154 142.28L402.287 141.978C402.429 142.594 402.731 143.058 403.193 143.372C403.655 143.686 404.255 143.843 404.995 143.843C405.759 143.843 406.371 143.686 406.833 143.372C407.3 143.058 407.534 142.671 407.534 142.209C407.534 141.819 407.383 141.496 407.081 141.241C406.785 140.987 406.324 140.792 405.696 140.656L403.37 140.167C402.062 139.895 401.095 139.436 400.467 138.791C399.84 138.14 399.529 137.317 399.535 136.323C399.529 135.483 399.757 134.755 400.219 134.139C400.686 133.518 401.335 133.038 402.163 132.701C402.998 132.358 403.959 132.186 405.048 132.186C406.646 132.186 407.904 132.526 408.821 133.207C409.745 133.888 410.316 134.808 410.535 135.968ZM425.506 135.968L422.576 136.288C422.493 135.992 422.348 135.714 422.141 135.453C421.94 135.193 421.667 134.983 421.324 134.823C420.981 134.663 420.561 134.583 420.063 134.583C419.395 134.583 418.832 134.728 418.377 135.018C417.927 135.308 417.705 135.684 417.711 136.146C417.705 136.542 417.85 136.865 418.146 137.113C418.448 137.362 418.945 137.566 419.637 137.726L421.963 138.223C423.254 138.501 424.212 138.942 424.84 139.546C425.473 140.15 425.793 140.94 425.799 141.916C425.793 142.774 425.541 143.532 425.044 144.189C424.553 144.84 423.869 145.349 422.993 145.716C422.117 146.083 421.111 146.266 419.975 146.266C418.306 146.266 416.962 145.917 415.944 145.219C414.926 144.514 414.32 143.535 414.124 142.28L417.258 141.978C417.4 142.594 417.702 143.058 418.164 143.372C418.625 143.686 419.226 143.843 419.966 143.843C420.729 143.843 421.342 143.686 421.804 143.372C422.271 143.058 422.505 142.671 422.505 142.209C422.505 141.819 422.354 141.496 422.052 141.241C421.756 140.987 421.295 140.792 420.667 140.656L418.341 140.167C417.033 139.895 416.066 139.436 415.438 138.791C414.811 138.14 414.5 137.317 414.506 136.323C414.5 135.483 414.728 134.755 415.19 134.139C415.657 133.518 416.305 133.038 417.134 132.701C417.968 132.358 418.93 132.186 420.019 132.186C421.617 132.186 422.875 132.526 423.792 133.207C424.715 133.888 425.287 134.808 425.506 135.968ZM429.699 146V132.364H432.912V146H429.699ZM431.314 130.428C430.805 130.428 430.367 130.26 430 129.922C429.634 129.579 429.45 129.168 429.45 128.688C429.45 128.203 429.634 127.792 430 127.454C430.367 127.111 430.805 126.939 431.314 126.939C431.829 126.939 432.267 127.111 432.628 127.454C432.995 127.792 433.179 128.203 433.179 128.688C433.179 129.168 432.995 129.579 432.628 129.922C432.267 130.26 431.829 130.428 431.314 130.428ZM443.415 146.266C442.084 146.266 440.93 145.973 439.953 145.387C438.976 144.801 438.219 143.982 437.68 142.928C437.148 141.875 436.881 140.644 436.881 139.235C436.881 137.826 437.148 136.592 437.68 135.533C438.219 134.474 438.976 133.651 439.953 133.065C440.93 132.479 442.084 132.186 443.415 132.186C444.747 132.186 445.901 132.479 446.878 133.065C447.854 133.651 448.609 134.474 449.142 135.533C449.68 136.592 449.949 137.826 449.949 139.235C449.949 140.644 449.68 141.875 449.142 142.928C448.609 143.982 447.854 144.801 446.878 145.387C445.901 145.973 444.747 146.266 443.415 146.266ZM443.433 143.692C444.155 143.692 444.759 143.493 445.244 143.097C445.729 142.694 446.091 142.156 446.327 141.481C446.57 140.806 446.691 140.055 446.691 139.226C446.691 138.392 446.57 137.637 446.327 136.962C446.091 136.282 445.729 135.74 445.244 135.338C444.759 134.935 444.155 134.734 443.433 134.734C442.693 134.734 442.078 134.935 441.586 135.338C441.101 135.74 440.737 136.282 440.495 136.962C440.258 137.637 440.139 138.392 440.139 139.226C440.139 140.055 440.258 140.806 440.495 141.481C440.737 142.156 441.101 142.694 441.586 143.097C442.078 143.493 442.693 143.692 443.433 143.692ZM457.141 138.01V146H453.927V132.364H456.999V134.681H457.159C457.472 133.917 457.972 133.311 458.659 132.861C459.351 132.411 460.207 132.186 461.225 132.186C462.166 132.186 462.985 132.387 463.684 132.79C464.388 133.192 464.933 133.775 465.317 134.539C465.708 135.302 465.9 136.228 465.894 137.317V146H462.681V137.815C462.681 136.903 462.444 136.19 461.97 135.675C461.503 135.16 460.855 134.903 460.026 134.903C459.464 134.903 458.964 135.027 458.526 135.276C458.094 135.518 457.753 135.87 457.505 136.332C457.262 136.794 457.141 137.353 457.141 138.01ZM481.189 135.968L478.26 136.288C478.177 135.992 478.032 135.714 477.824 135.453C477.623 135.193 477.351 134.983 477.008 134.823C476.664 134.663 476.244 134.583 475.747 134.583C475.078 134.583 474.516 134.728 474.06 135.018C473.61 135.308 473.389 135.684 473.394 136.146C473.389 136.542 473.534 136.865 473.829 137.113C474.131 137.362 474.628 137.566 475.321 137.726L477.647 138.223C478.937 138.501 479.896 138.942 480.523 139.546C481.157 140.15 481.476 140.94 481.482 141.916C481.476 142.774 481.225 143.532 480.728 144.189C480.236 144.84 479.553 145.349 478.677 145.716C477.801 146.083 476.795 146.266 475.658 146.266C473.989 146.266 472.646 145.917 471.628 145.219C470.61 144.514 470.003 143.535 469.808 142.28L472.942 141.978C473.084 142.594 473.386 143.058 473.847 143.372C474.309 143.686 474.91 143.843 475.649 143.843C476.413 143.843 477.025 143.686 477.487 143.372C477.955 143.058 478.188 142.671 478.188 142.209C478.188 141.819 478.038 141.496 477.736 141.241C477.44 140.987 476.978 140.792 476.351 140.656L474.025 140.167C472.717 139.895 471.749 139.436 471.122 138.791C470.494 138.14 470.184 137.317 470.19 136.323C470.184 135.483 470.412 134.755 470.873 134.139C471.341 133.518 471.989 133.038 472.817 132.701C473.652 132.358 474.614 132.186 475.703 132.186C477.301 132.186 478.558 132.526 479.476 133.207C480.399 133.888 480.97 134.808 481.189 135.968ZM496.757 146.275C495.893 146.275 495.115 146.121 494.423 145.814C493.736 145.5 493.191 145.038 492.789 144.429C492.392 143.819 492.194 143.067 492.194 142.174C492.194 141.404 492.336 140.768 492.62 140.265C492.904 139.762 493.292 139.359 493.783 139.058C494.275 138.756 494.828 138.528 495.443 138.374C496.065 138.214 496.707 138.099 497.37 138.028C498.169 137.945 498.817 137.871 499.314 137.806C499.811 137.735 500.172 137.628 500.397 137.486C500.628 137.338 500.744 137.11 500.744 136.803V136.749C500.744 136.08 500.545 135.563 500.149 135.196C499.752 134.829 499.181 134.645 498.435 134.645C497.648 134.645 497.024 134.817 496.562 135.16C496.106 135.503 495.799 135.909 495.639 136.376L492.638 135.95C492.875 135.122 493.265 134.429 493.81 133.873C494.354 133.311 495.02 132.89 495.807 132.612C496.595 132.328 497.465 132.186 498.418 132.186C499.074 132.186 499.729 132.263 500.38 132.417C501.031 132.571 501.625 132.825 502.164 133.18C502.703 133.53 503.135 134.006 503.46 134.61C503.792 135.213 503.957 135.968 503.957 136.874V146H500.868V144.127H500.761C500.566 144.506 500.291 144.861 499.936 145.192C499.586 145.518 499.146 145.781 498.613 145.982C498.086 146.178 497.468 146.275 496.757 146.275ZM497.592 143.914C498.237 143.914 498.796 143.786 499.27 143.532C499.743 143.272 500.107 142.928 500.362 142.502C500.622 142.076 500.752 141.611 500.752 141.108V139.501C500.652 139.584 500.48 139.661 500.237 139.732C500.001 139.803 499.734 139.865 499.438 139.919C499.143 139.972 498.85 140.019 498.56 140.061C498.27 140.102 498.018 140.138 497.805 140.167C497.326 140.232 496.896 140.339 496.518 140.487C496.139 140.635 495.84 140.842 495.621 141.108C495.402 141.369 495.293 141.706 495.293 142.12C495.293 142.712 495.509 143.159 495.941 143.461C496.373 143.763 496.923 143.914 497.592 143.914ZM511.653 138.01V146H508.439V132.364H511.511V134.681H511.67C511.984 133.917 512.484 133.311 513.171 132.861C513.863 132.411 514.718 132.186 515.736 132.186C516.677 132.186 517.497 132.387 518.196 132.79C518.9 133.192 519.444 133.775 519.829 134.539C520.22 135.302 520.412 136.228 520.406 137.317V146H517.192V137.815C517.192 136.903 516.956 136.19 516.482 135.675C516.015 135.16 515.367 134.903 514.538 134.903C513.976 134.903 513.476 135.027 513.038 135.276C512.606 135.518 512.265 135.87 512.017 136.332C511.774 136.794 511.653 137.353 511.653 138.01ZM529.984 146.24C528.912 146.24 527.954 145.964 527.107 145.414C526.261 144.864 525.592 144.065 525.101 143.017C524.61 141.969 524.364 140.697 524.364 139.2C524.364 137.684 524.612 136.406 525.11 135.364C525.613 134.317 526.29 133.527 527.143 132.994C527.995 132.455 528.945 132.186 529.992 132.186C530.791 132.186 531.448 132.322 531.963 132.594C532.478 132.861 532.887 133.183 533.188 133.562C533.49 133.935 533.724 134.287 533.89 134.619H534.023V127.818H537.246V146H534.085V143.852H533.89C533.724 144.183 533.484 144.535 533.171 144.908C532.857 145.275 532.443 145.589 531.928 145.849C531.413 146.109 530.765 146.24 529.984 146.24ZM530.88 143.603C531.561 143.603 532.141 143.42 532.62 143.053C533.1 142.68 533.464 142.162 533.712 141.499C533.961 140.836 534.085 140.064 534.085 139.182C534.085 138.3 533.961 137.533 533.712 136.882C533.47 136.231 533.109 135.725 532.629 135.364C532.156 135.003 531.573 134.823 530.88 134.823C530.164 134.823 529.566 135.009 529.087 135.382C528.608 135.755 528.246 136.27 528.004 136.927C527.761 137.584 527.64 138.335 527.64 139.182C527.64 140.034 527.761 140.795 528.004 141.463C528.252 142.126 528.616 142.65 529.096 143.035C529.581 143.414 530.176 143.603 530.88 143.603ZM552.186 146L548.333 132.364H551.609L554.006 141.952H554.13L556.58 132.364H559.821L562.271 141.898H562.404L564.766 132.364H568.05L564.189 146H560.842L558.285 136.785H558.098L555.542 146H552.186ZM577.191 146.266C575.823 146.266 574.643 145.982 573.648 145.414C572.66 144.84 571.899 144.029 571.367 142.982C570.834 141.928 570.568 140.688 570.568 139.262C570.568 137.859 570.834 136.628 571.367 135.569C571.905 134.503 572.657 133.675 573.622 133.083C574.586 132.485 575.72 132.186 577.022 132.186C577.862 132.186 578.655 132.322 579.401 132.594C580.153 132.861 580.816 133.275 581.39 133.837C581.97 134.4 582.426 135.116 582.757 135.986C583.088 136.85 583.254 137.88 583.254 139.075V140.061H572.077V137.895H580.174C580.168 137.279 580.034 136.732 579.774 136.252C579.514 135.767 579.15 135.385 578.682 135.107C578.22 134.829 577.682 134.69 577.066 134.69C576.409 134.69 575.832 134.849 575.335 135.169C574.838 135.483 574.45 135.897 574.172 136.412C573.9 136.921 573.761 137.48 573.755 138.09V139.981C573.755 140.774 573.9 141.455 574.19 142.023C574.48 142.585 574.885 143.017 575.406 143.319C575.927 143.615 576.537 143.763 577.235 143.763C577.703 143.763 578.126 143.698 578.505 143.567C578.883 143.431 579.212 143.233 579.49 142.973C579.768 142.712 579.978 142.39 580.12 142.005L583.121 142.342C582.932 143.135 582.571 143.828 582.038 144.42C581.511 145.006 580.836 145.461 580.014 145.787C579.191 146.107 578.25 146.266 577.191 146.266ZM587.365 146V127.818H590.579V134.619H590.712C590.878 134.287 591.112 133.935 591.413 133.562C591.715 133.183 592.124 132.861 592.639 132.594C593.153 132.322 593.81 132.186 594.609 132.186C595.663 132.186 596.613 132.455 597.459 132.994C598.311 133.527 598.986 134.317 599.483 135.364C599.986 136.406 600.238 137.684 600.238 139.2C600.238 140.697 599.992 141.969 599.501 143.017C599.01 144.065 598.341 144.864 597.495 145.414C596.648 145.964 595.69 146.24 594.618 146.24C593.837 146.24 593.189 146.109 592.674 145.849C592.159 145.589 591.745 145.275 591.431 144.908C591.123 144.535 590.884 144.183 590.712 143.852H590.526V146H587.365ZM590.517 139.182C590.517 140.064 590.641 140.836 590.89 141.499C591.144 142.162 591.508 142.68 591.982 143.053C592.461 143.42 593.041 143.603 593.722 143.603C594.432 143.603 595.027 143.414 595.506 143.035C595.985 142.65 596.346 142.126 596.589 141.463C596.838 140.795 596.962 140.034 596.962 139.182C596.962 138.335 596.841 137.584 596.598 136.927C596.355 136.27 595.994 135.755 595.515 135.382C595.036 135.009 594.438 134.823 593.722 134.823C593.035 134.823 592.452 135.003 591.973 135.364C591.493 135.725 591.129 136.231 590.881 136.882C590.638 137.533 590.517 138.3 590.517 139.182ZM604.22 146V132.364H607.434V146H604.22ZM605.836 130.428C605.327 130.428 604.889 130.26 604.522 129.922C604.155 129.579 603.972 129.168 603.972 128.688C603.972 128.203 604.155 127.792 604.522 127.454C604.889 127.111 605.327 126.939 605.836 126.939C606.351 126.939 606.789 127.111 607.15 127.454C607.517 127.792 607.7 128.203 607.7 128.688C607.7 129.168 607.517 129.579 607.15 129.922C606.789 130.26 606.351 130.428 605.836 130.428ZM615.202 138.01V146H611.989V132.364H615.06V134.681H615.22C615.534 133.917 616.034 133.311 616.721 132.861C617.413 132.411 618.268 132.186 619.286 132.186C620.227 132.186 621.047 132.387 621.745 132.79C622.45 133.192 622.994 133.775 623.379 134.539C623.77 135.302 623.962 136.228 623.956 137.317V146H620.742V137.815C620.742 136.903 620.505 136.19 620.032 135.675C619.564 135.16 618.916 134.903 618.088 134.903C617.525 134.903 617.025 135.027 616.587 135.276C616.155 135.518 615.815 135.87 615.566 136.332C615.324 136.794 615.202 137.353 615.202 138.01ZM632.397 146.275C631.533 146.275 630.755 146.121 630.062 145.814C629.376 145.5 628.831 145.038 628.429 144.429C628.032 143.819 627.834 143.067 627.834 142.174C627.834 141.404 627.976 140.768 628.26 140.265C628.544 139.762 628.932 139.359 629.423 139.058C629.914 138.756 630.468 138.528 631.083 138.374C631.705 138.214 632.347 138.099 633.01 138.028C633.809 137.945 634.457 137.871 634.954 137.806C635.451 137.735 635.812 137.628 636.037 137.486C636.268 137.338 636.383 137.11 636.383 136.803V136.749C636.383 136.08 636.185 135.563 635.788 135.196C635.392 134.829 634.821 134.645 634.075 134.645C633.288 134.645 632.663 134.817 632.202 135.16C631.746 135.503 631.438 135.909 631.278 136.376L628.278 135.95C628.514 135.122 628.905 134.429 629.45 133.873C629.994 133.311 630.66 132.89 631.447 132.612C632.234 132.328 633.104 132.186 634.057 132.186C634.714 132.186 635.368 132.263 636.019 132.417C636.67 132.571 637.265 132.825 637.804 133.18C638.342 133.53 638.774 134.006 639.1 134.61C639.431 135.213 639.597 135.968 639.597 136.874V146H636.507V144.127H636.401C636.206 144.506 635.93 144.861 635.575 145.192C635.226 145.518 634.785 145.781 634.252 145.982C633.726 146.178 633.107 146.275 632.397 146.275ZM633.232 143.914C633.877 143.914 634.436 143.786 634.909 143.532C635.383 143.272 635.747 142.928 636.001 142.502C636.262 142.076 636.392 141.611 636.392 141.108V139.501C636.291 139.584 636.12 139.661 635.877 139.732C635.64 139.803 635.374 139.865 635.078 139.919C634.782 139.972 634.489 140.019 634.199 140.061C633.909 140.102 633.658 140.138 633.445 140.167C632.965 140.232 632.536 140.339 632.157 140.487C631.779 140.635 631.48 140.842 631.261 141.108C631.042 141.369 630.932 141.706 630.932 142.12C630.932 142.712 631.148 143.159 631.58 143.461C632.012 143.763 632.563 143.914 633.232 143.914ZM644.078 146V132.364H647.195V134.636H647.337C647.585 133.849 648.011 133.243 648.615 132.816C649.225 132.384 649.92 132.168 650.701 132.168C650.879 132.168 651.077 132.177 651.296 132.195C651.521 132.207 651.708 132.228 651.855 132.257V135.213C651.719 135.166 651.503 135.125 651.207 135.089C650.917 135.048 650.636 135.027 650.364 135.027C649.778 135.027 649.251 135.154 648.784 135.409C648.322 135.657 647.958 136.004 647.692 136.447C647.425 136.891 647.292 137.403 647.292 137.983V146H644.078ZM666.018 135.968L663.089 136.288C663.006 135.992 662.861 135.714 662.654 135.453C662.452 135.193 662.18 134.983 661.837 134.823C661.494 134.663 661.073 134.583 660.576 134.583C659.907 134.583 659.345 134.728 658.889 135.018C658.44 135.308 658.218 135.684 658.224 136.146C658.218 136.542 658.363 136.865 658.659 137.113C658.96 137.362 659.458 137.566 660.15 137.726L662.476 138.223C663.766 138.501 664.725 138.942 665.352 139.546C665.986 140.15 666.305 140.94 666.311 141.916C666.305 142.774 666.054 143.532 665.557 144.189C665.065 144.84 664.382 145.349 663.506 145.716C662.63 146.083 661.624 146.266 660.487 146.266C658.818 146.266 657.475 145.917 656.457 145.219C655.439 144.514 654.832 143.535 654.637 142.28L657.771 141.978C657.913 142.594 658.215 143.058 658.676 143.372C659.138 143.686 659.739 143.843 660.479 143.843C661.242 143.843 661.855 143.686 662.316 143.372C662.784 143.058 663.018 142.671 663.018 142.209C663.018 141.819 662.867 141.496 662.565 141.241C662.269 140.987 661.807 140.792 661.18 140.656L658.854 140.167C657.546 139.895 656.578 139.436 655.951 138.791C655.323 138.14 655.013 137.317 655.019 136.323C655.013 135.483 655.241 134.755 655.702 134.139C656.17 133.518 656.818 133.038 657.646 132.701C658.481 132.358 659.443 132.186 660.532 132.186C662.13 132.186 663.388 132.526 664.305 133.207C665.228 133.888 665.799 134.808 666.018 135.968ZM672.191 146.195C671.652 146.195 671.191 146.006 670.806 145.627C670.421 145.248 670.232 144.787 670.238 144.242C670.232 143.71 670.421 143.254 670.806 142.875C671.191 142.496 671.652 142.307 672.191 142.307C672.712 142.307 673.165 142.496 673.549 142.875C673.94 143.254 674.138 143.71 674.144 144.242C674.138 144.603 674.044 144.932 673.86 145.228C673.683 145.524 673.446 145.76 673.15 145.938C672.86 146.109 672.54 146.195 672.191 146.195Z" fill="white"/>
<defs>
<filter id="filter0_d_233_19" x="97.3161" y="11" width="671" height="170" filterUnits="userSpaceOnUse" color-interpolation-filters="sRGB">
<feFlood flood-opacity="0" result="BackgroundImageFix"/>
<feColorMatrix in="SourceAlpha" type="matrix" values="0 0 0 0 0 0 0 0 0 0 0 0 0 0 0 0 0 0 127 0" result="hardAlpha"/>
<feOffset dy="4"/>
<feGaussianBlur stdDeviation="2"/>
<feComposite in2="hardAlpha" operator="out"/>
<feColorMatrix type="matrix" values="0 0 0 0 0 0 0 0 0 0 0 0 0 0 0 0 0 0 0.25 0"/>
<feBlend mode="normal" in2="BackgroundImageFix" result="effect1_dropShadow_233_19"/>
<feBlend mode="normal" in="SourceGraphic" in2="effect1_dropShadow_233_19" result="shape"/>
</filter>
<filter id="filter1_d_233_19" x="0" y="12.417" width="117.781" height="166.853" filterUnits="userSpaceOnUse" color-interpolation-filters="sRGB">
<feFlood flood-opacity="0" result="BackgroundImageFix"/>
<feColorMatrix in="SourceAlpha" type="matrix" values="0 0 0 0 0 0 0 0 0 0 0 0 0 0 0 0 0 0 127 0" result="hardAlpha"/>
<feOffset dy="4"/>
<feGaussianBlur stdDeviation="2"/>
<feComposite in2="hardAlpha" operator="out"/>
<feColorMatrix type="matrix" values="0 0 0 0 0 0 0 0 0 0 0 0 0 0 0 0 0 0 0.25 0"/>
<feBlend mode="normal" in2="BackgroundImageFix" result="effect1_dropShadow_233_19"/>
<feBlend mode="normal" in="SourceGraphic" in2="effect1_dropShadow_233_19" result="shape"/>
</filter>
</defs>
</svg>
