<svg width="769" height="184" viewBox="0 0 769 184" fill="none" xmlns="http://www.w3.org/2000/svg">
<g filter="url(#filter0_d_231_25)">
<rect x="4" y="11" width="663" height="162" rx="20" fill="#2495EB"/>
</g>
<path d="M69.6197 115L64.4883 96.8182H68.0305L71.3065 110.179H71.4751L74.973 96.8182H78.1957L81.7024 110.188H81.8622L85.1381 96.8182H88.6804L83.549 115H80.2997L76.6598 102.243H76.5178L72.869 115H69.6197ZM96.7175 115.266C95.3503 115.266 94.1696 114.982 93.1752 114.414C92.1868 113.84 91.4263 113.029 90.8936 111.982C90.361 110.928 90.0946 109.688 90.0946 108.262C90.0946 106.859 90.361 105.628 90.8936 104.569C91.4322 103.503 92.1839 102.675 93.1486 102.083C94.1133 101.485 95.2467 101.186 96.5488 101.186C97.3893 101.186 98.1824 101.322 98.9281 101.594C99.6797 101.861 100.343 102.275 100.917 102.837C101.497 103.4 101.952 104.116 102.284 104.986C102.615 105.85 102.781 106.88 102.781 108.075V109.061H91.6039V106.895H99.7005C99.6945 106.279 99.5614 105.732 99.301 105.252C99.0405 104.767 98.6766 104.385 98.209 104.107C97.7473 103.829 97.2087 103.69 96.5932 103.69C95.9363 103.69 95.3592 103.849 94.862 104.169C94.3649 104.483 93.9772 104.897 93.699 105.412C93.4268 105.921 93.2877 106.48 93.2818 107.09V108.981C93.2818 109.774 93.4268 110.455 93.7168 111.023C94.0068 111.585 94.4122 112.017 94.9331 112.319C95.4539 112.615 96.0635 112.763 96.7619 112.763C97.2295 112.763 97.6526 112.698 98.0314 112.567C98.4102 112.431 98.7387 112.233 99.0169 111.973C99.295 111.712 99.5051 111.39 99.6472 111.005L102.648 111.342C102.459 112.135 102.097 112.828 101.565 113.42C101.038 114.006 100.363 114.461 99.5407 114.787C98.718 115.107 97.7769 115.266 96.7175 115.266ZM117.015 115L113.162 101.364H116.438L118.835 110.952H118.96L121.41 101.364H124.65L127.101 110.898H127.234L129.595 101.364H132.88L129.018 115H125.671L123.114 105.785H122.928L120.371 115H117.015ZM136.374 115V101.364H139.588V115H136.374ZM137.99 99.4283C137.481 99.4283 137.043 99.2596 136.676 98.9222C136.309 98.579 136.125 98.1676 136.125 97.6882C136.125 97.2029 136.309 96.7915 136.676 96.4542C137.043 96.1109 137.481 95.9393 137.99 95.9393C138.505 95.9393 138.943 96.1109 139.304 96.4542C139.671 96.7915 139.854 97.2029 139.854 97.6882C139.854 98.1676 139.671 98.579 139.304 98.9222C138.943 99.2596 138.505 99.4283 137.99 99.4283ZM147.356 96.8182V115H144.142V96.8182H147.356ZM155.125 96.8182V115H151.911V96.8182H155.125ZM170.345 107.01V115H167.131V96.8182H170.274V103.681H170.433C170.753 102.911 171.247 102.305 171.916 101.861C172.591 101.411 173.449 101.186 174.491 101.186C175.437 101.186 176.263 101.384 176.967 101.781C177.672 102.177 178.216 102.757 178.601 103.521C178.992 104.284 179.187 105.217 179.187 106.317V115H175.973V106.815C175.973 105.897 175.736 105.184 175.263 104.675C174.795 104.16 174.138 103.903 173.292 103.903C172.724 103.903 172.215 104.027 171.765 104.276C171.321 104.518 170.972 104.87 170.717 105.332C170.469 105.794 170.345 106.353 170.345 107.01ZM189.75 115.266C188.383 115.266 187.202 114.982 186.207 114.414C185.219 113.84 184.459 113.029 183.926 111.982C183.393 110.928 183.127 109.688 183.127 108.262C183.127 106.859 183.393 105.628 183.926 104.569C184.464 103.503 185.216 102.675 186.181 102.083C187.146 101.485 188.279 101.186 189.581 101.186C190.421 101.186 191.215 101.322 191.96 101.594C192.712 101.861 193.375 102.275 193.949 102.837C194.529 103.4 194.985 104.116 195.316 104.986C195.648 105.85 195.813 106.88 195.813 108.075V109.061H184.636V106.895H192.733C192.727 106.279 192.594 105.732 192.333 105.252C192.073 104.767 191.709 104.385 191.241 104.107C190.78 103.829 190.241 103.69 189.625 103.69C188.968 103.69 188.391 103.849 187.894 104.169C187.397 104.483 187.009 104.897 186.731 105.412C186.459 105.921 186.32 106.48 186.314 107.09V108.981C186.314 109.774 186.459 110.455 186.749 111.023C187.039 111.585 187.444 112.017 187.965 112.319C188.486 112.615 189.096 112.763 189.794 112.763C190.262 112.763 190.685 112.698 191.064 112.567C191.442 112.431 191.771 112.233 192.049 111.973C192.327 111.712 192.537 111.39 192.679 111.005L195.68 111.342C195.491 112.135 195.13 112.828 194.597 113.42C194.07 114.006 193.396 114.461 192.573 114.787C191.75 115.107 190.809 115.266 189.75 115.266ZM202.996 96.8182V115H199.782V96.8182H202.996ZM207.551 120.114V101.364H210.711V103.619H210.898C211.063 103.287 211.297 102.935 211.599 102.562C211.901 102.183 212.309 101.861 212.824 101.594C213.339 101.322 213.996 101.186 214.795 101.186C215.849 101.186 216.798 101.455 217.645 101.994C218.497 102.527 219.172 103.317 219.669 104.364C220.172 105.406 220.424 106.684 220.424 108.2C220.424 109.697 220.178 110.969 219.687 112.017C219.195 113.065 218.527 113.864 217.68 114.414C216.834 114.964 215.875 115.24 214.804 115.24C214.023 115.24 213.375 115.109 212.86 114.849C212.345 114.589 211.93 114.275 211.617 113.908C211.309 113.535 211.069 113.183 210.898 112.852H210.764V120.114H207.551ZM210.702 108.182C210.702 109.064 210.827 109.836 211.075 110.499C211.33 111.162 211.694 111.68 212.167 112.053C212.647 112.42 213.227 112.603 213.907 112.603C214.617 112.603 215.212 112.414 215.692 112.035C216.171 111.65 216.532 111.126 216.775 110.463C217.023 109.795 217.148 109.034 217.148 108.182C217.148 107.335 217.026 106.584 216.784 105.927C216.541 105.27 216.18 104.755 215.701 104.382C215.221 104.009 214.623 103.823 213.907 103.823C213.221 103.823 212.638 104.003 212.158 104.364C211.679 104.725 211.315 105.231 211.066 105.882C210.824 106.533 210.702 107.3 210.702 108.182ZM233.874 120.114C233.436 120.114 233.031 120.078 232.658 120.007C232.291 119.942 231.998 119.865 231.779 119.776L232.525 117.273C232.993 117.409 233.41 117.474 233.777 117.468C234.144 117.462 234.466 117.347 234.744 117.122C235.028 116.903 235.268 116.536 235.464 116.021L235.739 115.284L230.794 101.364H234.203L237.346 111.662H237.488L240.639 101.364H244.057L238.597 116.651C238.343 117.373 238.006 117.992 237.585 118.507C237.165 119.028 236.65 119.424 236.041 119.696C235.437 119.975 234.715 120.114 233.874 120.114ZM253.015 115.266C251.684 115.266 250.53 114.973 249.553 114.387C248.577 113.801 247.819 112.982 247.28 111.928C246.748 110.875 246.481 109.644 246.481 108.235C246.481 106.826 246.748 105.592 247.28 104.533C247.819 103.474 248.577 102.651 249.553 102.065C250.53 101.479 251.684 101.186 253.015 101.186C254.347 101.186 255.501 101.479 256.478 102.065C257.454 102.651 258.209 103.474 258.742 104.533C259.28 105.592 259.55 106.826 259.55 108.235C259.55 109.644 259.28 110.875 258.742 111.928C258.209 112.982 257.454 113.801 256.478 114.387C255.501 114.973 254.347 115.266 253.015 115.266ZM253.033 112.692C253.755 112.692 254.359 112.493 254.844 112.097C255.33 111.694 255.691 111.156 255.927 110.481C256.17 109.806 256.291 109.055 256.291 108.226C256.291 107.392 256.17 106.637 255.927 105.962C255.691 105.282 255.33 104.74 254.844 104.338C254.359 103.935 253.755 103.734 253.033 103.734C252.293 103.734 251.678 103.935 251.187 104.338C250.701 104.74 250.337 105.282 250.095 105.962C249.858 106.637 249.74 107.392 249.74 108.226C249.74 109.055 249.858 109.806 250.095 110.481C250.337 111.156 250.701 111.694 251.187 112.097C251.678 112.493 252.293 112.692 253.033 112.692ZM272.219 109.265V101.364H275.432V115H272.316V112.576H272.174C271.867 113.34 271.36 113.964 270.656 114.45C269.958 114.935 269.097 115.178 268.073 115.178C267.179 115.178 266.389 114.979 265.702 114.583C265.022 114.18 264.489 113.597 264.104 112.834C263.72 112.064 263.527 111.135 263.527 110.046V101.364H266.741V109.549C266.741 110.413 266.978 111.1 267.451 111.609C267.925 112.118 268.546 112.372 269.316 112.372C269.789 112.372 270.248 112.257 270.692 112.026C271.136 111.795 271.5 111.452 271.784 110.996C272.074 110.534 272.219 109.957 272.219 109.265ZM292.499 115.24C291.427 115.24 290.469 114.964 289.622 114.414C288.776 113.864 288.107 113.065 287.616 112.017C287.125 110.969 286.879 109.697 286.879 108.2C286.879 106.684 287.128 105.406 287.625 104.364C288.128 103.317 288.806 102.527 289.658 101.994C290.51 101.455 291.46 101.186 292.508 101.186C293.307 101.186 293.964 101.322 294.479 101.594C294.993 101.861 295.402 102.183 295.704 102.562C296.006 102.935 296.239 103.287 296.405 103.619H296.538V96.8182H299.761V115H296.6V112.852H296.405C296.239 113.183 296 113.535 295.686 113.908C295.372 114.275 294.958 114.589 294.443 114.849C293.928 115.109 293.28 115.24 292.499 115.24ZM293.395 112.603C294.076 112.603 294.656 112.42 295.135 112.053C295.615 111.68 295.979 111.162 296.227 110.499C296.476 109.836 296.6 109.064 296.6 108.182C296.6 107.3 296.476 106.533 296.227 105.882C295.985 105.231 295.624 104.725 295.144 104.364C294.671 104.003 294.088 103.823 293.395 103.823C292.679 103.823 292.081 104.009 291.602 104.382C291.123 104.755 290.762 105.27 290.519 105.927C290.276 106.584 290.155 107.335 290.155 108.182C290.155 109.034 290.276 109.795 290.519 110.463C290.768 111.126 291.132 111.65 291.611 112.035C292.096 112.414 292.691 112.603 293.395 112.603ZM310.472 115.266C309.105 115.266 307.924 114.982 306.93 114.414C305.942 113.84 305.181 113.029 304.649 111.982C304.116 110.928 303.85 109.688 303.85 108.262C303.85 106.859 304.116 105.628 304.649 104.569C305.187 103.503 305.939 102.675 306.903 102.083C307.868 101.485 309.002 101.186 310.304 101.186C311.144 101.186 311.937 101.322 312.683 101.594C313.435 101.861 314.098 102.275 314.672 102.837C315.252 103.4 315.707 104.116 316.039 104.986C316.37 105.85 316.536 106.88 316.536 108.075V109.061H305.359V106.895H313.455C313.449 106.279 313.316 105.732 313.056 105.252C312.795 104.767 312.431 104.385 311.964 104.107C311.502 103.829 310.964 103.69 310.348 103.69C309.691 103.69 309.114 103.849 308.617 104.169C308.12 104.483 307.732 104.897 307.454 105.412C307.182 105.921 307.043 106.48 307.037 107.09V108.981C307.037 109.774 307.182 110.455 307.472 111.023C307.762 111.585 308.167 112.017 308.688 112.319C309.209 112.615 309.818 112.763 310.517 112.763C310.984 112.763 311.408 112.698 311.786 112.567C312.165 112.431 312.494 112.233 312.772 111.973C313.05 111.712 313.26 111.39 313.402 111.005L316.403 111.342C316.213 112.135 315.852 112.828 315.32 113.42C314.793 114.006 314.118 114.461 313.296 114.787C312.473 115.107 311.532 115.266 310.472 115.266ZM326.453 115.266C325.092 115.266 323.923 114.967 322.946 114.37C321.976 113.772 321.227 112.946 320.7 111.893C320.179 110.833 319.919 109.614 319.919 108.235C319.919 106.85 320.185 105.628 320.718 104.569C321.251 103.503 322.002 102.675 322.973 102.083C323.949 101.485 325.104 101.186 326.435 101.186C327.542 101.186 328.521 101.39 329.374 101.799C330.232 102.201 330.916 102.772 331.425 103.512C331.934 104.246 332.224 105.104 332.295 106.087H329.223C329.099 105.43 328.803 104.882 328.335 104.444C327.873 104 327.255 103.778 326.48 103.778C325.823 103.778 325.246 103.956 324.748 104.311C324.251 104.66 323.864 105.163 323.585 105.82C323.313 106.477 323.177 107.264 323.177 108.182C323.177 109.111 323.313 109.91 323.585 110.579C323.858 111.242 324.239 111.754 324.731 112.115C325.228 112.47 325.811 112.647 326.48 112.647C326.953 112.647 327.376 112.559 327.749 112.381C328.128 112.198 328.445 111.934 328.699 111.591C328.954 111.248 329.128 110.83 329.223 110.339H332.295C332.218 111.304 331.934 112.159 331.442 112.905C330.951 113.645 330.282 114.225 329.436 114.645C328.59 115.059 327.595 115.266 326.453 115.266ZM336.184 115V101.364H339.397V115H336.184ZM337.799 99.4283C337.29 99.4283 336.852 99.2596 336.485 98.9222C336.118 98.579 335.935 98.1676 335.935 97.6882C335.935 97.2029 336.118 96.7915 336.485 96.4542C336.852 96.1109 337.29 95.9393 337.799 95.9393C338.314 95.9393 338.752 96.1109 339.113 96.4542C339.48 96.7915 339.664 97.2029 339.664 97.6882C339.664 98.1676 339.48 98.579 339.113 98.9222C338.752 99.2596 338.314 99.4283 337.799 99.4283ZM349.012 115.24C347.941 115.24 346.982 114.964 346.136 114.414C345.29 113.864 344.621 113.065 344.13 112.017C343.638 110.969 343.393 109.697 343.393 108.2C343.393 106.684 343.641 105.406 344.138 104.364C344.642 103.317 345.319 102.527 346.172 101.994C347.024 101.455 347.974 101.186 349.021 101.186C349.82 101.186 350.477 101.322 350.992 101.594C351.507 101.861 351.915 102.183 352.217 102.562C352.519 102.935 352.753 103.287 352.919 103.619H353.052V96.8182H356.275V115H353.114V112.852H352.919C352.753 113.183 352.513 113.535 352.2 113.908C351.886 114.275 351.472 114.589 350.957 114.849C350.442 115.109 349.794 115.24 349.012 115.24ZM349.909 112.603C350.59 112.603 351.17 112.42 351.649 112.053C352.129 111.68 352.493 111.162 352.741 110.499C352.99 109.836 353.114 109.064 353.114 108.182C353.114 107.3 352.99 106.533 352.741 105.882C352.498 105.231 352.137 104.725 351.658 104.364C351.185 104.003 350.602 103.823 349.909 103.823C349.193 103.823 348.595 104.009 348.116 104.382C347.636 104.755 347.275 105.27 347.033 105.927C346.79 106.584 346.669 107.335 346.669 108.182C346.669 109.034 346.79 109.795 347.033 110.463C347.281 111.126 347.645 111.65 348.125 112.035C348.61 112.414 349.205 112.603 349.909 112.603ZM366.986 115.266C365.619 115.266 364.438 114.982 363.444 114.414C362.455 113.84 361.695 113.029 361.162 111.982C360.63 110.928 360.363 109.688 360.363 108.262C360.363 106.859 360.63 105.628 361.162 104.569C361.701 103.503 362.452 102.675 363.417 102.083C364.382 101.485 365.515 101.186 366.817 101.186C367.658 101.186 368.451 101.322 369.197 101.594C369.948 101.861 370.611 102.275 371.185 102.837C371.765 103.4 372.221 104.116 372.552 104.986C372.884 105.85 373.05 106.88 373.05 108.075V109.061H361.872V106.895H369.969C369.963 106.279 369.83 105.732 369.57 105.252C369.309 104.767 368.945 104.385 368.478 104.107C368.016 103.829 367.477 103.69 366.862 103.69C366.205 103.69 365.628 103.849 365.131 104.169C364.633 104.483 364.246 104.897 363.968 105.412C363.695 105.921 363.556 106.48 363.55 107.09V108.981C363.55 109.774 363.695 110.455 363.985 111.023C364.275 111.585 364.681 112.017 365.202 112.319C365.722 112.615 366.332 112.763 367.03 112.763C367.498 112.763 367.921 112.698 368.3 112.567C368.679 112.431 369.007 112.233 369.285 111.973C369.564 111.712 369.774 111.39 369.916 111.005L372.916 111.342C372.727 112.135 372.366 112.828 371.833 113.42C371.307 114.006 370.632 114.461 369.809 114.787C368.987 115.107 368.045 115.266 366.986 115.266ZM391.279 101.364V103.849H383.44V101.364H391.279ZM385.375 98.0966H388.589V110.898C388.589 111.33 388.654 111.662 388.784 111.893C388.92 112.118 389.098 112.272 389.317 112.354C389.536 112.437 389.779 112.479 390.045 112.479C390.246 112.479 390.43 112.464 390.595 112.434C390.767 112.405 390.897 112.378 390.986 112.354L391.528 114.867C391.356 114.926 391.11 114.991 390.791 115.062C390.477 115.133 390.092 115.175 389.637 115.186C388.832 115.21 388.107 115.089 387.461 114.822C386.816 114.55 386.304 114.13 385.926 113.562C385.553 112.994 385.369 112.283 385.375 111.431V98.0966ZM398.723 107.01V115H395.51V96.8182H398.652V103.681H398.812C399.132 102.911 399.626 102.305 400.295 101.861C400.97 101.411 401.828 101.186 402.869 101.186C403.816 101.186 404.642 101.384 405.346 101.781C406.051 102.177 406.595 102.757 406.98 103.521C407.37 104.284 407.566 105.217 407.566 106.317V115H404.352V106.815C404.352 105.897 404.115 105.184 403.642 104.675C403.174 104.16 402.517 103.903 401.671 103.903C401.103 103.903 400.594 104.027 400.144 104.276C399.7 104.518 399.351 104.87 399.096 105.332C398.848 105.794 398.723 106.353 398.723 107.01ZM418.129 115.266C416.761 115.266 415.581 114.982 414.586 114.414C413.598 113.84 412.837 113.029 412.305 111.982C411.772 110.928 411.506 109.688 411.506 108.262C411.506 106.859 411.772 105.628 412.305 104.569C412.843 103.503 413.595 102.675 414.56 102.083C415.524 101.485 416.658 101.186 417.96 101.186C418.8 101.186 419.593 101.322 420.339 101.594C421.091 101.861 421.754 102.275 422.328 102.837C422.908 103.4 423.364 104.116 423.695 104.986C424.026 105.85 424.192 106.88 424.192 108.075V109.061H413.015V106.895H421.112C421.106 106.279 420.973 105.732 420.712 105.252C420.452 104.767 420.088 104.385 419.62 104.107C419.158 103.829 418.62 103.69 418.004 103.69C417.347 103.69 416.77 103.849 416.273 104.169C415.776 104.483 415.388 104.897 415.11 105.412C414.838 105.921 414.699 106.48 414.693 107.09V108.981C414.693 109.774 414.838 110.455 415.128 111.023C415.418 111.585 415.823 112.017 416.344 112.319C416.865 112.615 417.475 112.763 418.173 112.763C418.641 112.763 419.064 112.698 419.443 112.567C419.821 112.431 420.15 112.233 420.428 111.973C420.706 111.712 420.916 111.39 421.058 111.005L424.059 111.342C423.87 112.135 423.509 112.828 422.976 113.42C422.449 114.006 421.774 114.461 420.952 114.787C420.129 115.107 419.188 115.266 418.129 115.266ZM435.754 115V96.8182H438.968V103.619H439.101C439.267 103.287 439.501 102.935 439.803 102.562C440.104 102.183 440.513 101.861 441.028 101.594C441.543 101.322 442.2 101.186 442.999 101.186C444.052 101.186 445.002 101.455 445.848 101.994C446.701 102.527 447.375 103.317 447.873 104.364C448.376 105.406 448.627 106.684 448.627 108.2C448.627 109.697 448.382 110.969 447.89 112.017C447.399 113.065 446.73 113.864 445.884 114.414C445.038 114.964 444.079 115.24 443.007 115.24C442.226 115.24 441.578 115.109 441.063 114.849C440.548 114.589 440.134 114.275 439.82 113.908C439.513 113.535 439.273 113.183 439.101 112.852H438.915V115H435.754ZM438.906 108.182C438.906 109.064 439.03 109.836 439.279 110.499C439.533 111.162 439.897 111.68 440.371 112.053C440.85 112.42 441.43 112.603 442.111 112.603C442.821 112.603 443.416 112.414 443.895 112.035C444.375 111.65 444.736 111.126 444.978 110.463C445.227 109.795 445.351 109.034 445.351 108.182C445.351 107.335 445.23 106.584 444.987 105.927C444.745 105.27 444.384 104.755 443.904 104.382C443.425 104.009 442.827 103.823 442.111 103.823C441.424 103.823 440.841 104.003 440.362 104.364C439.882 104.725 439.518 105.231 439.27 105.882C439.027 106.533 438.906 107.3 438.906 108.182ZM458.646 115.266C457.279 115.266 456.098 114.982 455.104 114.414C454.116 113.84 453.355 113.029 452.822 111.982C452.29 110.928 452.023 109.688 452.023 108.262C452.023 106.859 452.29 105.628 452.822 104.569C453.361 103.503 454.113 102.675 455.077 102.083C456.042 101.485 457.175 101.186 458.478 101.186C459.318 101.186 460.111 101.322 460.857 101.594C461.608 101.861 462.271 102.275 462.845 102.837C463.425 103.4 463.881 104.116 464.213 104.986C464.544 105.85 464.71 106.88 464.71 108.075V109.061H453.533V106.895H461.629C461.623 106.279 461.49 105.732 461.23 105.252C460.969 104.767 460.605 104.385 460.138 104.107C459.676 103.829 459.137 103.69 458.522 103.69C457.865 103.69 457.288 103.849 456.791 104.169C456.294 104.483 455.906 104.897 455.628 105.412C455.355 105.921 455.216 106.48 455.21 107.09V108.981C455.21 109.774 455.355 110.455 455.646 111.023C455.936 111.585 456.341 112.017 456.862 112.319C457.383 112.615 457.992 112.763 458.691 112.763C459.158 112.763 459.581 112.698 459.96 112.567C460.339 112.431 460.667 112.233 460.946 111.973C461.224 111.712 461.434 111.39 461.576 111.005L464.577 111.342C464.387 112.135 464.026 112.828 463.494 113.42C462.967 114.006 462.292 114.461 461.469 114.787C460.647 115.107 459.706 115.266 458.646 115.266ZM479.456 104.968L476.527 105.288C476.444 104.992 476.299 104.714 476.092 104.453C475.89 104.193 475.618 103.983 475.275 103.823C474.932 103.663 474.511 103.583 474.014 103.583C473.345 103.583 472.783 103.728 472.327 104.018C471.878 104.308 471.656 104.684 471.662 105.146C471.656 105.542 471.801 105.865 472.097 106.113C472.398 106.362 472.896 106.566 473.588 106.726L475.914 107.223C477.204 107.501 478.163 107.942 478.79 108.546C479.424 109.15 479.743 109.94 479.749 110.916C479.743 111.774 479.492 112.532 478.995 113.189C478.503 113.84 477.82 114.349 476.944 114.716C476.068 115.083 475.062 115.266 473.925 115.266C472.256 115.266 470.913 114.917 469.895 114.219C468.877 113.514 468.27 112.535 468.075 111.28L471.209 110.978C471.351 111.594 471.653 112.058 472.114 112.372C472.576 112.686 473.177 112.843 473.917 112.843C474.68 112.843 475.293 112.686 475.754 112.372C476.222 112.058 476.456 111.671 476.456 111.209C476.456 110.819 476.305 110.496 476.003 110.241C475.707 109.987 475.245 109.792 474.618 109.656L472.292 109.167C470.984 108.895 470.016 108.436 469.389 107.791C468.761 107.14 468.451 106.317 468.457 105.323C468.451 104.483 468.679 103.755 469.14 103.139C469.608 102.518 470.256 102.038 471.085 101.701C471.919 101.358 472.881 101.186 473.97 101.186C475.568 101.186 476.826 101.526 477.743 102.207C478.666 102.888 479.237 103.808 479.456 104.968ZM490.459 101.364V103.849H482.619V101.364H490.459ZM484.555 98.0966H487.769V110.898C487.769 111.33 487.834 111.662 487.964 111.893C488.1 112.118 488.278 112.272 488.497 112.354C488.716 112.437 488.958 112.479 489.225 112.479C489.426 112.479 489.609 112.464 489.775 112.434C489.947 112.405 490.077 112.378 490.166 112.354L490.707 114.867C490.536 114.926 490.29 114.991 489.97 115.062C489.657 115.133 489.272 115.175 488.816 115.186C488.011 115.21 487.286 115.089 486.641 114.822C485.996 114.55 485.484 114.13 485.105 113.562C484.732 112.994 484.549 112.283 484.555 111.431V98.0966ZM504.662 115L500.809 101.364H504.085L506.482 110.952H506.606L509.056 101.364H512.297L514.747 110.898H514.88L517.242 101.364H520.527L516.665 115H513.318L510.761 105.785H510.574L508.018 115H504.662ZM527.944 115.275C527.08 115.275 526.302 115.121 525.61 114.814C524.923 114.5 524.378 114.038 523.976 113.429C523.579 112.819 523.381 112.067 523.381 111.174C523.381 110.404 523.523 109.768 523.807 109.265C524.091 108.762 524.479 108.359 524.97 108.058C525.462 107.756 526.015 107.528 526.631 107.374C527.252 107.214 527.894 107.099 528.557 107.028C529.356 106.945 530.004 106.871 530.501 106.806C530.998 106.735 531.359 106.628 531.584 106.486C531.815 106.338 531.931 106.11 531.931 105.803V105.749C531.931 105.08 531.732 104.563 531.336 104.196C530.939 103.829 530.368 103.645 529.622 103.645C528.835 103.645 528.211 103.817 527.749 104.16C527.293 104.503 526.986 104.909 526.826 105.376L523.825 104.95C524.062 104.122 524.452 103.429 524.997 102.873C525.541 102.311 526.207 101.89 526.994 101.612C527.782 101.328 528.652 101.186 529.605 101.186C530.262 101.186 530.916 101.263 531.567 101.417C532.218 101.571 532.812 101.825 533.351 102.18C533.89 102.53 534.322 103.006 534.647 103.61C534.979 104.213 535.144 104.968 535.144 105.874V115H532.055V113.127H531.948C531.753 113.506 531.478 113.861 531.123 114.192C530.773 114.518 530.333 114.781 529.8 114.982C529.273 115.178 528.655 115.275 527.944 115.275ZM528.779 112.914C529.424 112.914 529.983 112.786 530.457 112.532C530.93 112.272 531.294 111.928 531.549 111.502C531.809 111.076 531.939 110.611 531.939 110.108V108.501C531.839 108.584 531.667 108.661 531.425 108.732C531.188 108.803 530.921 108.865 530.626 108.919C530.33 108.972 530.037 109.019 529.747 109.061C529.457 109.102 529.205 109.138 528.992 109.167C528.513 109.232 528.084 109.339 527.705 109.487C527.326 109.635 527.027 109.842 526.808 110.108C526.589 110.369 526.48 110.706 526.48 111.12C526.48 111.712 526.696 112.159 527.128 112.461C527.56 112.763 528.11 112.914 528.779 112.914ZM541.135 120.114C540.697 120.114 540.292 120.078 539.919 120.007C539.552 119.942 539.259 119.865 539.04 119.776L539.786 117.273C540.253 117.409 540.671 117.474 541.037 117.468C541.404 117.462 541.727 117.347 542.005 117.122C542.289 116.903 542.529 116.536 542.724 116.021L542.999 115.284L538.055 101.364H541.464L544.606 111.662H544.748L547.9 101.364H551.318L545.858 116.651C545.604 117.373 545.266 117.992 544.846 118.507C544.426 119.028 543.911 119.424 543.301 119.696C542.698 119.975 541.976 120.114 541.135 120.114ZM566.167 115.275C565.303 115.275 564.525 115.121 563.832 114.814C563.146 114.5 562.601 114.038 562.199 113.429C561.802 112.819 561.604 112.067 561.604 111.174C561.604 110.404 561.746 109.768 562.03 109.265C562.314 108.762 562.702 108.359 563.193 108.058C563.684 107.756 564.238 107.528 564.853 107.374C565.475 107.214 566.117 107.099 566.78 107.028C567.579 106.945 568.227 106.871 568.724 106.806C569.221 106.735 569.582 106.628 569.807 106.486C570.038 106.338 570.153 106.11 570.153 105.803V105.749C570.153 105.08 569.955 104.563 569.558 104.196C569.162 103.829 568.591 103.645 567.845 103.645C567.058 103.645 566.433 103.817 565.972 104.16C565.516 104.503 565.208 104.909 565.048 105.376L562.048 104.95C562.285 104.122 562.675 103.429 563.22 102.873C563.764 102.311 564.43 101.89 565.217 101.612C566.004 101.328 566.874 101.186 567.827 101.186C568.484 101.186 569.138 101.263 569.789 101.417C570.44 101.571 571.035 101.825 571.574 102.18C572.112 102.53 572.544 103.006 572.87 103.61C573.201 104.213 573.367 104.968 573.367 105.874V115H570.278V113.127H570.171C569.976 113.506 569.7 113.861 569.345 114.192C568.996 114.518 568.555 114.781 568.023 114.982C567.496 115.178 566.877 115.275 566.167 115.275ZM567.002 112.914C567.647 112.914 568.206 112.786 568.68 112.532C569.153 112.272 569.517 111.928 569.771 111.502C570.032 111.076 570.162 110.611 570.162 110.108V108.501C570.061 108.584 569.89 108.661 569.647 108.732C569.41 108.803 569.144 108.865 568.848 108.919C568.552 108.972 568.259 109.019 567.969 109.061C567.679 109.102 567.428 109.138 567.215 109.167C566.735 109.232 566.306 109.339 565.927 109.487C565.549 109.635 565.25 109.842 565.031 110.108C564.812 110.369 564.702 110.706 564.702 111.12C564.702 111.712 564.918 112.159 565.35 112.461C565.782 112.763 566.333 112.914 567.002 112.914ZM581.062 107.01V115H577.849V96.8182H580.991V103.681H581.151C581.471 102.911 581.965 102.305 582.634 101.861C583.308 101.411 584.167 101.186 585.208 101.186C586.155 101.186 586.981 101.384 587.685 101.781C588.39 102.177 588.934 102.757 589.319 103.521C589.709 104.284 589.905 105.217 589.905 106.317V115H586.691V106.815C586.691 105.897 586.454 105.184 585.981 104.675C585.513 104.16 584.856 103.903 584.01 103.903C583.442 103.903 582.933 104.027 582.483 104.276C582.039 104.518 581.69 104.87 581.435 105.332C581.187 105.794 581.062 106.353 581.062 107.01ZM600.468 115.266C599.1 115.266 597.92 114.982 596.925 114.414C595.937 113.84 595.176 113.029 594.644 111.982C594.111 110.928 593.845 109.688 593.845 108.262C593.845 106.859 594.111 105.628 594.644 104.569C595.182 103.503 595.934 102.675 596.899 102.083C597.863 101.485 598.997 101.186 600.299 101.186C601.139 101.186 601.932 101.322 602.678 101.594C603.43 101.861 604.093 102.275 604.667 102.837C605.247 103.4 605.702 104.116 606.034 104.986C606.365 105.85 606.531 106.88 606.531 108.075V109.061H595.354V106.895H603.45C603.445 106.279 603.311 105.732 603.051 105.252C602.791 104.767 602.427 104.385 601.959 104.107C601.497 103.829 600.959 103.69 600.343 103.69C599.686 103.69 599.109 103.849 598.612 104.169C598.115 104.483 597.727 104.897 597.449 105.412C597.177 105.921 597.038 106.48 597.032 107.09V108.981C597.032 109.774 597.177 110.455 597.467 111.023C597.757 111.585 598.162 112.017 598.683 112.319C599.204 112.615 599.814 112.763 600.512 112.763C600.979 112.763 601.403 112.698 601.781 112.567C602.16 112.431 602.489 112.233 602.767 111.973C603.045 111.712 603.255 111.39 603.397 111.005L606.398 111.342C606.209 112.135 605.847 112.828 605.315 113.42C604.788 114.006 604.113 114.461 603.291 114.787C602.468 115.107 601.527 115.266 600.468 115.266ZM614.424 115.275C613.56 115.275 612.782 115.121 612.089 114.814C611.402 114.5 610.858 114.038 610.456 113.429C610.059 112.819 609.861 112.067 609.861 111.174C609.861 110.404 610.003 109.768 610.287 109.265C610.571 108.762 610.959 108.359 611.45 108.058C611.941 107.756 612.494 107.528 613.11 107.374C613.731 107.214 614.374 107.099 615.036 107.028C615.835 106.945 616.484 106.871 616.981 106.806C617.478 106.735 617.839 106.628 618.064 106.486C618.295 106.338 618.41 106.11 618.41 105.803V105.749C618.41 105.08 618.212 104.563 617.815 104.196C617.419 103.829 616.848 103.645 616.102 103.645C615.315 103.645 614.69 103.817 614.229 104.16C613.773 104.503 613.465 104.909 613.305 105.376L610.305 104.95C610.541 104.122 610.932 103.429 611.476 102.873C612.021 102.311 612.687 101.89 613.474 101.612C614.261 101.328 615.131 101.186 616.084 101.186C616.741 101.186 617.395 101.263 618.046 101.417C618.697 101.571 619.292 101.825 619.831 102.18C620.369 102.53 620.801 103.006 621.127 103.61C621.458 104.213 621.624 104.968 621.624 105.874V115H618.534V113.127H618.428C618.233 113.506 617.957 113.861 617.602 114.192C617.253 114.518 616.812 114.781 616.279 114.982C615.753 115.178 615.134 115.275 614.424 115.275ZM615.258 112.914C615.904 112.914 616.463 112.786 616.936 112.532C617.41 112.272 617.774 111.928 618.028 111.502C618.289 111.076 618.419 110.611 618.419 110.108V108.501C618.318 108.584 618.147 108.661 617.904 108.732C617.667 108.803 617.401 108.865 617.105 108.919C616.809 108.972 616.516 109.019 616.226 109.061C615.936 109.102 615.685 109.138 615.472 109.167C614.992 109.232 614.563 109.339 614.184 109.487C613.805 109.635 613.507 109.842 613.288 110.108C613.069 110.369 612.959 110.706 612.959 111.12C612.959 111.712 613.175 112.159 613.607 112.461C614.039 112.763 614.59 112.914 615.258 112.914ZM631.166 115.24C630.094 115.24 629.136 114.964 628.289 114.414C627.443 113.864 626.774 113.065 626.283 112.017C625.792 110.969 625.546 109.697 625.546 108.2C625.546 106.684 625.795 105.406 626.292 104.364C626.795 103.317 627.473 102.527 628.325 101.994C629.177 101.455 630.127 101.186 631.175 101.186C631.974 101.186 632.631 101.322 633.146 101.594C633.66 101.861 634.069 102.183 634.371 102.562C634.672 102.935 634.906 103.287 635.072 103.619H635.205V96.8182H638.428V115H635.267V112.852H635.072C634.906 113.183 634.667 113.535 634.353 113.908C634.039 114.275 633.625 114.589 633.11 114.849C632.595 115.109 631.947 115.24 631.166 115.24ZM632.062 112.603C632.743 112.603 633.323 112.42 633.802 112.053C634.282 111.68 634.646 111.162 634.894 110.499C635.143 109.836 635.267 109.064 635.267 108.182C635.267 107.3 635.143 106.533 634.894 105.882C634.652 105.231 634.291 104.725 633.811 104.364C633.338 104.003 632.755 103.823 632.062 103.823C631.346 103.823 630.748 104.009 630.269 104.382C629.79 104.755 629.429 105.27 629.186 105.927C628.943 106.584 628.822 107.335 628.822 108.182C628.822 109.034 628.943 109.795 629.186 110.463C629.435 111.126 629.799 111.65 630.278 112.035C630.763 112.414 631.358 112.603 632.062 112.603ZM65.7933 145V126.818H69.0071V133.619H69.1403C69.306 133.287 69.5398 132.935 69.8416 132.562C70.1435 132.183 70.5518 131.861 71.0668 131.594C71.5817 131.322 72.2386 131.186 73.0376 131.186C74.0911 131.186 75.0411 131.455 75.8874 131.994C76.7397 132.527 77.4144 133.317 77.9116 134.364C78.4147 135.406 78.6662 136.684 78.6662 138.2C78.6662 139.697 78.4206 140.969 77.9293 142.017C77.4381 143.065 76.7693 143.864 75.9229 144.414C75.0766 144.964 74.1178 145.24 73.0465 145.24C72.2653 145.24 71.6172 145.109 71.1023 144.849C70.5874 144.589 70.1731 144.275 69.8594 143.908C69.5516 143.535 69.3119 143.183 69.1403 142.852H68.9538V145H65.7933ZM68.945 138.182C68.945 139.064 69.0692 139.836 69.3178 140.499C69.5723 141.162 69.9363 141.68 70.4098 142.053C70.8892 142.42 71.4692 142.603 72.1499 142.603C72.8601 142.603 73.4549 142.414 73.9343 142.035C74.4137 141.65 74.7747 141.126 75.0174 140.463C75.266 139.795 75.3903 139.034 75.3903 138.182C75.3903 137.335 75.2689 136.584 75.0263 135.927C74.7836 135.27 74.4226 134.755 73.9432 134.382C73.4638 134.009 72.866 133.823 72.1499 133.823C71.4633 133.823 70.8803 134.003 70.4009 134.364C69.9215 134.725 69.5575 135.231 69.3089 135.882C69.0663 136.533 68.945 137.3 68.945 138.182ZM84.182 150.114C83.744 150.114 83.3386 150.078 82.9657 150.007C82.5988 149.942 82.3058 149.865 82.0868 149.776L82.8326 147.273C83.3001 147.409 83.7174 147.474 84.0843 147.468C84.4513 147.462 84.7739 147.347 85.052 147.122C85.3361 146.903 85.5758 146.536 85.7711 146.021L86.0463 145.284L81.1014 131.364H84.5105L87.6532 141.662H87.7953L90.9469 131.364H94.3649L88.905 146.651C88.6505 147.373 88.3132 147.992 87.8929 148.507C87.4727 149.028 86.9578 149.424 86.3482 149.696C85.7445 149.975 85.0224 150.114 84.182 150.114ZM105.29 150.114V131.364H108.45V133.619H108.637C108.803 133.287 109.036 132.935 109.338 132.562C109.64 132.183 110.048 131.861 110.563 131.594C111.078 131.322 111.735 131.186 112.534 131.186C113.588 131.186 114.538 131.455 115.384 131.994C116.236 132.527 116.911 133.317 117.408 134.364C117.911 135.406 118.163 136.684 118.163 138.2C118.163 139.697 117.917 140.969 117.426 142.017C116.935 143.065 116.266 143.864 115.42 144.414C114.573 144.964 113.614 145.24 112.543 145.24C111.762 145.24 111.114 145.109 110.599 144.849C110.084 144.589 109.67 144.275 109.356 143.908C109.048 143.535 108.809 143.183 108.637 142.852H108.504V150.114H105.29ZM108.442 138.182C108.442 139.064 108.566 139.836 108.814 140.499C109.069 141.162 109.433 141.68 109.906 142.053C110.386 142.42 110.966 142.603 111.646 142.603C112.357 142.603 112.952 142.414 113.431 142.035C113.91 141.65 114.271 141.126 114.514 140.463C114.763 139.795 114.887 139.034 114.887 138.182C114.887 137.335 114.766 136.584 114.523 135.927C114.28 135.27 113.919 134.755 113.44 134.382C112.96 134.009 112.363 133.823 111.646 133.823C110.96 133.823 110.377 134.003 109.898 134.364C109.418 134.725 109.054 135.231 108.806 135.882C108.563 136.533 108.442 137.3 108.442 138.182ZM122.165 145V131.364H125.281V133.636H125.423C125.672 132.849 126.098 132.243 126.702 131.816C127.311 131.384 128.007 131.168 128.788 131.168C128.965 131.168 129.164 131.177 129.383 131.195C129.608 131.207 129.794 131.228 129.942 131.257V134.213C129.806 134.166 129.59 134.125 129.294 134.089C129.004 134.048 128.723 134.027 128.45 134.027C127.865 134.027 127.338 134.154 126.87 134.409C126.409 134.657 126.045 135.004 125.778 135.447C125.512 135.891 125.379 136.403 125.379 136.983V145H122.165ZM138.714 145.266C137.382 145.266 136.228 144.973 135.251 144.387C134.275 143.801 133.517 142.982 132.979 141.928C132.446 140.875 132.18 139.644 132.18 138.235C132.18 136.826 132.446 135.592 132.979 134.533C133.517 133.474 134.275 132.651 135.251 132.065C136.228 131.479 137.382 131.186 138.714 131.186C140.045 131.186 141.199 131.479 142.176 132.065C143.153 132.651 143.907 133.474 144.44 134.533C144.978 135.592 145.248 136.826 145.248 138.235C145.248 139.644 144.978 140.875 144.44 141.928C143.907 142.982 143.153 143.801 142.176 144.387C141.199 144.973 140.045 145.266 138.714 145.266ZM138.731 142.692C139.454 142.692 140.057 142.493 140.543 142.097C141.028 141.694 141.389 141.156 141.626 140.481C141.868 139.806 141.99 139.055 141.99 138.226C141.99 137.392 141.868 136.637 141.626 135.962C141.389 135.282 141.028 134.74 140.543 134.338C140.057 133.935 139.454 133.734 138.731 133.734C137.992 133.734 137.376 133.935 136.885 134.338C136.4 134.74 136.036 135.282 135.793 135.962C135.556 136.637 135.438 137.392 135.438 138.226C135.438 139.055 135.556 139.806 135.793 140.481C136.036 141.156 136.4 141.694 136.885 142.097C137.376 142.493 137.992 142.692 138.731 142.692ZM160.942 131.364L156.086 145H152.535L147.679 131.364H151.105L154.239 141.493H154.381L157.524 131.364H160.942ZM164.416 145V131.364H167.63V145H164.416ZM166.032 129.428C165.523 129.428 165.085 129.26 164.718 128.922C164.351 128.579 164.167 128.168 164.167 127.688C164.167 127.203 164.351 126.792 164.718 126.454C165.085 126.111 165.523 125.939 166.032 125.939C166.547 125.939 166.985 126.111 167.346 126.454C167.713 126.792 167.896 127.203 167.896 127.688C167.896 128.168 167.713 128.579 167.346 128.922C166.985 129.26 166.547 129.428 166.032 129.428ZM177.245 145.24C176.174 145.24 175.215 144.964 174.368 144.414C173.522 143.864 172.853 143.065 172.362 142.017C171.871 140.969 171.625 139.697 171.625 138.2C171.625 136.684 171.874 135.406 172.371 134.364C172.874 133.317 173.552 132.527 174.404 131.994C175.256 131.455 176.206 131.186 177.254 131.186C178.053 131.186 178.71 131.322 179.225 131.594C179.74 131.861 180.148 132.183 180.45 132.562C180.752 132.935 180.985 133.287 181.151 133.619H181.284V126.818H184.507V145H181.346V142.852H181.151C180.985 143.183 180.746 143.535 180.432 143.908C180.118 144.275 179.704 144.589 179.189 144.849C178.674 145.109 178.026 145.24 177.245 145.24ZM178.142 142.603C178.822 142.603 179.402 142.42 179.882 142.053C180.361 141.68 180.725 141.162 180.974 140.499C181.222 139.836 181.346 139.064 181.346 138.182C181.346 137.3 181.222 136.533 180.974 135.882C180.731 135.231 180.37 134.725 179.89 134.364C179.417 134.003 178.834 133.823 178.142 133.823C177.425 133.823 176.828 134.009 176.348 134.382C175.869 134.755 175.508 135.27 175.265 135.927C175.022 136.584 174.901 137.335 174.901 138.182C174.901 139.034 175.022 139.795 175.265 140.463C175.514 141.126 175.878 141.65 176.357 142.035C176.842 142.414 177.437 142.603 178.142 142.603ZM189.182 145V131.364H192.395V145H189.182ZM190.797 129.428C190.288 129.428 189.85 129.26 189.483 128.922C189.116 128.579 188.933 128.168 188.933 127.688C188.933 127.203 189.116 126.792 189.483 126.454C189.85 126.111 190.288 125.939 190.797 125.939C191.312 125.939 191.75 126.111 192.111 126.454C192.478 126.792 192.662 127.203 192.662 127.688C192.662 128.168 192.478 128.579 192.111 128.922C191.75 129.26 191.312 129.428 190.797 129.428ZM200.164 137.01V145H196.95V131.364H200.022V133.681H200.182C200.495 132.917 200.995 132.311 201.682 131.861C202.374 131.411 203.23 131.186 204.248 131.186C205.189 131.186 206.008 131.387 206.707 131.79C207.411 132.192 207.956 132.775 208.34 133.539C208.731 134.302 208.923 135.228 208.917 136.317V145H205.704V136.815C205.704 135.903 205.467 135.19 204.993 134.675C204.526 134.16 203.878 133.903 203.049 133.903C202.487 133.903 201.987 134.027 201.549 134.276C201.117 134.518 200.776 134.87 200.528 135.332C200.285 135.794 200.164 136.353 200.164 137.01ZM219.365 150.398C218.211 150.398 217.219 150.241 216.391 149.927C215.562 149.619 214.896 149.205 214.393 148.684C213.89 148.163 213.541 147.586 213.346 146.953L216.24 146.252C216.37 146.518 216.559 146.781 216.808 147.042C217.057 147.308 217.391 147.527 217.811 147.699C218.237 147.876 218.773 147.965 219.418 147.965C220.33 147.965 221.084 147.743 221.682 147.299C222.28 146.861 222.579 146.139 222.579 145.133V142.55H222.419C222.253 142.881 222.01 143.221 221.691 143.571C221.377 143.92 220.96 144.213 220.439 144.45C219.924 144.686 219.276 144.805 218.495 144.805C217.447 144.805 216.497 144.559 215.645 144.068C214.799 143.571 214.124 142.831 213.621 141.848C213.124 140.86 212.875 139.623 212.875 138.137C212.875 136.64 213.124 135.376 213.621 134.347C214.124 133.311 214.802 132.527 215.654 131.994C216.506 131.455 217.456 131.186 218.504 131.186C219.303 131.186 219.96 131.322 220.475 131.594C220.995 131.861 221.41 132.183 221.718 132.562C222.025 132.935 222.259 133.287 222.419 133.619H222.596V131.364H225.766V145.222C225.766 146.388 225.488 147.353 224.931 148.116C224.375 148.88 223.614 149.451 222.65 149.83C221.685 150.208 220.59 150.398 219.365 150.398ZM219.392 142.283C220.072 142.283 220.652 142.118 221.132 141.786C221.611 141.455 221.975 140.978 222.224 140.357C222.472 139.735 222.596 138.99 222.596 138.12C222.596 137.261 222.472 136.51 222.224 135.865C221.981 135.22 221.62 134.719 221.14 134.364C220.667 134.003 220.084 133.823 219.392 133.823C218.675 133.823 218.078 134.009 217.598 134.382C217.119 134.755 216.758 135.267 216.515 135.918C216.272 136.563 216.151 137.297 216.151 138.12C216.151 138.954 216.272 139.685 216.515 140.312C216.764 140.934 217.128 141.419 217.607 141.768C218.092 142.112 218.687 142.283 219.392 142.283ZM239.758 150.114C239.32 150.114 238.915 150.078 238.542 150.007C238.175 149.942 237.882 149.865 237.663 149.776L238.409 147.273C238.876 147.409 239.294 147.474 239.661 147.468C240.027 147.462 240.35 147.347 240.628 147.122C240.912 146.903 241.152 146.536 241.347 146.021L241.623 145.284L236.678 131.364H240.087L243.229 141.662H243.371L246.523 131.364H249.941L244.481 146.651C244.227 147.373 243.889 147.992 243.469 148.507C243.049 149.028 242.534 149.424 241.924 149.696C241.321 149.975 240.599 150.114 239.758 150.114ZM258.899 145.266C257.568 145.266 256.413 144.973 255.437 144.387C254.46 143.801 253.703 142.982 253.164 141.928C252.631 140.875 252.365 139.644 252.365 138.235C252.365 136.826 252.631 135.592 253.164 134.533C253.703 133.474 254.46 132.651 255.437 132.065C256.413 131.479 257.568 131.186 258.899 131.186C260.231 131.186 261.385 131.479 262.362 132.065C263.338 132.651 264.093 133.474 264.625 134.533C265.164 135.592 265.433 136.826 265.433 138.235C265.433 139.644 265.164 140.875 264.625 141.928C264.093 142.982 263.338 143.801 262.362 144.387C261.385 144.973 260.231 145.266 258.899 145.266ZM258.917 142.692C259.639 142.692 260.243 142.493 260.728 142.097C261.213 141.694 261.574 141.156 261.811 140.481C262.054 139.806 262.175 139.055 262.175 138.226C262.175 137.392 262.054 136.637 261.811 135.962C261.574 135.282 261.213 134.74 260.728 134.338C260.243 133.935 259.639 133.734 258.917 133.734C258.177 133.734 257.562 133.935 257.07 134.338C256.585 134.74 256.221 135.282 255.978 135.962C255.742 136.637 255.623 137.392 255.623 138.226C255.623 139.055 255.742 139.806 255.978 140.481C256.221 141.156 256.585 141.694 257.07 142.097C257.562 142.493 258.177 142.692 258.917 142.692ZM278.102 139.265V131.364H281.316V145H278.2V142.576H278.058C277.75 143.34 277.244 143.964 276.54 144.45C275.842 144.935 274.98 145.178 273.956 145.178C273.063 145.178 272.273 144.979 271.586 144.583C270.905 144.18 270.373 143.597 269.988 142.834C269.603 142.064 269.411 141.135 269.411 140.046V131.364H272.625V139.549C272.625 140.413 272.862 141.1 273.335 141.609C273.809 142.118 274.43 142.372 275.199 142.372C275.673 142.372 276.132 142.257 276.575 142.026C277.019 141.795 277.383 141.452 277.667 140.996C277.957 140.534 278.102 139.957 278.102 139.265ZM300.131 131.364V133.849H292.292V131.364H300.131ZM294.228 128.097H297.441V140.898C297.441 141.33 297.507 141.662 297.637 141.893C297.773 142.118 297.95 142.272 298.169 142.354C298.388 142.437 298.631 142.479 298.897 142.479C299.099 142.479 299.282 142.464 299.448 142.434C299.62 142.405 299.75 142.378 299.839 142.354L300.38 144.867C300.208 144.926 299.963 144.991 299.643 145.062C299.33 145.133 298.945 145.175 298.489 145.186C297.684 145.21 296.959 145.089 296.314 144.822C295.669 144.55 295.157 144.13 294.778 143.562C294.405 142.994 294.222 142.283 294.228 141.431V128.097ZM307.576 137.01V145H304.362V126.818H307.505V133.681H307.665C307.984 132.911 308.479 132.305 309.147 131.861C309.822 131.411 310.68 131.186 311.722 131.186C312.669 131.186 313.495 131.384 314.199 131.781C314.903 132.177 315.448 132.757 315.832 133.521C316.223 134.284 316.418 135.217 316.418 136.317V145H313.205V136.815C313.205 135.897 312.968 135.184 312.494 134.675C312.027 134.16 311.37 133.903 310.523 133.903C309.955 133.903 309.446 134.027 308.996 134.276C308.553 134.518 308.203 134.87 307.949 135.332C307.7 135.794 307.576 136.353 307.576 137.01ZM326.981 145.266C325.614 145.266 324.433 144.982 323.439 144.414C322.451 143.84 321.69 143.029 321.157 141.982C320.625 140.928 320.358 139.688 320.358 138.262C320.358 136.859 320.625 135.628 321.157 134.569C321.696 133.503 322.448 132.675 323.412 132.083C324.377 131.485 325.51 131.186 326.812 131.186C327.653 131.186 328.446 131.322 329.192 131.594C329.943 131.861 330.606 132.275 331.18 132.837C331.76 133.4 332.216 134.116 332.548 134.986C332.879 135.85 333.045 136.88 333.045 138.075V139.061H321.868V136.895H329.964C329.958 136.279 329.825 135.732 329.565 135.252C329.304 134.767 328.94 134.385 328.473 134.107C328.011 133.829 327.472 133.69 326.857 133.69C326.2 133.69 325.623 133.849 325.126 134.169C324.629 134.483 324.241 134.897 323.963 135.412C323.69 135.921 323.551 136.48 323.545 137.09V138.981C323.545 139.774 323.69 140.455 323.98 141.023C324.27 141.585 324.676 142.017 325.197 142.319C325.718 142.615 326.327 142.763 327.026 142.763C327.493 142.763 327.916 142.698 328.295 142.567C328.674 142.431 329.002 142.233 329.281 141.973C329.559 141.712 329.769 141.39 329.911 141.005L332.912 141.342C332.722 142.135 332.361 142.828 331.828 143.42C331.302 144.006 330.627 144.461 329.804 144.787C328.982 145.107 328.041 145.266 326.981 145.266ZM344.465 145V131.364H347.581V133.636H347.723C347.972 132.849 348.398 132.243 349.001 131.816C349.611 131.384 350.306 131.168 351.088 131.168C351.265 131.168 351.463 131.177 351.682 131.195C351.907 131.207 352.094 131.228 352.242 131.257V134.213C352.106 134.166 351.89 134.125 351.594 134.089C351.304 134.048 351.023 134.027 350.75 134.027C350.164 134.027 349.638 134.154 349.17 134.409C348.708 134.657 348.344 135.004 348.078 135.447C347.812 135.891 347.679 136.403 347.679 136.983V145H344.465ZM355.627 145V131.364H358.841V145H355.627ZM357.243 129.428C356.734 129.428 356.296 129.26 355.929 128.922C355.562 128.579 355.378 128.168 355.378 127.688C355.378 127.203 355.562 126.792 355.929 126.454C356.296 126.111 356.734 125.939 357.243 125.939C357.758 125.939 358.196 126.111 358.557 126.454C358.924 126.792 359.107 127.203 359.107 127.688C359.107 128.168 358.924 128.579 358.557 128.922C358.196 129.26 357.758 129.428 357.243 129.428ZM369.326 150.398C368.172 150.398 367.18 150.241 366.352 149.927C365.523 149.619 364.857 149.205 364.354 148.684C363.851 148.163 363.502 147.586 363.307 146.953L366.201 146.252C366.331 146.518 366.52 146.781 366.769 147.042C367.018 147.308 367.352 147.527 367.772 147.699C368.198 147.876 368.734 147.965 369.379 147.965C370.291 147.965 371.045 147.743 371.643 147.299C372.241 146.861 372.54 146.139 372.54 145.133V142.55H372.38C372.214 142.881 371.971 143.221 371.652 143.571C371.338 143.92 370.921 144.213 370.4 144.45C369.885 144.686 369.237 144.805 368.456 144.805C367.408 144.805 366.458 144.559 365.606 144.068C364.76 143.571 364.085 142.831 363.582 141.848C363.085 140.86 362.836 139.623 362.836 138.137C362.836 136.64 363.085 135.376 363.582 134.347C364.085 133.311 364.763 132.527 365.615 131.994C366.467 131.455 367.417 131.186 368.465 131.186C369.264 131.186 369.921 131.322 370.436 131.594C370.956 131.861 371.371 132.183 371.678 132.562C371.986 132.935 372.22 133.287 372.38 133.619H372.557V131.364H375.727V145.222C375.727 146.388 375.449 147.353 374.892 148.116C374.336 148.88 373.575 149.451 372.611 149.83C371.646 150.208 370.551 150.398 369.326 150.398ZM369.352 142.283C370.033 142.283 370.613 142.118 371.093 141.786C371.572 141.455 371.936 140.978 372.184 140.357C372.433 139.735 372.557 138.99 372.557 138.12C372.557 137.261 372.433 136.51 372.184 135.865C371.942 135.22 371.581 134.719 371.101 134.364C370.628 134.003 370.045 133.823 369.352 133.823C368.636 133.823 368.039 134.009 367.559 134.382C367.08 134.755 366.719 135.267 366.476 135.918C366.233 136.563 366.112 137.297 366.112 138.12C366.112 138.954 366.233 139.685 366.476 140.312C366.725 140.934 367.089 141.419 367.568 141.768C368.053 142.112 368.648 142.283 369.352 142.283ZM383.484 137.01V145H380.27V126.818H383.413V133.681H383.573C383.893 132.911 384.387 132.305 385.056 131.861C385.73 131.411 386.588 131.186 387.63 131.186C388.577 131.186 389.403 131.384 390.107 131.781C390.811 132.177 391.356 132.757 391.741 133.521C392.131 134.284 392.327 135.217 392.327 136.317V145H389.113V136.815C389.113 135.897 388.876 135.184 388.403 134.675C387.935 134.16 387.278 133.903 386.432 133.903C385.863 133.903 385.354 134.027 384.905 134.276C384.461 134.518 384.112 134.87 383.857 135.332C383.608 135.794 383.484 136.353 383.484 137.01ZM403.662 131.364V133.849H395.823V131.364H403.662ZM397.758 128.097H400.972V140.898C400.972 141.33 401.037 141.662 401.167 141.893C401.303 142.118 401.481 142.272 401.7 142.354C401.919 142.437 402.161 142.479 402.428 142.479C402.629 142.479 402.812 142.464 402.978 142.434C403.15 142.405 403.28 142.378 403.369 142.354L403.91 144.867C403.739 144.926 403.493 144.991 403.173 145.062C402.86 145.133 402.475 145.175 402.019 145.186C401.214 145.21 400.489 145.089 399.844 144.822C399.199 144.55 398.687 144.13 398.308 143.562C397.936 142.994 397.752 142.283 397.758 141.431V128.097ZM415.051 145V131.364H418.264V145H415.051ZM416.666 129.428C416.157 129.428 415.719 129.26 415.353 128.922C414.986 128.579 414.802 128.168 414.802 127.688C414.802 127.203 414.986 126.792 415.353 126.454C415.719 126.111 416.157 125.939 416.666 125.939C417.181 125.939 417.619 126.111 417.98 126.454C418.347 126.792 418.531 127.203 418.531 127.688C418.531 128.168 418.347 128.579 417.98 128.922C417.619 129.26 417.181 129.428 416.666 129.428ZM426.033 137.01V145H422.819V131.364H425.891V133.681H426.051C426.364 132.917 426.865 132.311 427.551 131.861C428.244 131.411 429.099 131.186 430.117 131.186C431.058 131.186 431.878 131.387 432.576 131.79C433.28 132.192 433.825 132.775 434.21 133.539C434.6 134.302 434.792 135.228 434.787 136.317V145H431.573V136.815C431.573 135.903 431.336 135.19 430.863 134.675C430.395 134.16 429.747 133.903 428.918 133.903C428.356 133.903 427.856 134.027 427.418 134.276C426.986 134.518 426.646 134.87 426.397 135.332C426.154 135.794 426.033 136.353 426.033 137.01ZM446.211 131.364V133.849H438.15V131.364H446.211ZM440.165 145V130.076C440.165 129.159 440.354 128.395 440.733 127.786C441.118 127.176 441.633 126.721 442.278 126.419C442.923 126.117 443.639 125.966 444.426 125.966C444.982 125.966 445.477 126.01 445.909 126.099C446.341 126.188 446.66 126.268 446.868 126.339L446.228 128.825C446.092 128.783 445.921 128.742 445.713 128.7C445.506 128.653 445.275 128.629 445.021 128.629C444.423 128.629 444 128.774 443.751 129.064C443.509 129.348 443.387 129.757 443.387 130.289V145H440.165ZM455.413 145.266C454.081 145.266 452.927 144.973 451.951 144.387C450.974 143.801 450.216 142.982 449.678 141.928C449.145 140.875 448.879 139.644 448.879 138.235C448.879 136.826 449.145 135.592 449.678 134.533C450.216 133.474 450.974 132.651 451.951 132.065C452.927 131.479 454.081 131.186 455.413 131.186C456.745 131.186 457.899 131.479 458.875 132.065C459.852 132.651 460.606 133.474 461.139 134.533C461.678 135.592 461.947 136.826 461.947 138.235C461.947 139.644 461.678 140.875 461.139 141.928C460.606 142.982 459.852 143.801 458.875 144.387C457.899 144.973 456.745 145.266 455.413 145.266ZM455.431 142.692C456.153 142.692 456.756 142.493 457.242 142.097C457.727 141.694 458.088 141.156 458.325 140.481C458.568 139.806 458.689 139.055 458.689 138.226C458.689 137.392 458.568 136.637 458.325 135.962C458.088 135.282 457.727 134.74 457.242 134.338C456.756 133.935 456.153 133.734 455.431 133.734C454.691 133.734 454.075 133.935 453.584 134.338C453.099 134.74 452.735 135.282 452.492 135.962C452.255 136.637 452.137 137.392 452.137 138.226C452.137 139.055 452.255 139.806 452.492 140.481C452.735 141.156 453.099 141.694 453.584 142.097C454.075 142.493 454.691 142.692 455.431 142.692ZM465.925 145V131.364H469.041V133.636H469.183C469.431 132.849 469.858 132.243 470.461 131.816C471.071 131.384 471.766 131.168 472.548 131.168C472.725 131.168 472.923 131.177 473.142 131.195C473.367 131.207 473.554 131.228 473.702 131.257V134.213C473.566 134.166 473.35 134.125 473.054 134.089C472.764 134.048 472.482 134.027 472.21 134.027C471.624 134.027 471.098 134.154 470.63 134.409C470.168 134.657 469.804 135.004 469.538 135.447C469.272 135.891 469.138 136.403 469.138 136.983V145H465.925ZM477.087 145V131.364H480.159V133.681H480.318C480.602 132.9 481.073 132.29 481.73 131.852C482.387 131.408 483.171 131.186 484.083 131.186C485.006 131.186 485.784 131.411 486.417 131.861C487.057 132.305 487.506 132.911 487.767 133.681H487.909C488.211 132.923 488.72 132.319 489.436 131.87C490.158 131.414 491.013 131.186 492.002 131.186C493.256 131.186 494.28 131.583 495.073 132.376C495.866 133.169 496.263 134.326 496.263 135.847V145H493.04V136.344C493.04 135.498 492.815 134.879 492.366 134.489C491.916 134.092 491.365 133.894 490.714 133.894C489.939 133.894 489.332 134.136 488.894 134.622C488.462 135.101 488.246 135.726 488.246 136.495V145H485.095V136.211C485.095 135.507 484.882 134.944 484.455 134.524C484.035 134.104 483.485 133.894 482.804 133.894C482.343 133.894 481.922 134.012 481.544 134.249C481.165 134.48 480.863 134.808 480.638 135.234C480.413 135.655 480.301 136.146 480.301 136.708V145H477.087ZM504.697 145.275C503.833 145.275 503.055 145.121 502.362 144.814C501.676 144.5 501.131 144.038 500.729 143.429C500.332 142.819 500.134 142.067 500.134 141.174C500.134 140.404 500.276 139.768 500.56 139.265C500.844 138.762 501.232 138.359 501.723 138.058C502.215 137.756 502.768 137.528 503.383 137.374C504.005 137.214 504.647 137.099 505.31 137.028C506.109 136.945 506.757 136.871 507.254 136.806C507.751 136.735 508.112 136.628 508.337 136.486C508.568 136.338 508.684 136.11 508.684 135.803V135.749C508.684 135.08 508.485 134.563 508.089 134.196C507.692 133.829 507.121 133.645 506.375 133.645C505.588 133.645 504.964 133.817 504.502 134.16C504.046 134.503 503.739 134.909 503.579 135.376L500.578 134.95C500.815 134.122 501.205 133.429 501.75 132.873C502.294 132.311 502.96 131.89 503.747 131.612C504.535 131.328 505.405 131.186 506.358 131.186C507.014 131.186 507.668 131.263 508.32 131.417C508.971 131.571 509.565 131.825 510.104 132.18C510.643 132.53 511.075 133.006 511.4 133.61C511.732 134.213 511.897 134.968 511.897 135.874V145H508.808V143.127H508.701C508.506 143.506 508.231 143.861 507.876 144.192C507.526 144.518 507.085 144.781 506.553 144.982C506.026 145.178 505.408 145.275 504.697 145.275ZM505.532 142.914C506.177 142.914 506.736 142.786 507.21 142.532C507.683 142.272 508.047 141.928 508.302 141.502C508.562 141.076 508.692 140.611 508.692 140.108V138.501C508.592 138.584 508.42 138.661 508.177 138.732C507.941 138.803 507.674 138.865 507.378 138.919C507.083 138.972 506.79 139.019 506.5 139.061C506.21 139.102 505.958 139.138 505.745 139.167C505.266 139.232 504.836 139.339 504.458 139.487C504.079 139.635 503.78 139.842 503.561 140.108C503.342 140.369 503.233 140.706 503.233 141.12C503.233 141.712 503.449 142.159 503.881 142.461C504.313 142.763 504.863 142.914 505.532 142.914ZM523.188 131.364V133.849H515.349V131.364H523.188ZM517.284 128.097H520.498V140.898C520.498 141.33 520.563 141.662 520.693 141.893C520.83 142.118 521.007 142.272 521.226 142.354C521.445 142.437 521.688 142.479 521.954 142.479C522.155 142.479 522.339 142.464 522.505 142.434C522.676 142.405 522.806 142.378 522.895 142.354L523.437 144.867C523.265 144.926 523.019 144.991 522.7 145.062C522.386 145.133 522.001 145.175 521.546 145.186C520.741 145.21 520.016 145.089 519.371 144.822C518.726 144.55 518.214 144.13 517.835 143.562C517.462 142.994 517.278 142.283 517.284 141.431V128.097ZM527.126 145V131.364H530.34V145H527.126ZM528.742 129.428C528.233 129.428 527.795 129.26 527.428 128.922C527.061 128.579 526.877 128.168 526.877 127.688C526.877 127.203 527.061 126.792 527.428 126.454C527.795 126.111 528.233 125.939 528.742 125.939C529.257 125.939 529.695 126.111 530.056 126.454C530.423 126.792 530.606 127.203 530.606 127.688C530.606 128.168 530.423 128.579 530.056 128.922C529.695 129.26 529.257 129.428 528.742 129.428ZM540.843 145.266C539.511 145.266 538.357 144.973 537.38 144.387C536.404 143.801 535.646 142.982 535.108 141.928C534.575 140.875 534.309 139.644 534.309 138.235C534.309 136.826 534.575 135.592 535.108 134.533C535.646 133.474 536.404 132.651 537.38 132.065C538.357 131.479 539.511 131.186 540.843 131.186C542.174 131.186 543.328 131.479 544.305 132.065C545.282 132.651 546.036 133.474 546.569 134.533C547.107 135.592 547.377 136.826 547.377 138.235C547.377 139.644 547.107 140.875 546.569 141.928C546.036 142.982 545.282 143.801 544.305 144.387C543.328 144.973 542.174 145.266 540.843 145.266ZM540.86 142.692C541.582 142.692 542.186 142.493 542.671 142.097C543.157 141.694 543.518 141.156 543.755 140.481C543.997 139.806 544.119 139.055 544.119 138.226C544.119 137.392 543.997 136.637 543.755 135.962C543.518 135.282 543.157 134.74 542.671 134.338C542.186 133.935 541.582 133.734 540.86 133.734C540.121 133.734 539.505 133.935 539.014 134.338C538.528 134.74 538.164 135.282 537.922 135.962C537.685 136.637 537.567 137.392 537.567 138.226C537.567 139.055 537.685 139.806 537.922 140.481C538.164 141.156 538.528 141.694 539.014 142.097C539.505 142.493 540.121 142.692 540.86 142.692ZM554.568 137.01V145H551.354V131.364H554.426V133.681H554.586C554.9 132.917 555.4 132.311 556.086 131.861C556.779 131.411 557.634 131.186 558.652 131.186C559.593 131.186 560.413 131.387 561.111 131.79C561.815 132.192 562.36 132.775 562.745 133.539C563.135 134.302 563.328 135.228 563.322 136.317V145H560.108V136.815C560.108 135.903 559.871 135.19 559.398 134.675C558.93 134.16 558.282 133.903 557.453 133.903C556.891 133.903 556.391 134.027 555.953 134.276C555.521 134.518 555.181 134.87 554.932 135.332C554.69 135.794 554.568 136.353 554.568 137.01ZM569.819 145.195C569.28 145.195 568.818 145.006 568.434 144.627C568.049 144.248 567.859 143.787 567.865 143.242C567.859 142.71 568.049 142.254 568.434 141.875C568.818 141.496 569.28 141.307 569.819 141.307C570.339 141.307 570.792 141.496 571.177 141.875C571.567 142.254 571.766 142.71 571.772 143.242C571.766 143.603 571.671 143.932 571.488 144.228C571.31 144.524 571.073 144.76 570.777 144.938C570.487 145.109 570.168 145.195 569.819 145.195Z" fill="white"/>
<g filter="url(#filter1_d_231_25)">
<path d="M764.316 92.2322L654.535 171.27L655.099 12.417L764.316 92.2322Z" fill="#2495EB"/>
</g>
<path d="M79.2727 76H67.4432V41.0909H79.5114C82.9773 41.0909 85.9545 41.7898 88.4432 43.1875C90.9432 44.5739 92.8636 46.5682 94.2045 49.1705C95.5455 51.7727 96.2159 54.8864 96.2159 58.5114C96.2159 62.1477 95.5398 65.2727 94.1875 67.8864C92.8466 70.5 90.9091 72.5057 88.375 73.9034C85.8523 75.3011 82.8182 76 79.2727 76ZM73.767 70.5284H78.9659C81.3977 70.5284 83.4261 70.0852 85.0511 69.1989C86.6761 68.3011 87.8977 66.9659 88.7159 65.1932C89.5341 63.4091 89.9432 61.1818 89.9432 58.5114C89.9432 55.8409 89.5341 53.625 88.7159 51.8636C87.8977 50.0909 86.6875 48.767 85.0852 47.892C83.4943 47.0057 81.517 46.5625 79.1534 46.5625H73.767V70.5284ZM104.624 76V41.0909H127.329V46.392H110.948V55.8693H126.153V61.1705H110.948V70.6989H127.465V76H104.624ZM166.061 52.8693H159.686C159.505 51.8239 159.169 50.8977 158.681 50.0909C158.192 49.2727 157.584 48.5795 156.857 48.0114C156.13 47.4432 155.3 47.017 154.368 46.733C153.448 46.4375 152.453 46.2898 151.385 46.2898C149.488 46.2898 147.806 46.767 146.34 47.7216C144.874 48.6648 143.726 50.0511 142.897 51.8807C142.067 53.6989 141.652 55.9205 141.652 58.5455C141.652 61.2159 142.067 63.4659 142.897 65.2955C143.738 67.1136 144.885 68.4886 146.34 69.4205C147.806 70.3409 149.482 70.8011 151.368 70.8011C152.414 70.8011 153.391 70.6648 154.3 70.392C155.22 70.108 156.044 69.6932 156.772 69.1477C157.51 68.6023 158.13 67.9318 158.63 67.1364C159.141 66.3409 159.493 65.4318 159.686 64.4091L166.061 64.4432C165.823 66.1023 165.306 67.6591 164.51 69.1136C163.726 70.5682 162.698 71.8523 161.425 72.9659C160.152 74.0682 158.664 74.9318 156.959 75.5568C155.255 76.1705 153.363 76.4773 151.283 76.4773C148.215 76.4773 145.476 75.767 143.067 74.3466C140.658 72.9261 138.76 70.875 137.374 68.1932C135.988 65.5114 135.294 62.2955 135.294 58.5455C135.294 54.7841 135.993 51.5682 137.391 48.8977C138.789 46.2159 140.692 44.1648 143.101 42.7443C145.51 41.3239 148.238 40.6136 151.283 40.6136C153.226 40.6136 155.033 40.8864 156.703 41.4318C158.374 41.9773 159.863 42.7784 161.169 43.8352C162.476 44.8807 163.55 46.1648 164.391 47.6875C165.243 49.1989 165.8 50.9261 166.061 52.8693ZM180.576 41.0909V76H174.253V41.0909H180.576ZM201.654 76H189.824V41.0909H201.893C205.359 41.0909 208.336 41.7898 210.824 43.1875C213.324 44.5739 215.245 46.5682 216.586 49.1705C217.927 51.7727 218.597 54.8864 218.597 58.5114C218.597 62.1477 217.921 65.2727 216.569 67.8864C215.228 70.5 213.29 72.5057 210.756 73.9034C208.234 75.3011 205.199 76 201.654 76ZM196.148 70.5284H201.347C203.779 70.5284 205.807 70.0852 207.432 69.1989C209.057 68.3011 210.279 66.9659 211.097 65.1932C211.915 63.4091 212.324 61.1818 212.324 58.5114C212.324 55.8409 211.915 53.625 211.097 51.8636C210.279 50.0909 209.069 48.767 207.466 47.892C205.876 47.0057 203.898 46.5625 201.535 46.5625H196.148V70.5284ZM227.006 76V41.0909H249.71V46.392H233.33V55.8693H248.534V61.1705H233.33V70.6989H249.847V76H227.006Z" fill="white"/>
<defs>
<filter id="filter0_d_231_25" x="0" y="11" width="671" height="170" filterUnits="userSpaceOnUse" color-interpolation-filters="sRGB">
<feFlood flood-opacity="0" result="BackgroundImageFix"/>
<feColorMatrix in="SourceAlpha" type="matrix" values="0 0 0 0 0 0 0 0 0 0 0 0 0 0 0 0 0 0 127 0" result="hardAlpha"/>
<feOffset dy="4"/>
<feGaussianBlur stdDeviation="2"/>
<feComposite in2="hardAlpha" operator="out"/>
<feColorMatrix type="matrix" values="0 0 0 0 0 0 0 0 0 0 0 0 0 0 0 0 0 0 0.25 0"/>
<feBlend mode="normal" in2="BackgroundImageFix" result="effect1_dropShadow_231_25"/>
<feBlend mode="normal" in="SourceGraphic" in2="effect1_dropShadow_231_25" result="shape"/>
</filter>
<filter id="filter1_d_231_25" x="650.535" y="12.417" width="117.781" height="166.853" filterUnits="userSpaceOnUse" color-interpolation-filters="sRGB">
<feFlood flood-opacity="0" result="BackgroundImageFix"/>
<feColorMatrix in="SourceAlpha" type="matrix" values="0 0 0 0 0 0 0 0 0 0 0 0 0 0 0 0 0 0 127 0" result="hardAlpha"/>
<feOffset dy="4"/>
<feGaussianBlur stdDeviation="2"/>
<feComposite in2="hardAlpha" operator="out"/>
<feColorMatrix type="matrix" values="0 0 0 0 0 0 0 0 0 0 0 0 0 0 0 0 0 0 0.25 0"/>
<feBlend mode="normal" in2="BackgroundImageFix" result="effect1_dropShadow_231_25"/>
<feBlend mode="normal" in="SourceGraphic" in2="effect1_dropShadow_231_25" result="shape"/>
</filter>
</defs>
</svg>
