<svg width="765" height="184" viewBox="0 0 765 184" fill="none" xmlns="http://www.w3.org/2000/svg">
<g filter="url(#filter0_d_231_26)">
<rect x="4" y="11" width="663" height="162" rx="20" fill="#2495EB"/>
</g>
<path d="M71.9261 75H65.1761L77.4659 40.0909H85.2727L97.5795 75H90.8295L81.5057 47.25H81.233L71.9261 75ZM72.1477 61.3125H90.5568V66.392H72.1477V61.3125ZM104.578 75V40.0909H117.668C120.35 40.0909 122.6 40.5909 124.418 41.5909C126.248 42.5909 127.629 43.9659 128.561 45.7159C129.504 47.4545 129.975 49.4318 129.975 51.6477C129.975 53.8864 129.504 55.875 128.561 57.6136C127.617 59.3523 126.225 60.7216 124.384 61.7216C122.543 62.7102 120.276 63.2045 117.583 63.2045H108.907V58.0057H116.731C118.299 58.0057 119.583 57.733 120.583 57.1875C121.583 56.642 122.322 55.892 122.799 54.9375C123.288 53.983 123.532 52.8864 123.532 51.6477C123.532 50.4091 123.288 49.3182 122.799 48.375C122.322 47.4318 121.578 46.6989 120.566 46.1761C119.566 45.642 118.276 45.375 116.697 45.375H110.901V75H104.578ZM137.868 75V40.0909H150.959C153.641 40.0909 155.891 40.5909 157.709 41.5909C159.539 42.5909 160.919 43.9659 161.851 45.7159C162.794 47.4545 163.266 49.4318 163.266 51.6477C163.266 53.8864 162.794 55.875 161.851 57.6136C160.908 59.3523 159.516 60.7216 157.675 61.7216C155.834 62.7102 153.567 63.2045 150.874 63.2045H142.198V58.0057H150.022C151.59 58.0057 152.874 57.733 153.874 57.1875C154.874 56.642 155.613 55.892 156.09 54.9375C156.578 53.983 156.823 52.8864 156.823 51.6477C156.823 50.4091 156.578 49.3182 156.09 48.375C155.613 47.4318 154.868 46.6989 153.857 46.1761C152.857 45.642 151.567 45.375 149.988 45.375H144.192V75H137.868ZM171.159 75V40.0909H177.483V69.6989H192.858V75H171.159ZM194.844 40.0909H201.986L210.526 55.5341H210.867L219.407 40.0909H226.549L213.85 61.9773V75H207.543V61.9773L194.844 40.0909Z" fill="white"/>
<g filter="url(#filter1_d_231_26)">
<path d="M764.316 92.2322L654.535 171.27L655.099 12.417L764.316 92.2322Z" fill="#2495EB"/>
</g>
<path d="M63.7933 115V96.8182H67.087V104.515H75.5121V96.8182H78.8146V115H75.5121V107.276H67.087V115H63.7933ZM87.4288 115.275C86.5647 115.275 85.7864 115.121 85.0939 114.814C84.4074 114.5 83.8629 114.038 83.4604 113.429C83.0639 112.819 82.8656 112.067 82.8656 111.174C82.8656 110.404 83.0076 109.768 83.2917 109.265C83.5758 108.762 83.9635 108.359 84.4547 108.058C84.946 107.756 85.4993 107.528 86.1149 107.374C86.7363 107.214 87.3785 107.099 88.0414 107.028C88.8404 106.945 89.4885 106.871 89.9856 106.806C90.4828 106.735 90.8438 106.628 91.0687 106.486C91.2995 106.338 91.415 106.11 91.415 105.803V105.749C91.415 105.08 91.2167 104.563 90.8201 104.196C90.4236 103.829 89.8525 103.645 89.1067 103.645C88.3195 103.645 87.6951 103.817 87.2335 104.16C86.7778 104.503 86.47 104.909 86.3102 105.376L83.3095 104.95C83.5462 104.122 83.9368 103.429 84.4814 102.873C85.0259 102.311 85.6917 101.89 86.4789 101.612C87.266 101.328 88.1361 101.186 89.089 101.186C89.7459 101.186 90.3999 101.263 91.051 101.417C91.702 101.571 92.2968 101.825 92.8354 102.18C93.374 102.53 93.806 103.006 94.1316 103.61C94.463 104.213 94.6287 104.968 94.6287 105.874V115H91.5392V113.127H91.4327C91.2374 113.506 90.9622 113.861 90.6071 114.192C90.2579 114.518 89.8169 114.781 89.2843 114.982C88.7575 115.178 88.139 115.275 87.4288 115.275ZM88.2633 112.914C88.9084 112.914 89.4677 112.786 89.9412 112.532C90.4147 112.272 90.7787 111.928 91.0332 111.502C91.2936 111.076 91.4238 110.611 91.4238 110.108V108.501C91.3232 108.584 91.1516 108.661 90.9089 108.732C90.6722 108.803 90.4058 108.865 90.1099 108.919C89.814 108.972 89.521 109.019 89.231 109.061C88.941 109.102 88.6895 109.138 88.4764 109.167C87.997 109.232 87.5679 109.339 87.1891 109.487C86.8103 109.635 86.5114 109.842 86.2924 110.108C86.0734 110.369 85.964 110.706 85.964 111.12C85.964 111.712 86.18 112.159 86.612 112.461C87.0441 112.763 87.5945 112.914 88.2633 112.914ZM110.802 101.364L105.946 115H102.395L97.5389 101.364H100.966L104.1 111.493H104.242L107.384 101.364H110.802ZM114.276 115V101.364H117.49V115H114.276ZM115.892 99.4283C115.383 99.4283 114.945 99.2596 114.578 98.9222C114.211 98.579 114.028 98.1676 114.028 97.6882C114.028 97.2029 114.211 96.7915 114.578 96.4542C114.945 96.1109 115.383 95.9393 115.892 95.9393C116.407 95.9393 116.845 96.1109 117.206 96.4542C117.573 96.7915 117.756 97.2029 117.756 97.6882C117.756 98.1676 117.573 98.579 117.206 98.9222C116.845 99.2596 116.407 99.4283 115.892 99.4283ZM125.259 107.01V115H122.045V101.364H125.117V103.681H125.276C125.59 102.917 126.09 102.311 126.777 101.861C127.469 101.411 128.324 101.186 129.342 101.186C130.283 101.186 131.103 101.387 131.802 101.79C132.506 102.192 133.05 102.775 133.435 103.539C133.826 104.302 134.018 105.228 134.012 106.317V115H130.798V106.815C130.798 105.903 130.562 105.19 130.088 104.675C129.621 104.16 128.973 103.903 128.144 103.903C127.582 103.903 127.082 104.027 126.644 104.276C126.211 104.518 125.871 104.87 125.623 105.332C125.38 105.794 125.259 106.353 125.259 107.01ZM144.46 120.398C143.305 120.398 142.314 120.241 141.486 119.927C140.657 119.619 139.991 119.205 139.488 118.684C138.985 118.163 138.636 117.586 138.44 116.953L141.335 116.252C141.465 116.518 141.654 116.781 141.903 117.042C142.151 117.308 142.486 117.527 142.906 117.699C143.332 117.876 143.868 117.965 144.513 117.965C145.424 117.965 146.179 117.743 146.777 117.299C147.374 116.861 147.673 116.139 147.673 115.133V112.55H147.514C147.348 112.881 147.105 113.221 146.786 113.571C146.472 113.92 146.055 114.213 145.534 114.45C145.019 114.686 144.371 114.805 143.59 114.805C142.542 114.805 141.592 114.559 140.74 114.068C139.893 113.571 139.219 112.831 138.716 111.848C138.218 110.86 137.97 109.623 137.97 108.137C137.97 106.64 138.218 105.376 138.716 104.347C139.219 103.311 139.896 102.527 140.749 101.994C141.601 101.455 142.551 101.186 143.598 101.186C144.397 101.186 145.054 101.322 145.569 101.594C146.09 101.861 146.504 102.183 146.812 102.562C147.12 102.935 147.354 103.287 147.514 103.619H147.691V101.364H150.861V115.222C150.861 116.388 150.582 117.353 150.026 118.116C149.47 118.88 148.709 119.451 147.744 119.83C146.78 120.208 145.685 120.398 144.46 120.398ZM144.486 112.283C145.167 112.283 145.747 112.118 146.226 111.786C146.706 111.455 147.07 110.978 147.318 110.357C147.567 109.735 147.691 108.99 147.691 108.12C147.691 107.261 147.567 106.51 147.318 105.865C147.076 105.22 146.715 104.719 146.235 104.364C145.762 104.003 145.179 103.823 144.486 103.823C143.77 103.823 143.172 104.009 142.693 104.382C142.214 104.755 141.852 105.267 141.61 105.918C141.367 106.563 141.246 107.297 141.246 108.12C141.246 108.954 141.367 109.685 141.61 110.312C141.858 110.934 142.222 111.419 142.702 111.768C143.187 112.112 143.782 112.283 144.486 112.283ZM173.633 104.968L170.703 105.288C170.621 104.992 170.476 104.714 170.268 104.453C170.067 104.193 169.795 103.983 169.452 103.823C169.108 103.663 168.688 103.583 168.191 103.583C167.522 103.583 166.96 103.728 166.504 104.018C166.054 104.308 165.832 104.684 165.838 105.146C165.832 105.542 165.977 105.865 166.273 106.113C166.575 106.362 167.072 106.566 167.765 106.726L170.091 107.223C171.381 107.501 172.34 107.942 172.967 108.546C173.601 109.15 173.92 109.94 173.926 110.916C173.92 111.774 173.669 112.532 173.171 113.189C172.68 113.84 171.997 114.349 171.121 114.716C170.245 115.083 169.239 115.266 168.102 115.266C166.433 115.266 165.09 114.917 164.072 114.219C163.054 113.514 162.447 112.535 162.252 111.28L165.386 110.978C165.528 111.594 165.829 112.058 166.291 112.372C166.753 112.686 167.353 112.843 168.093 112.843C168.857 112.843 169.469 112.686 169.931 112.372C170.399 112.058 170.632 111.671 170.632 111.209C170.632 110.819 170.481 110.496 170.18 110.241C169.884 109.987 169.422 109.792 168.795 109.656L166.469 109.167C165.161 108.895 164.193 108.436 163.566 107.791C162.938 107.14 162.628 106.317 162.633 105.323C162.628 104.483 162.855 103.755 163.317 103.139C163.785 102.518 164.433 102.038 165.261 101.701C166.096 101.358 167.058 101.186 168.147 101.186C169.745 101.186 171.002 101.526 171.92 102.207C172.843 102.888 173.414 103.808 173.633 104.968ZM180.756 110.721L180.747 106.841H181.262L186.162 101.364H189.918L183.89 108.075H183.224L180.756 110.721ZM177.826 115V96.8182H181.04V115H177.826ZM186.384 115L181.945 108.794L184.112 106.531L190.228 115H186.384ZM193.309 115V101.364H196.523V115H193.309ZM194.925 99.4283C194.416 99.4283 193.978 99.2596 193.611 98.9222C193.244 98.579 193.061 98.1676 193.061 97.6882C193.061 97.2029 193.244 96.7915 193.611 96.4542C193.978 96.1109 194.416 95.9393 194.925 95.9393C195.44 95.9393 195.878 96.1109 196.239 96.4542C196.606 96.7915 196.79 97.2029 196.79 97.6882C196.79 98.1676 196.606 98.579 196.239 98.9222C195.878 99.2596 195.44 99.4283 194.925 99.4283ZM204.292 96.8182V115H201.078V96.8182H204.292ZM212.06 96.8182V115H208.847V96.8182H212.06ZM227.393 104.968L224.463 105.288C224.38 104.992 224.235 104.714 224.028 104.453C223.827 104.193 223.555 103.983 223.211 103.823C222.868 103.663 222.448 103.583 221.951 103.583C221.282 103.583 220.72 103.728 220.264 104.018C219.814 104.308 219.592 104.684 219.598 105.146C219.592 105.542 219.737 105.865 220.033 106.113C220.335 106.362 220.832 106.566 221.525 106.726L223.851 107.223C225.141 107.501 226.1 107.942 226.727 108.546C227.36 109.15 227.68 109.94 227.686 110.916C227.68 111.774 227.428 112.532 226.931 113.189C226.44 113.84 225.756 114.349 224.88 114.716C224.004 115.083 222.998 115.266 221.862 115.266C220.193 115.266 218.849 114.917 217.831 114.219C216.813 113.514 216.207 112.535 216.011 111.28L219.145 110.978C219.287 111.594 219.589 112.058 220.051 112.372C220.513 112.686 221.113 112.843 221.853 112.843C222.617 112.843 223.229 112.686 223.691 112.372C224.158 112.058 224.392 111.671 224.392 111.209C224.392 110.819 224.241 110.496 223.939 110.241C223.643 109.987 223.182 109.792 222.554 109.656L220.228 109.167C218.92 108.895 217.953 108.436 217.325 107.791C216.698 107.14 216.387 106.317 216.393 105.323C216.387 104.483 216.615 103.755 217.077 103.139C217.544 102.518 218.192 102.038 219.021 101.701C219.856 101.358 220.817 101.186 221.906 101.186C223.504 101.186 224.762 101.526 225.679 102.207C226.603 102.888 227.174 103.808 227.393 104.968ZM239.037 115V101.364H242.251V115H239.037ZM240.653 99.4283C240.144 99.4283 239.706 99.2596 239.339 98.9222C238.972 98.579 238.788 98.1676 238.788 97.6882C238.788 97.2029 238.972 96.7915 239.339 96.4542C239.706 96.1109 240.144 95.9393 240.653 95.9393C241.168 95.9393 241.606 96.1109 241.967 96.4542C242.334 96.7915 242.517 97.2029 242.517 97.6882C242.517 98.1676 242.334 98.579 241.967 98.9222C241.606 99.2596 241.168 99.4283 240.653 99.4283ZM257.583 104.968L254.654 105.288C254.571 104.992 254.426 104.714 254.219 104.453C254.017 104.193 253.745 103.983 253.402 103.823C253.059 103.663 252.638 103.583 252.141 103.583C251.472 103.583 250.91 103.728 250.454 104.018C250.005 104.308 249.783 104.684 249.789 105.146C249.783 105.542 249.928 105.865 250.224 106.113C250.525 106.362 251.023 106.566 251.715 106.726L254.041 107.223C255.331 107.501 256.29 107.942 256.917 108.546C257.551 109.15 257.87 109.94 257.876 110.916C257.87 111.774 257.619 112.532 257.122 113.189C256.63 113.84 255.947 114.349 255.071 114.716C254.195 115.083 253.189 115.266 252.052 115.266C250.383 115.266 249.04 114.917 248.022 114.219C247.004 113.514 246.397 112.535 246.202 111.28L249.336 110.978C249.478 111.594 249.78 112.058 250.241 112.372C250.703 112.686 251.304 112.843 252.044 112.843C252.807 112.843 253.42 112.686 253.881 112.372C254.349 112.058 254.583 111.671 254.583 111.209C254.583 110.819 254.432 110.496 254.13 110.241C253.834 109.987 253.372 109.792 252.745 109.656L250.419 109.167C249.111 108.895 248.143 108.436 247.516 107.791C246.888 107.14 246.578 106.317 246.584 105.323C246.578 104.483 246.806 103.755 247.267 103.139C247.735 102.518 248.383 102.038 249.211 101.701C250.046 101.358 251.008 101.186 252.097 101.186C253.695 101.186 254.952 101.526 255.87 102.207C256.793 102.888 257.364 103.808 257.583 104.968ZM275.176 115.266C273.844 115.266 272.69 114.973 271.713 114.387C270.737 113.801 269.979 112.982 269.441 111.928C268.908 110.875 268.642 109.644 268.642 108.235C268.642 106.826 268.908 105.592 269.441 104.533C269.979 103.474 270.737 102.651 271.713 102.065C272.69 101.479 273.844 101.186 275.176 101.186C276.507 101.186 277.661 101.479 278.638 102.065C279.615 102.651 280.369 103.474 280.902 104.533C281.44 105.592 281.71 106.826 281.71 108.235C281.71 109.644 281.44 110.875 280.902 111.928C280.369 112.982 279.615 113.801 278.638 114.387C277.661 114.973 276.507 115.266 275.176 115.266ZM275.193 112.692C275.915 112.692 276.519 112.493 277.004 112.097C277.49 111.694 277.851 111.156 278.088 110.481C278.33 109.806 278.452 109.055 278.452 108.226C278.452 107.392 278.33 106.637 278.088 105.962C277.851 105.282 277.49 104.74 277.004 104.338C276.519 103.935 275.915 103.734 275.193 103.734C274.454 103.734 273.838 103.935 273.347 104.338C272.861 104.74 272.497 105.282 272.255 105.962C272.018 106.637 271.9 107.392 271.9 108.226C271.9 109.055 272.018 109.806 272.255 110.481C272.497 111.156 272.861 111.694 273.347 112.097C273.838 112.493 274.454 112.692 275.193 112.692ZM288.901 107.01V115H285.687V101.364H288.759V103.681H288.919C289.233 102.917 289.733 102.311 290.419 101.861C291.112 101.411 291.967 101.186 292.985 101.186C293.926 101.186 294.746 101.387 295.444 101.79C296.148 102.192 296.693 102.775 297.078 103.539C297.468 104.302 297.661 105.228 297.655 106.317V115H294.441V106.815C294.441 105.903 294.204 105.19 293.731 104.675C293.263 104.16 292.615 103.903 291.786 103.903C291.224 103.903 290.724 104.027 290.286 104.276C289.854 104.518 289.514 104.87 289.265 105.332C289.023 105.794 288.901 106.353 288.901 107.01ZM308.209 115.266C306.842 115.266 305.661 114.982 304.666 114.414C303.678 113.84 302.918 113.029 302.385 111.982C301.852 110.928 301.586 109.688 301.586 108.262C301.586 106.859 301.852 105.628 302.385 104.569C302.923 103.503 303.675 102.675 304.64 102.083C305.605 101.485 306.738 101.186 308.04 101.186C308.88 101.186 309.674 101.322 310.419 101.594C311.171 101.861 311.834 102.275 312.408 102.837C312.988 103.4 313.444 104.116 313.775 104.986C314.107 105.85 314.272 106.88 314.272 108.075V109.061H303.095V106.895H311.192C311.186 106.279 311.053 105.732 310.792 105.252C310.532 104.767 310.168 104.385 309.7 104.107C309.239 103.829 308.7 103.69 308.084 103.69C307.427 103.69 306.85 103.849 306.353 104.169C305.856 104.483 305.468 104.897 305.19 105.412C304.918 105.921 304.779 106.48 304.773 107.09V108.981C304.773 109.774 304.918 110.455 305.208 111.023C305.498 111.585 305.903 112.017 306.424 112.319C306.945 112.615 307.555 112.763 308.253 112.763C308.721 112.763 309.144 112.698 309.523 112.567C309.901 112.431 310.23 112.233 310.508 111.973C310.786 111.712 310.996 111.39 311.138 111.005L314.139 111.342C313.95 112.135 313.589 112.828 313.056 113.42C312.529 114.006 311.855 114.461 311.032 114.787C310.209 115.107 309.268 115.266 308.209 115.266ZM332.502 101.364V103.849H324.662V101.364H332.502ZM326.598 98.0966H329.812V110.898C329.812 111.33 329.877 111.662 330.007 111.893C330.143 112.118 330.321 112.272 330.54 112.354C330.759 112.437 331.001 112.479 331.268 112.479C331.469 112.479 331.652 112.464 331.818 112.434C331.99 112.405 332.12 112.378 332.209 112.354L332.75 114.867C332.579 114.926 332.333 114.991 332.013 115.062C331.7 115.133 331.315 115.175 330.859 115.186C330.054 115.21 329.329 115.089 328.684 114.822C328.039 114.55 327.527 114.13 327.148 113.562C326.775 112.994 326.592 112.283 326.598 111.431V98.0966ZM339.946 107.01V115H336.732V96.8182H339.875V103.681H340.035C340.354 102.911 340.849 102.305 341.517 101.861C342.192 101.411 343.05 101.186 344.092 101.186C345.039 101.186 345.865 101.384 346.569 101.781C347.273 102.177 347.818 102.757 348.203 103.521C348.593 104.284 348.788 105.217 348.788 106.317V115H345.575V106.815C345.575 105.897 345.338 105.184 344.864 104.675C344.397 104.16 343.74 103.903 342.894 103.903C342.325 103.903 341.816 104.027 341.367 104.276C340.923 104.518 340.573 104.87 340.319 105.332C340.07 105.794 339.946 106.353 339.946 107.01ZM353.314 115V101.364H356.528V115H353.314ZM354.93 99.4283C354.421 99.4283 353.983 99.2596 353.616 98.9222C353.249 98.579 353.066 98.1676 353.066 97.6882C353.066 97.2029 353.249 96.7915 353.616 96.4542C353.983 96.1109 354.421 95.9393 354.93 95.9393C355.445 95.9393 355.883 96.1109 356.244 96.4542C356.611 96.7915 356.794 97.2029 356.794 97.6882C356.794 98.1676 356.611 98.579 356.244 98.9222C355.883 99.2596 355.445 99.4283 354.93 99.4283ZM364.297 107.01V115H361.083V101.364H364.155V103.681H364.314C364.628 102.917 365.128 102.311 365.815 101.861C366.507 101.411 367.363 101.186 368.381 101.186C369.322 101.186 370.141 101.387 370.84 101.79C371.544 102.192 372.088 102.775 372.473 103.539C372.864 104.302 373.056 105.228 373.05 106.317V115H369.836V106.815C369.836 105.903 369.6 105.19 369.126 104.675C368.659 104.16 368.011 103.903 367.182 103.903C366.62 103.903 366.12 104.027 365.682 104.276C365.25 104.518 364.909 104.87 364.661 105.332C364.418 105.794 364.297 106.353 364.297 107.01ZM383.498 120.398C382.344 120.398 381.352 120.241 380.524 119.927C379.695 119.619 379.029 119.205 378.526 118.684C378.023 118.163 377.674 117.586 377.479 116.953L380.373 116.252C380.503 116.518 380.692 116.781 380.941 117.042C381.189 117.308 381.524 117.527 381.944 117.699C382.37 117.876 382.906 117.965 383.551 117.965C384.462 117.965 385.217 117.743 385.815 117.299C386.413 116.861 386.711 116.139 386.711 115.133V112.55H386.552C386.386 112.881 386.143 113.221 385.824 113.571C385.51 113.92 385.093 114.213 384.572 114.45C384.057 114.686 383.409 114.805 382.628 114.805C381.58 114.805 380.63 114.559 379.778 114.068C378.932 113.571 378.257 112.831 377.754 111.848C377.257 110.86 377.008 109.623 377.008 108.137C377.008 106.64 377.257 105.376 377.754 104.347C378.257 103.311 378.934 102.527 379.787 101.994C380.639 101.455 381.589 101.186 382.637 101.186C383.436 101.186 384.093 101.322 384.607 101.594C385.128 101.861 385.543 102.183 385.85 102.562C386.158 102.935 386.392 103.287 386.552 103.619H386.729V101.364H389.899V115.222C389.899 116.388 389.62 117.353 389.064 118.116C388.508 118.88 387.747 119.451 386.782 119.83C385.818 120.208 384.723 120.398 383.498 120.398ZM383.524 112.283C384.205 112.283 384.785 112.118 385.264 111.786C385.744 111.455 386.108 110.978 386.356 110.357C386.605 109.735 386.729 108.99 386.729 108.12C386.729 107.261 386.605 106.51 386.356 105.865C386.114 105.22 385.753 104.719 385.273 104.364C384.8 104.003 384.217 103.823 383.524 103.823C382.808 103.823 382.21 104.009 381.731 104.382C381.252 104.755 380.891 105.267 380.648 105.918C380.405 106.563 380.284 107.297 380.284 108.12C380.284 108.954 380.405 109.685 380.648 110.312C380.896 110.934 381.26 111.419 381.74 111.768C382.225 112.112 382.82 112.283 383.524 112.283ZM405.817 115.275C404.953 115.275 404.175 115.121 403.483 114.814C402.796 114.5 402.252 114.038 401.849 113.429C401.453 112.819 401.254 112.067 401.254 111.174C401.254 110.404 401.396 109.768 401.68 109.265C401.964 108.762 402.352 108.359 402.843 108.058C403.335 107.756 403.888 107.528 404.504 107.374C405.125 107.214 405.767 107.099 406.43 107.028C407.229 106.945 407.877 106.871 408.374 106.806C408.871 106.735 409.232 106.628 409.457 106.486C409.688 106.338 409.804 106.11 409.804 105.803V105.749C409.804 105.08 409.605 104.563 409.209 104.196C408.812 103.829 408.241 103.645 407.495 103.645C406.708 103.645 406.084 103.817 405.622 104.16C405.166 104.503 404.859 104.909 404.699 105.376L401.698 104.95C401.935 104.122 402.326 103.429 402.87 102.873C403.415 102.311 404.08 101.89 404.868 101.612C405.655 101.328 406.525 101.186 407.478 101.186C408.135 101.186 408.789 101.263 409.44 101.417C410.091 101.571 410.685 101.825 411.224 102.18C411.763 102.53 412.195 103.006 412.52 103.61C412.852 104.213 413.017 104.968 413.017 105.874V115H409.928V113.127H409.821C409.626 113.506 409.351 113.861 408.996 114.192C408.647 114.518 408.206 114.781 407.673 114.982C407.146 115.178 406.528 115.275 405.817 115.275ZM406.652 112.914C407.297 112.914 407.856 112.786 408.33 112.532C408.803 112.272 409.167 111.928 409.422 111.502C409.682 111.076 409.812 110.611 409.812 110.108V108.501C409.712 108.584 409.54 108.661 409.298 108.732C409.061 108.803 408.795 108.865 408.499 108.919C408.203 108.972 407.91 109.019 407.62 109.061C407.33 109.102 407.078 109.138 406.865 109.167C406.386 109.232 405.957 109.339 405.578 109.487C405.199 109.635 404.9 109.842 404.681 110.108C404.462 110.369 404.353 110.706 404.353 111.12C404.353 111.712 404.569 112.159 405.001 112.461C405.433 112.763 405.983 112.914 406.652 112.914ZM420.713 107.01V115H417.499V101.364H420.571V103.681H420.73C421.044 102.917 421.544 102.311 422.231 101.861C422.923 101.411 423.779 101.186 424.797 101.186C425.738 101.186 426.557 101.387 427.256 101.79C427.96 102.192 428.504 102.775 428.889 103.539C429.28 104.302 429.472 105.228 429.466 106.317V115H426.252V106.815C426.252 105.903 426.016 105.19 425.542 104.675C425.075 104.16 424.427 103.903 423.598 103.903C423.036 103.903 422.536 104.027 422.098 104.276C421.666 104.518 421.325 104.87 421.077 105.332C420.834 105.794 420.713 106.353 420.713 107.01ZM439.044 115.24C437.972 115.24 437.014 114.964 436.167 114.414C435.321 113.864 434.652 113.065 434.161 112.017C433.67 110.969 433.424 109.697 433.424 108.2C433.424 106.684 433.673 105.406 434.17 104.364C434.673 103.317 435.35 102.527 436.203 101.994C437.055 101.455 438.005 101.186 439.053 101.186C439.852 101.186 440.509 101.322 441.023 101.594C441.538 101.861 441.947 102.183 442.249 102.562C442.55 102.935 442.784 103.287 442.95 103.619H443.083V96.8182H446.306V115H443.145V112.852H442.95C442.784 113.183 442.545 113.535 442.231 113.908C441.917 114.275 441.503 114.589 440.988 114.849C440.473 115.109 439.825 115.24 439.044 115.24ZM439.94 112.603C440.621 112.603 441.201 112.42 441.68 112.053C442.16 111.68 442.524 111.162 442.772 110.499C443.021 109.836 443.145 109.064 443.145 108.182C443.145 107.3 443.021 106.533 442.772 105.882C442.53 105.231 442.169 104.725 441.689 104.364C441.216 104.003 440.633 103.823 439.94 103.823C439.224 103.823 438.626 104.009 438.147 104.382C437.668 104.755 437.307 105.27 437.064 105.927C436.821 106.584 436.7 107.335 436.7 108.182C436.7 109.034 436.821 109.795 437.064 110.463C437.313 111.126 437.676 111.65 438.156 112.035C438.641 112.414 439.236 112.603 439.94 112.603ZM462.356 115.275C461.491 115.275 460.713 115.121 460.021 114.814C459.334 114.5 458.79 114.038 458.387 113.429C457.991 112.819 457.792 112.067 457.792 111.174C457.792 110.404 457.934 109.768 458.218 109.265C458.503 108.762 458.89 108.359 459.381 108.058C459.873 107.756 460.426 107.528 461.042 107.374C461.663 107.214 462.305 107.099 462.968 107.028C463.767 106.945 464.415 106.871 464.912 106.806C465.41 106.735 465.771 106.628 465.995 106.486C466.226 106.338 466.342 106.11 466.342 105.803V105.749C466.342 105.08 466.143 104.563 465.747 104.196C465.35 103.829 464.779 103.645 464.033 103.645C463.246 103.645 462.622 103.817 462.16 104.16C461.705 104.503 461.397 104.909 461.237 105.376L458.236 104.95C458.473 104.122 458.864 103.429 459.408 102.873C459.953 102.311 460.618 101.89 461.406 101.612C462.193 101.328 463.063 101.186 464.016 101.186C464.673 101.186 465.327 101.263 465.978 101.417C466.629 101.571 467.224 101.825 467.762 102.18C468.301 102.53 468.733 103.006 469.058 103.61C469.39 104.213 469.555 104.968 469.555 105.874V115H466.466V113.127H466.359C466.164 113.506 465.889 113.861 465.534 114.192C465.185 114.518 464.744 114.781 464.211 114.982C463.684 115.178 463.066 115.275 462.356 115.275ZM463.19 112.914C463.835 112.914 464.395 112.786 464.868 112.532C465.341 112.272 465.705 111.928 465.96 111.502C466.22 111.076 466.351 110.611 466.351 110.108V108.501C466.25 108.584 466.078 108.661 465.836 108.732C465.599 108.803 465.333 108.865 465.037 108.919C464.741 108.972 464.448 109.019 464.158 109.061C463.868 109.102 463.616 109.138 463.403 109.167C462.924 109.232 462.495 109.339 462.116 109.487C461.737 109.635 461.438 109.842 461.219 110.108C461 110.369 460.891 110.706 460.891 111.12C460.891 111.712 461.107 112.159 461.539 112.461C461.971 112.763 462.521 112.914 463.19 112.914ZM474.037 120.114V101.364H477.198V103.619H477.384C477.55 103.287 477.783 102.935 478.085 102.562C478.387 102.183 478.796 101.861 479.31 101.594C479.825 101.322 480.482 101.186 481.281 101.186C482.335 101.186 483.285 101.455 484.131 101.994C484.983 102.527 485.658 103.317 486.155 104.364C486.658 105.406 486.91 106.684 486.91 108.2C486.91 109.697 486.664 110.969 486.173 112.017C485.682 113.065 485.013 113.864 484.167 114.414C483.32 114.964 482.361 115.24 481.29 115.24C480.509 115.24 479.861 115.109 479.346 114.849C478.831 114.589 478.417 114.275 478.103 113.908C477.795 113.535 477.556 113.183 477.384 112.852H477.251V120.114H474.037ZM477.189 108.182C477.189 109.064 477.313 109.836 477.562 110.499C477.816 111.162 478.18 111.68 478.653 112.053C479.133 112.42 479.713 112.603 480.394 112.603C481.104 112.603 481.699 112.414 482.178 112.035C482.657 111.65 483.018 111.126 483.261 110.463C483.51 109.795 483.634 109.034 483.634 108.182C483.634 107.335 483.513 106.584 483.27 105.927C483.027 105.27 482.666 104.755 482.187 104.382C481.707 104.009 481.11 103.823 480.394 103.823C479.707 103.823 479.124 104.003 478.645 104.364C478.165 104.725 477.801 105.231 477.553 105.882C477.31 106.533 477.189 107.3 477.189 108.182ZM490.912 120.114V101.364H494.073V103.619H494.259C494.425 103.287 494.658 102.935 494.96 102.562C495.262 102.183 495.671 101.861 496.185 101.594C496.7 101.322 497.357 101.186 498.156 101.186C499.21 101.186 500.16 101.455 501.006 101.994C501.858 102.527 502.533 103.317 503.03 104.364C503.533 105.406 503.785 106.684 503.785 108.2C503.785 109.697 503.539 110.969 503.048 112.017C502.557 113.065 501.888 113.864 501.042 114.414C500.195 114.964 499.236 115.24 498.165 115.24C497.384 115.24 496.736 115.109 496.221 114.849C495.706 114.589 495.292 114.275 494.978 113.908C494.67 113.535 494.431 113.183 494.259 112.852H494.126V120.114H490.912ZM494.064 108.182C494.064 109.064 494.188 109.836 494.437 110.499C494.691 111.162 495.055 111.68 495.528 112.053C496.008 112.42 496.588 112.603 497.269 112.603C497.979 112.603 498.574 112.414 499.053 112.035C499.532 111.65 499.893 111.126 500.136 110.463C500.385 109.795 500.509 109.034 500.509 108.182C500.509 107.335 500.388 106.584 500.145 105.927C499.902 105.27 499.541 104.755 499.062 104.382C498.582 104.009 497.985 103.823 497.269 103.823C496.582 103.823 495.999 104.003 495.52 104.364C495.04 104.725 494.676 105.231 494.428 105.882C494.185 106.533 494.064 107.3 494.064 108.182ZM511.001 96.8182V115H507.787V96.8182H511.001ZM517.553 120.114C517.115 120.114 516.71 120.078 516.337 120.007C515.97 119.942 515.677 119.865 515.458 119.776L516.204 117.273C516.671 117.409 517.088 117.474 517.455 117.468C517.822 117.462 518.145 117.347 518.423 117.122C518.707 116.903 518.947 116.536 519.142 116.021L519.417 115.284L514.472 101.364H517.882L521.024 111.662H521.166L524.318 101.364H527.736L522.276 116.651C522.022 117.373 521.684 117.992 521.264 118.507C520.844 119.028 520.329 119.424 519.719 119.696C519.116 119.975 518.394 120.114 517.553 120.114ZM531.21 115V101.364H534.424V115H531.21ZM532.826 99.4283C532.317 99.4283 531.879 99.2596 531.512 98.9222C531.145 98.579 530.961 98.1676 530.961 97.6882C530.961 97.2029 531.145 96.7915 531.512 96.4542C531.879 96.1109 532.317 95.9393 532.826 95.9393C533.341 95.9393 533.779 96.1109 534.14 96.4542C534.507 96.7915 534.69 97.2029 534.69 97.6882C534.69 98.1676 534.507 98.579 534.14 98.9222C533.779 99.2596 533.341 99.4283 532.826 99.4283ZM542.192 107.01V115H538.978V101.364H542.05V103.681H542.21C542.524 102.917 543.024 102.311 543.71 101.861C544.403 101.411 545.258 101.186 546.276 101.186C547.217 101.186 548.037 101.387 548.735 101.79C549.439 102.192 549.984 102.775 550.369 103.539C550.759 104.302 550.952 105.228 550.946 106.317V115H547.732V106.815C547.732 105.903 547.495 105.19 547.022 104.675C546.554 104.16 545.906 103.903 545.078 103.903C544.515 103.903 544.015 104.027 543.577 104.276C543.145 104.518 542.805 104.87 542.556 105.332C542.314 105.794 542.192 106.353 542.192 107.01ZM561.393 120.398C560.239 120.398 559.248 120.241 558.419 119.927C557.591 119.619 556.925 119.205 556.422 118.684C555.919 118.163 555.569 117.586 555.374 116.953L558.268 116.252C558.398 116.518 558.588 116.781 558.836 117.042C559.085 117.308 559.419 117.527 559.84 117.699C560.266 117.876 560.801 117.965 561.446 117.965C562.358 117.965 563.113 117.743 563.71 117.299C564.308 116.861 564.607 116.139 564.607 115.133V112.55H564.447C564.281 112.881 564.039 113.221 563.719 113.571C563.406 113.92 562.988 114.213 562.467 114.45C561.953 114.686 561.304 114.805 560.523 114.805C559.476 114.805 558.526 114.559 557.673 114.068C556.827 113.571 556.152 112.831 555.649 111.848C555.152 110.86 554.903 109.623 554.903 108.137C554.903 106.64 555.152 105.376 555.649 104.347C556.152 103.311 556.83 102.527 557.682 101.994C558.535 101.455 559.484 101.186 560.532 101.186C561.331 101.186 561.988 101.322 562.503 101.594C563.024 101.861 563.438 102.183 563.746 102.562C564.054 102.935 564.287 103.287 564.447 103.619H564.625V101.364H567.794V115.222C567.794 116.388 567.516 117.353 566.96 118.116C566.403 118.88 565.643 119.451 564.678 119.83C563.713 120.208 562.618 120.398 561.393 120.398ZM561.42 112.283C562.1 112.283 562.68 112.118 563.16 111.786C563.639 111.455 564.003 110.978 564.252 110.357C564.5 109.735 564.625 108.99 564.625 108.12C564.625 107.261 564.5 106.51 564.252 105.865C564.009 105.22 563.648 104.719 563.169 104.364C562.695 104.003 562.112 103.823 561.42 103.823C560.704 103.823 560.106 104.009 559.627 104.382C559.147 104.755 558.786 105.267 558.543 105.918C558.301 106.563 558.179 107.297 558.179 108.12C558.179 108.954 558.301 109.685 558.543 110.312C558.792 110.934 559.156 111.419 559.635 111.768C560.121 112.112 560.716 112.283 561.42 112.283ZM586.598 101.364V103.849H578.759V101.364H586.598ZM580.695 98.0966H583.908V110.898C583.908 111.33 583.973 111.662 584.104 111.893C584.24 112.118 584.417 112.272 584.636 112.354C584.855 112.437 585.098 112.479 585.364 112.479C585.565 112.479 585.749 112.464 585.915 112.434C586.086 112.405 586.217 112.378 586.305 112.354L586.847 114.867C586.675 114.926 586.43 114.991 586.11 115.062C585.796 115.133 585.412 115.175 584.956 115.186C584.151 115.21 583.426 115.089 582.781 114.822C582.136 114.55 581.624 114.13 581.245 113.562C580.872 112.994 580.689 112.283 580.695 111.431V98.0966ZM594.043 107.01V115H590.829V96.8182H593.972V103.681H594.132C594.451 102.911 594.945 102.305 595.614 101.861C596.289 101.411 597.147 101.186 598.189 101.186C599.136 101.186 599.961 101.384 600.666 101.781C601.37 102.177 601.914 102.757 602.299 103.521C602.69 104.284 602.885 105.217 602.885 106.317V115H599.671V106.815C599.671 105.897 599.435 105.184 598.961 104.675C598.494 104.16 597.837 103.903 596.99 103.903C596.422 103.903 595.913 104.027 595.463 104.276C595.019 104.518 594.67 104.87 594.416 105.332C594.167 105.794 594.043 106.353 594.043 107.01ZM611.335 115.275C610.471 115.275 609.693 115.121 609 114.814C608.314 114.5 607.769 114.038 607.367 113.429C606.97 112.819 606.772 112.067 606.772 111.174C606.772 110.404 606.914 109.768 607.198 109.265C607.482 108.762 607.87 108.359 608.361 108.058C608.852 107.756 609.406 107.528 610.021 107.374C610.643 107.214 611.285 107.099 611.948 107.028C612.747 106.945 613.395 106.871 613.892 106.806C614.389 106.735 614.75 106.628 614.975 106.486C615.206 106.338 615.321 106.11 615.321 105.803V105.749C615.321 105.08 615.123 104.563 614.726 104.196C614.33 103.829 613.759 103.645 613.013 103.645C612.226 103.645 611.601 103.817 611.14 104.16C610.684 104.503 610.376 104.909 610.216 105.376L607.216 104.95C607.452 104.122 607.843 103.429 608.388 102.873C608.932 102.311 609.598 101.89 610.385 101.612C611.172 101.328 612.042 101.186 612.995 101.186C613.652 101.186 614.306 101.263 614.957 101.417C615.608 101.571 616.203 101.825 616.742 102.18C617.28 102.53 617.712 103.006 618.038 103.61C618.369 104.213 618.535 104.968 618.535 105.874V115H615.445V113.127H615.339C615.144 113.506 614.868 113.861 614.513 114.192C614.164 114.518 613.723 114.781 613.191 114.982C612.664 115.178 612.045 115.275 611.335 115.275ZM612.17 112.914C612.815 112.914 613.374 112.786 613.847 112.532C614.321 112.272 614.685 111.928 614.939 111.502C615.2 111.076 615.33 110.611 615.33 110.108V108.501C615.229 108.584 615.058 108.661 614.815 108.732C614.578 108.803 614.312 108.865 614.016 108.919C613.72 108.972 613.427 109.019 613.137 109.061C612.847 109.102 612.596 109.138 612.383 109.167C611.903 109.232 611.474 109.339 611.095 109.487C610.717 109.635 610.418 109.842 610.199 110.108C609.98 110.369 609.87 110.706 609.87 111.12C609.87 111.712 610.086 112.159 610.518 112.461C610.95 112.763 611.501 112.914 612.17 112.914ZM629.826 101.364V103.849H621.987V101.364H629.826ZM623.922 98.0966H627.136V110.898C627.136 111.33 627.201 111.662 627.331 111.893C627.467 112.118 627.645 112.272 627.864 112.354C628.083 112.437 628.325 112.479 628.592 112.479C628.793 112.479 628.977 112.464 629.142 112.434C629.314 112.405 629.444 112.378 629.533 112.354L630.074 114.867C629.903 114.926 629.657 114.991 629.338 115.062C629.024 115.133 628.639 115.175 628.183 115.186C627.378 115.21 626.653 115.089 626.008 114.822C625.363 114.55 624.851 114.13 624.472 113.562C624.1 112.994 623.916 112.283 623.922 111.431V98.0966ZM645.139 115.275C644.275 115.275 643.496 115.121 642.804 114.814C642.117 114.5 641.573 114.038 641.17 113.429C640.774 112.819 640.576 112.067 640.576 111.174C640.576 110.404 640.718 109.768 641.002 109.265C641.286 108.762 641.673 108.359 642.165 108.058C642.656 107.756 643.209 107.528 643.825 107.374C644.446 107.214 645.088 107.099 645.751 107.028C646.55 106.945 647.198 106.871 647.696 106.806C648.193 106.735 648.554 106.628 648.779 106.486C649.009 106.338 649.125 106.11 649.125 105.803V105.749C649.125 105.08 648.927 104.563 648.53 104.196C648.134 103.829 647.562 103.645 646.817 103.645C646.03 103.645 645.405 103.817 644.943 104.16C644.488 104.503 644.18 104.909 644.02 105.376L641.019 104.95C641.256 104.122 641.647 103.429 642.191 102.873C642.736 102.311 643.402 101.89 644.189 101.612C644.976 101.328 645.846 101.186 646.799 101.186C647.456 101.186 648.11 101.263 648.761 101.417C649.412 101.571 650.007 101.825 650.545 102.18C651.084 102.53 651.516 103.006 651.842 103.61C652.173 104.213 652.339 104.968 652.339 105.874V115H649.249V113.127H649.143C648.947 113.506 648.672 113.861 648.317 114.192C647.968 114.518 647.527 114.781 646.994 114.982C646.467 115.178 645.849 115.275 645.139 115.275ZM645.973 112.914C646.618 112.914 647.178 112.786 647.651 112.532C648.125 112.272 648.489 111.928 648.743 111.502C649.004 111.076 649.134 110.611 649.134 110.108V108.501C649.033 108.584 648.862 108.661 648.619 108.732C648.382 108.803 648.116 108.865 647.82 108.919C647.524 108.972 647.231 109.019 646.941 109.061C646.651 109.102 646.399 109.138 646.186 109.167C645.707 109.232 645.278 109.339 644.899 109.487C644.52 109.635 644.221 109.842 644.002 110.108C643.783 110.369 643.674 110.706 643.674 111.12C643.674 111.712 643.89 112.159 644.322 112.461C644.754 112.763 645.304 112.914 645.973 112.914ZM663.63 101.364V103.849H655.79V101.364H663.63ZM657.726 98.0966H660.94V110.898C660.94 111.33 661.005 111.662 661.135 111.893C661.271 112.118 661.449 112.272 661.668 112.354C661.887 112.437 662.129 112.479 662.396 112.479C662.597 112.479 662.78 112.464 662.946 112.434C663.118 112.405 663.248 112.378 663.337 112.354L663.878 114.867C663.706 114.926 663.461 114.991 663.141 115.062C662.828 115.133 662.443 115.175 661.987 115.186C661.182 115.21 660.457 115.089 659.812 114.822C659.167 114.55 658.655 114.13 658.276 113.562C657.903 112.994 657.72 112.283 657.726 111.431V98.0966ZM63.6513 145V131.364H66.7674V133.636H66.9094C67.158 132.849 67.5842 132.243 68.1879 131.816C68.7975 131.384 69.4929 131.168 70.2741 131.168C70.4517 131.168 70.65 131.177 70.869 131.195C71.0939 131.207 71.2803 131.228 71.4283 131.257V134.213C71.2921 134.166 71.0761 134.125 70.7802 134.089C70.4902 134.048 70.209 134.027 69.9368 134.027C69.3509 134.027 68.8241 134.154 68.3565 134.409C67.8949 134.657 67.5309 135.004 67.2646 135.447C66.9982 135.891 66.8651 136.403 66.8651 136.983V145H63.6513ZM74.8134 145V131.364H78.0272V145H74.8134ZM76.4292 129.428C75.9202 129.428 75.4822 129.26 75.1152 128.922C74.7483 128.579 74.5648 128.168 74.5648 127.688C74.5648 127.203 74.7483 126.792 75.1152 126.454C75.4822 126.111 75.9202 125.939 76.4292 125.939C76.9441 125.939 77.382 126.111 77.7431 126.454C78.11 126.792 78.2935 127.203 78.2935 127.688C78.2935 128.168 78.11 128.579 77.7431 128.922C77.382 129.26 76.9441 129.428 76.4292 129.428ZM88.5123 150.398C87.3582 150.398 86.3669 150.241 85.5383 149.927C84.7097 149.619 84.0438 149.205 83.5407 148.684C83.0377 148.163 82.6885 147.586 82.4932 146.953L85.3873 146.252C85.5175 146.518 85.7069 146.781 85.9555 147.042C86.2041 147.308 86.5385 147.527 86.9587 147.699C87.3849 147.876 87.9205 147.965 88.5656 147.965C89.4771 147.965 90.2317 147.743 90.8295 147.299C91.4272 146.861 91.7261 146.139 91.7261 145.133V142.55H91.5663C91.4006 142.881 91.1579 143.221 90.8383 143.571C90.5247 143.92 90.1074 144.213 89.5866 144.45C89.0716 144.686 88.4236 144.805 87.6423 144.805C86.5947 144.805 85.6448 144.559 84.7925 144.068C83.9462 143.571 83.2715 142.831 82.7684 141.848C82.2712 140.86 82.0226 139.623 82.0226 138.137C82.0226 136.64 82.2712 135.376 82.7684 134.347C83.2715 133.311 83.9491 132.527 84.8014 131.994C85.6537 131.455 86.6036 131.186 87.6512 131.186C88.4502 131.186 89.1072 131.322 89.6221 131.594C90.1429 131.861 90.5572 132.183 90.865 132.562C91.1727 132.935 91.4065 133.287 91.5663 133.619H91.7439V131.364H94.9133V145.222C94.9133 146.388 94.6351 147.353 94.0787 148.116C93.5224 148.88 92.7619 149.451 91.7971 149.83C90.8324 150.208 89.7375 150.398 88.5123 150.398ZM88.539 142.283C89.2196 142.283 89.7996 142.118 90.279 141.786C90.7584 141.455 91.1224 140.978 91.371 140.357C91.6196 139.735 91.7439 138.99 91.7439 138.12C91.7439 137.261 91.6196 136.51 91.371 135.865C91.1283 135.22 90.7673 134.719 90.2879 134.364C89.8144 134.003 89.2314 133.823 88.539 133.823C87.8228 133.823 87.2251 134.009 86.7456 134.382C86.2662 134.755 85.9052 135.267 85.6626 135.918C85.4199 136.563 85.2986 137.297 85.2986 138.12C85.2986 138.954 85.4199 139.685 85.6626 140.312C85.9111 140.934 86.2751 141.419 86.7545 141.768C87.2398 142.112 87.8347 142.283 88.539 142.283ZM102.671 137.01V145H99.4569V126.818H102.6V133.681H102.759C103.079 132.911 103.573 132.305 104.242 131.861C104.917 131.411 105.775 131.186 106.817 131.186C107.764 131.186 108.589 131.384 109.294 131.781C109.998 132.177 110.542 132.757 110.927 133.521C111.318 134.284 111.513 135.217 111.513 136.317V145H108.299V136.815C108.299 135.897 108.063 135.184 107.589 134.675C107.121 134.16 106.465 133.903 105.618 133.903C105.05 133.903 104.541 134.027 104.091 134.276C103.647 134.518 103.298 134.87 103.044 135.332C102.795 135.794 102.671 136.353 102.671 137.01ZM122.848 131.364V133.849H115.009V131.364H122.848ZM116.945 128.097H120.158V140.898C120.158 141.33 120.223 141.662 120.354 141.893C120.49 142.118 120.667 142.272 120.886 142.354C121.105 142.437 121.348 142.479 121.614 142.479C121.815 142.479 121.999 142.464 122.165 142.434C122.336 142.405 122.467 142.378 122.555 142.354L123.097 144.867C122.925 144.926 122.68 144.991 122.36 145.062C122.046 145.133 121.662 145.175 121.206 145.186C120.401 145.21 119.676 145.089 119.031 144.822C118.386 144.55 117.874 144.13 117.495 143.562C117.122 142.994 116.939 142.283 116.945 141.431V128.097ZM134.237 150.114V131.364H137.398V133.619H137.584C137.75 133.287 137.984 132.935 138.286 132.562C138.587 132.183 138.996 131.861 139.511 131.594C140.026 131.322 140.683 131.186 141.482 131.186C142.535 131.186 143.485 131.455 144.331 131.994C145.184 132.527 145.858 133.317 146.355 134.364C146.859 135.406 147.11 136.684 147.11 138.2C147.11 139.697 146.864 140.969 146.373 142.017C145.882 143.065 145.213 143.864 144.367 144.414C143.52 144.964 142.562 145.24 141.49 145.24C140.709 145.24 140.061 145.109 139.546 144.849C139.031 144.589 138.617 144.275 138.303 143.908C137.996 143.535 137.756 143.183 137.584 142.852H137.451V150.114H134.237ZM137.389 138.182C137.389 139.064 137.513 139.836 137.762 140.499C138.016 141.162 138.38 141.68 138.854 142.053C139.333 142.42 139.913 142.603 140.594 142.603C141.304 142.603 141.899 142.414 142.378 142.035C142.858 141.65 143.219 141.126 143.461 140.463C143.71 139.795 143.834 139.034 143.834 138.182C143.834 137.335 143.713 136.584 143.47 135.927C143.228 135.27 142.866 134.755 142.387 134.382C141.908 134.009 141.31 133.823 140.594 133.823C139.907 133.823 139.324 134.003 138.845 134.364C138.365 134.725 138.001 135.231 137.753 135.882C137.51 136.533 137.389 137.3 137.389 138.182ZM154.326 126.818V145H151.112V126.818H154.326ZM162.805 145.275C161.941 145.275 161.162 145.121 160.47 144.814C159.783 144.5 159.239 144.038 158.836 143.429C158.44 142.819 158.242 142.067 158.242 141.174C158.242 140.404 158.384 139.768 158.668 139.265C158.952 138.762 159.339 138.359 159.831 138.058C160.322 137.756 160.875 137.528 161.491 137.374C162.112 137.214 162.754 137.099 163.417 137.028C164.216 136.945 164.864 136.871 165.362 136.806C165.859 136.735 166.22 136.628 166.445 136.486C166.676 136.338 166.791 136.11 166.791 135.803V135.749C166.791 135.08 166.593 134.563 166.196 134.196C165.8 133.829 165.228 133.645 164.483 133.645C163.696 133.645 163.071 133.817 162.609 134.16C162.154 134.503 161.846 134.909 161.686 135.376L158.685 134.95C158.922 134.122 159.313 133.429 159.857 132.873C160.402 132.311 161.068 131.89 161.855 131.612C162.642 131.328 163.512 131.186 164.465 131.186C165.122 131.186 165.776 131.263 166.427 131.417C167.078 131.571 167.673 131.825 168.211 132.18C168.75 132.53 169.182 133.006 169.508 133.61C169.839 134.213 170.005 134.968 170.005 135.874V145H166.915V143.127H166.809C166.613 143.506 166.338 143.861 165.983 144.192C165.634 144.518 165.193 144.781 164.66 144.982C164.133 145.178 163.515 145.275 162.805 145.275ZM163.639 142.914C164.284 142.914 164.844 142.786 165.317 142.532C165.791 142.272 166.155 141.928 166.409 141.502C166.67 141.076 166.8 140.611 166.8 140.108V138.501C166.699 138.584 166.528 138.661 166.285 138.732C166.048 138.803 165.782 138.865 165.486 138.919C165.19 138.972 164.897 139.019 164.607 139.061C164.317 139.102 164.065 139.138 163.852 139.167C163.373 139.232 162.944 139.339 162.565 139.487C162.186 139.635 161.887 139.842 161.668 140.108C161.449 140.369 161.34 140.706 161.34 141.12C161.34 141.712 161.556 142.159 161.988 142.461C162.42 142.763 162.97 142.914 163.639 142.914ZM180.434 145.266C179.073 145.266 177.904 144.967 176.928 144.37C175.957 143.772 175.208 142.946 174.682 141.893C174.161 140.833 173.9 139.614 173.9 138.235C173.9 136.85 174.167 135.628 174.699 134.569C175.232 133.503 175.984 132.675 176.954 132.083C177.931 131.485 179.085 131.186 180.417 131.186C181.523 131.186 182.503 131.39 183.355 131.799C184.213 132.201 184.897 132.772 185.406 133.512C185.915 134.246 186.205 135.104 186.276 136.087H183.204C183.08 135.43 182.784 134.882 182.316 134.444C181.855 134 181.236 133.778 180.461 133.778C179.804 133.778 179.227 133.956 178.73 134.311C178.233 134.66 177.845 135.163 177.567 135.82C177.295 136.477 177.158 137.264 177.158 138.182C177.158 139.111 177.295 139.91 177.567 140.579C177.839 141.242 178.221 141.754 178.712 142.115C179.209 142.47 179.792 142.647 180.461 142.647C180.935 142.647 181.358 142.559 181.731 142.381C182.109 142.198 182.426 141.934 182.68 141.591C182.935 141.248 183.11 140.83 183.204 140.339H186.276C186.199 141.304 185.915 142.159 185.424 142.905C184.932 143.645 184.264 144.225 183.417 144.645C182.571 145.059 181.577 145.266 180.434 145.266ZM196.202 145.266C194.835 145.266 193.654 144.982 192.66 144.414C191.671 143.84 190.911 143.029 190.378 141.982C189.845 140.928 189.579 139.688 189.579 138.262C189.579 136.859 189.845 135.628 190.378 134.569C190.917 133.503 191.668 132.675 192.633 132.083C193.598 131.485 194.731 131.186 196.033 131.186C196.874 131.186 197.667 131.322 198.412 131.594C199.164 131.861 199.827 132.275 200.401 132.837C200.981 133.4 201.437 134.116 201.768 134.986C202.1 135.85 202.265 136.88 202.265 138.075V139.061H191.088V136.895H199.185C199.179 136.279 199.046 135.732 198.785 135.252C198.525 134.767 198.161 134.385 197.693 134.107C197.232 133.829 196.693 133.69 196.078 133.69C195.421 133.69 194.844 133.849 194.346 134.169C193.849 134.483 193.462 134.897 193.183 135.412C192.911 135.921 192.772 136.48 192.766 137.09V138.981C192.766 139.774 192.911 140.455 193.201 141.023C193.491 141.585 193.897 142.017 194.417 142.319C194.938 142.615 195.548 142.763 196.246 142.763C196.714 142.763 197.137 142.698 197.516 142.567C197.895 142.431 198.223 142.233 198.501 141.973C198.779 141.712 198.99 141.39 199.132 141.005L202.132 141.342C201.943 142.135 201.582 142.828 201.049 143.42C200.522 144.006 199.848 144.461 199.025 144.787C198.202 145.107 197.261 145.266 196.202 145.266ZM213.685 145V131.364H216.899V145H213.685ZM215.301 129.428C214.792 129.428 214.354 129.26 213.987 128.922C213.62 128.579 213.437 128.168 213.437 127.688C213.437 127.203 213.62 126.792 213.987 126.454C214.354 126.111 214.792 125.939 215.301 125.939C215.816 125.939 216.254 126.111 216.615 126.454C216.982 126.792 217.166 127.203 217.166 127.688C217.166 128.168 216.982 128.579 216.615 128.922C216.254 129.26 215.816 129.428 215.301 129.428ZM232.232 134.968L229.302 135.288C229.219 134.992 229.074 134.714 228.867 134.453C228.666 134.193 228.394 133.983 228.05 133.823C227.707 133.663 227.287 133.583 226.79 133.583C226.121 133.583 225.559 133.728 225.103 134.018C224.653 134.308 224.431 134.684 224.437 135.146C224.431 135.542 224.576 135.865 224.872 136.113C225.174 136.362 225.671 136.566 226.363 136.726L228.689 137.223C229.98 137.501 230.939 137.942 231.566 138.546C232.199 139.15 232.519 139.94 232.525 140.916C232.519 141.774 232.267 142.532 231.77 143.189C231.279 143.84 230.595 144.349 229.719 144.716C228.843 145.083 227.837 145.266 226.701 145.266C225.032 145.266 223.688 144.917 222.67 144.219C221.652 143.514 221.046 142.535 220.85 141.28L223.984 140.978C224.126 141.594 224.428 142.058 224.89 142.372C225.351 142.686 225.952 142.843 226.692 142.843C227.455 142.843 228.068 142.686 228.53 142.372C228.997 142.058 229.231 141.671 229.231 141.209C229.231 140.819 229.08 140.496 228.778 140.241C228.482 139.987 228.021 139.792 227.393 139.656L225.067 139.167C223.759 138.895 222.792 138.436 222.164 137.791C221.537 137.14 221.226 136.317 221.232 135.323C221.226 134.483 221.454 133.755 221.916 133.139C222.383 132.518 223.031 132.038 223.86 131.701C224.694 131.358 225.656 131.186 226.745 131.186C228.343 131.186 229.601 131.526 230.518 132.207C231.442 132.888 232.013 133.808 232.232 134.968ZM247.8 145.275C246.936 145.275 246.157 145.121 245.465 144.814C244.778 144.5 244.234 144.038 243.831 143.429C243.435 142.819 243.237 142.067 243.237 141.174C243.237 140.404 243.379 139.768 243.663 139.265C243.947 138.762 244.335 138.359 244.826 138.058C245.317 137.756 245.87 137.528 246.486 137.374C247.107 137.214 247.75 137.099 248.412 137.028C249.211 136.945 249.86 136.871 250.357 136.806C250.854 136.735 251.215 136.628 251.44 136.486C251.671 136.338 251.786 136.11 251.786 135.803V135.749C251.786 135.08 251.588 134.563 251.191 134.196C250.795 133.829 250.224 133.645 249.478 133.645C248.691 133.645 248.066 133.817 247.605 134.16C247.149 134.503 246.841 134.909 246.681 135.376L243.681 134.95C243.917 134.122 244.308 133.429 244.852 132.873C245.397 132.311 246.063 131.89 246.85 131.612C247.637 131.328 248.507 131.186 249.46 131.186C250.117 131.186 250.771 131.263 251.422 131.417C252.073 131.571 252.668 131.825 253.206 132.18C253.745 132.53 254.177 133.006 254.503 133.61C254.834 134.213 255 134.968 255 135.874V145H251.91V143.127H251.804C251.608 143.506 251.333 143.861 250.978 144.192C250.629 144.518 250.188 144.781 249.655 144.982C249.129 145.178 248.51 145.275 247.8 145.275ZM248.634 142.914C249.28 142.914 249.839 142.786 250.312 142.532C250.786 142.272 251.15 141.928 251.404 141.502C251.665 141.076 251.795 140.611 251.795 140.108V138.501C251.694 138.584 251.523 138.661 251.28 138.732C251.043 138.803 250.777 138.865 250.481 138.919C250.185 138.972 249.892 139.019 249.602 139.061C249.312 139.102 249.061 139.138 248.847 139.167C248.368 139.232 247.939 139.339 247.56 139.487C247.181 139.635 246.883 139.842 246.664 140.108C246.445 140.369 246.335 140.706 246.335 141.12C246.335 141.712 246.551 142.159 246.983 142.461C247.415 142.763 247.966 142.914 248.634 142.914ZM262.695 137.01V145H259.481V131.364H262.553V133.681H262.713C263.027 132.917 263.527 132.311 264.213 131.861C264.906 131.411 265.761 131.186 266.779 131.186C267.72 131.186 268.54 131.387 269.238 131.79C269.942 132.192 270.487 132.775 270.872 133.539C271.262 134.302 271.455 135.228 271.449 136.317V145H268.235V136.815C268.235 135.903 267.998 135.19 267.525 134.675C267.057 134.16 266.409 133.903 265.58 133.903C265.018 133.903 264.518 134.027 264.08 134.276C263.648 134.518 263.308 134.87 263.059 135.332C262.816 135.794 262.695 136.353 262.695 137.01ZM281.914 145.266C280.582 145.266 279.428 144.973 278.452 144.387C277.475 143.801 276.717 142.982 276.179 141.928C275.646 140.875 275.38 139.644 275.38 138.235C275.38 136.826 275.646 135.592 276.179 134.533C276.717 133.474 277.475 132.651 278.452 132.065C279.428 131.479 280.582 131.186 281.914 131.186C283.246 131.186 284.4 131.479 285.376 132.065C286.353 132.651 287.107 133.474 287.64 134.533C288.179 135.592 288.448 136.826 288.448 138.235C288.448 139.644 288.179 140.875 287.64 141.928C287.107 142.982 286.353 143.801 285.376 144.387C284.4 144.973 283.246 145.266 281.914 145.266ZM281.932 142.692C282.654 142.692 283.257 142.493 283.743 142.097C284.228 141.694 284.589 141.156 284.826 140.481C285.068 139.806 285.19 139.055 285.19 138.226C285.19 137.392 285.068 136.637 284.826 135.962C284.589 135.282 284.228 134.74 283.743 134.338C283.257 133.935 282.654 133.734 281.932 133.734C281.192 133.734 280.576 133.935 280.085 134.338C279.6 134.74 279.236 135.282 278.993 135.962C278.756 136.637 278.638 137.392 278.638 138.226C278.638 139.055 278.756 139.806 278.993 140.481C279.236 141.156 279.6 141.694 280.085 142.097C280.576 142.493 281.192 142.692 281.932 142.692ZM299.235 131.364V133.849H291.396V131.364H299.235ZM293.331 128.097H296.545V140.898C296.545 141.33 296.61 141.662 296.74 141.893C296.876 142.118 297.054 142.272 297.273 142.354C297.492 142.437 297.735 142.479 298.001 142.479C298.202 142.479 298.386 142.464 298.551 142.434C298.723 142.405 298.853 142.378 298.942 142.354L299.484 144.867C299.312 144.926 299.066 144.991 298.747 145.062C298.433 145.133 298.048 145.175 297.593 145.186C296.788 145.21 296.063 145.089 295.418 144.822C294.772 144.55 294.26 144.13 293.882 143.562C293.509 142.994 293.325 142.283 293.331 141.431V128.097ZM306.68 137.01V145H303.466V126.818H306.608V133.681H306.768C307.088 132.911 307.582 132.305 308.251 131.861C308.926 131.411 309.784 131.186 310.825 131.186C311.772 131.186 312.598 131.384 313.302 131.781C314.007 132.177 314.551 132.757 314.936 133.521C315.327 134.284 315.522 135.217 315.522 136.317V145H312.308V136.815C312.308 135.897 312.071 135.184 311.598 134.675C311.13 134.16 310.473 133.903 309.627 133.903C309.059 133.903 308.55 134.027 308.1 134.276C307.656 134.518 307.307 134.87 307.052 135.332C306.804 135.794 306.68 136.353 306.68 137.01ZM326.085 145.266C324.718 145.266 323.537 144.982 322.542 144.414C321.554 143.84 320.794 143.029 320.261 141.982C319.728 140.928 319.462 139.688 319.462 138.262C319.462 136.859 319.728 135.628 320.261 134.569C320.799 133.503 321.551 132.675 322.516 132.083C323.481 131.485 324.614 131.186 325.916 131.186C326.756 131.186 327.55 131.322 328.295 131.594C329.047 131.861 329.71 132.275 330.284 132.837C330.864 133.4 331.32 134.116 331.651 134.986C331.983 135.85 332.148 136.88 332.148 138.075V139.061H320.971V136.895H329.068C329.062 136.279 328.929 135.732 328.668 135.252C328.408 134.767 328.044 134.385 327.576 134.107C327.115 133.829 326.576 133.69 325.96 133.69C325.303 133.69 324.726 133.849 324.229 134.169C323.732 134.483 323.344 134.897 323.066 135.412C322.794 135.921 322.655 136.48 322.649 137.09V138.981C322.649 139.774 322.794 140.455 323.084 141.023C323.374 141.585 323.779 142.017 324.3 142.319C324.821 142.615 325.431 142.763 326.129 142.763C326.597 142.763 327.02 142.698 327.399 142.567C327.777 142.431 328.106 142.233 328.384 141.973C328.662 141.712 328.872 141.39 329.014 141.005L332.015 141.342C331.826 142.135 331.465 142.828 330.932 143.42C330.405 144.006 329.731 144.461 328.908 144.787C328.085 145.107 327.144 145.266 326.085 145.266ZM336.117 145V131.364H339.233V133.636H339.375C339.624 132.849 340.05 132.243 340.654 131.816C341.263 131.384 341.959 131.168 342.74 131.168C342.918 131.168 343.116 131.177 343.335 131.195C343.56 131.207 343.746 131.228 343.894 131.257V134.213C343.758 134.166 343.542 134.125 343.246 134.089C342.956 134.048 342.675 134.027 342.403 134.027C341.817 134.027 341.29 134.154 340.822 134.409C340.361 134.657 339.997 135.004 339.73 135.447C339.464 135.891 339.331 136.403 339.331 136.983V145H336.117ZM347.696 145.195C347.158 145.195 346.696 145.006 346.312 144.627C345.927 144.248 345.737 143.787 345.743 143.242C345.737 142.71 345.927 142.254 346.312 141.875C346.696 141.496 347.158 141.307 347.696 141.307C348.217 141.307 348.67 141.496 349.055 141.875C349.445 142.254 349.644 142.71 349.65 143.242C349.644 143.603 349.549 143.932 349.366 144.228C349.188 144.524 348.951 144.76 348.655 144.938C348.365 145.109 348.046 145.195 347.696 145.195ZM365.076 145L359.944 126.818H363.487L366.763 140.179H366.931L370.429 126.818H373.652L377.158 140.188H377.318L380.594 126.818H384.136L379.005 145H375.756L372.116 132.243H371.974L368.325 145H365.076ZM392.174 145.266C390.806 145.266 389.626 144.982 388.631 144.414C387.643 143.84 386.882 143.029 386.35 141.982C385.817 140.928 385.551 139.688 385.551 138.262C385.551 136.859 385.817 135.628 386.35 134.569C386.888 133.503 387.64 132.675 388.605 132.083C389.569 131.485 390.703 131.186 392.005 131.186C392.845 131.186 393.638 131.322 394.384 131.594C395.136 131.861 395.799 132.275 396.373 132.837C396.953 133.4 397.409 134.116 397.74 134.986C398.071 135.85 398.237 136.88 398.237 138.075V139.061H387.06V136.895H395.157C395.151 136.279 395.017 135.732 394.757 135.252C394.497 134.767 394.133 134.385 393.665 134.107C393.203 133.829 392.665 133.69 392.049 133.69C391.392 133.69 390.815 133.849 390.318 134.169C389.821 134.483 389.433 134.897 389.155 135.412C388.883 135.921 388.744 136.48 388.738 137.09V138.981C388.738 139.774 388.883 140.455 389.173 141.023C389.463 141.585 389.868 142.017 390.389 142.319C390.91 142.615 391.52 142.763 392.218 142.763C392.686 142.763 393.109 142.698 393.487 142.567C393.866 142.431 394.195 142.233 394.473 141.973C394.751 141.712 394.961 141.39 395.103 141.005L398.104 141.342C397.915 142.135 397.554 142.828 397.021 143.42C396.494 144.006 395.819 144.461 394.997 144.787C394.174 145.107 393.233 145.266 392.174 145.266ZM412.471 145L408.618 131.364H411.894L414.291 140.952H414.416L416.866 131.364H420.106L422.557 140.898H422.69L425.051 131.364H428.336L424.474 145H421.127L418.57 135.785H418.384L415.827 145H412.471ZM431.83 145V131.364H435.044V145H431.83ZM433.446 129.428C432.937 129.428 432.499 129.26 432.132 128.922C431.765 128.579 431.581 128.168 431.581 127.688C431.581 127.203 431.765 126.792 432.132 126.454C432.499 126.111 432.937 125.939 433.446 125.939C433.961 125.939 434.399 126.111 434.76 126.454C435.127 126.792 435.31 127.203 435.31 127.688C435.31 128.168 435.127 128.579 434.76 128.922C434.399 129.26 433.961 129.428 433.446 129.428ZM442.812 126.818V145H439.599V126.818H442.812ZM450.581 126.818V145H447.367V126.818H450.581ZM462.729 145V126.818H465.943V133.619H466.076C466.242 133.287 466.475 132.935 466.777 132.562C467.079 132.183 467.487 131.861 468.002 131.594C468.517 131.322 469.174 131.186 469.973 131.186C471.027 131.186 471.977 131.455 472.823 131.994C473.675 132.527 474.35 133.317 474.847 134.364C475.35 135.406 475.602 136.684 475.602 138.2C475.602 139.697 475.356 140.969 474.865 142.017C474.374 143.065 473.705 143.864 472.858 144.414C472.012 144.964 471.053 145.24 469.982 145.24C469.201 145.24 468.553 145.109 468.038 144.849C467.523 144.589 467.109 144.275 466.795 143.908C466.487 143.535 466.247 143.183 466.076 142.852H465.889V145H462.729ZM465.881 138.182C465.881 139.064 466.005 139.836 466.253 140.499C466.508 141.162 466.872 141.68 467.345 142.053C467.825 142.42 468.405 142.603 469.085 142.603C469.796 142.603 470.39 142.414 470.87 142.035C471.349 141.65 471.71 141.126 471.953 140.463C472.202 139.795 472.326 139.034 472.326 138.182C472.326 137.335 472.204 136.584 471.962 135.927C471.719 135.27 471.358 134.755 470.879 134.382C470.399 134.009 469.802 133.823 469.085 133.823C468.399 133.823 467.816 134.003 467.336 134.364C466.857 134.725 466.493 135.231 466.244 135.882C466.002 136.533 465.881 137.3 465.881 138.182ZM479.584 145V131.364H482.7V133.636H482.842C483.091 132.849 483.517 132.243 484.12 131.816C484.73 131.384 485.426 131.168 486.207 131.168C486.384 131.168 486.583 131.177 486.802 131.195C487.026 131.207 487.213 131.228 487.361 131.257V134.213C487.225 134.166 487.009 134.125 486.713 134.089C486.423 134.048 486.142 134.027 485.869 134.027C485.283 134.027 484.757 134.154 484.289 134.409C483.828 134.657 483.464 135.004 483.197 135.447C482.931 135.891 482.798 136.403 482.798 136.983V145H479.584ZM490.746 145V131.364H493.96V145H490.746ZM492.362 129.428C491.853 129.428 491.415 129.26 491.048 128.922C490.681 128.579 490.497 128.168 490.497 127.688C490.497 127.203 490.681 126.792 491.048 126.454C491.415 126.111 491.853 125.939 492.362 125.939C492.877 125.939 493.315 126.111 493.676 126.454C494.043 126.792 494.226 127.203 494.226 127.688C494.226 128.168 494.043 128.579 493.676 128.922C493.315 129.26 492.877 129.428 492.362 129.428ZM503.575 145.24C502.504 145.24 501.545 144.964 500.699 144.414C499.852 143.864 499.183 143.065 498.692 142.017C498.201 140.969 497.955 139.697 497.955 138.2C497.955 136.684 498.204 135.406 498.701 134.364C499.204 133.317 499.882 132.527 500.734 131.994C501.586 131.455 502.536 131.186 503.584 131.186C504.383 131.186 505.04 131.322 505.555 131.594C506.07 131.861 506.478 132.183 506.78 132.562C507.082 132.935 507.315 133.287 507.481 133.619H507.614V126.818H510.837V145H507.676V142.852H507.481C507.315 143.183 507.076 143.535 506.762 143.908C506.448 144.275 506.034 144.589 505.519 144.849C505.004 145.109 504.356 145.24 503.575 145.24ZM504.472 142.603C505.152 142.603 505.732 142.42 506.212 142.053C506.691 141.68 507.055 141.162 507.304 140.499C507.552 139.836 507.676 139.064 507.676 138.182C507.676 137.3 507.552 136.533 507.304 135.882C507.061 135.231 506.7 134.725 506.221 134.364C505.747 134.003 505.164 133.823 504.472 133.823C503.755 133.823 503.158 134.009 502.678 134.382C502.199 134.755 501.838 135.27 501.595 135.927C501.353 136.584 501.231 137.335 501.231 138.182C501.231 139.034 501.353 139.795 501.595 140.463C501.844 141.126 502.208 141.65 502.687 142.035C503.172 142.414 503.767 142.603 504.472 142.603ZM521.442 150.398C520.288 150.398 519.297 150.241 518.468 149.927C517.639 149.619 516.974 149.205 516.47 148.684C515.967 148.163 515.618 147.586 515.423 146.953L518.317 146.252C518.447 146.518 518.637 146.781 518.885 147.042C519.134 147.308 519.468 147.527 519.888 147.699C520.315 147.876 520.85 147.965 521.495 147.965C522.407 147.965 523.161 147.743 523.759 147.299C524.357 146.861 524.656 146.139 524.656 145.133V142.55H524.496C524.33 142.881 524.088 143.221 523.768 143.571C523.454 143.92 523.037 144.213 522.516 144.45C522.001 144.686 521.353 144.805 520.572 144.805C519.524 144.805 518.574 144.559 517.722 144.068C516.876 143.571 516.201 142.831 515.698 141.848C515.201 140.86 514.952 139.623 514.952 138.137C514.952 136.64 515.201 135.376 515.698 134.347C516.201 133.311 516.879 132.527 517.731 131.994C518.583 131.455 519.533 131.186 520.581 131.186C521.38 131.186 522.037 131.322 522.552 131.594C523.073 131.861 523.487 132.183 523.795 132.562C524.102 132.935 524.336 133.287 524.496 133.619H524.674V131.364H527.843V145.222C527.843 146.388 527.565 147.353 527.008 148.116C526.452 148.88 525.692 149.451 524.727 149.83C523.762 150.208 522.667 150.398 521.442 150.398ZM521.469 142.283C522.149 142.283 522.729 142.118 523.209 141.786C523.688 141.455 524.052 140.978 524.301 140.357C524.549 139.735 524.674 138.99 524.674 138.12C524.674 137.261 524.549 136.51 524.301 135.865C524.058 135.22 523.697 134.719 523.218 134.364C522.744 134.003 522.161 133.823 521.469 133.823C520.753 133.823 520.155 134.009 519.675 134.382C519.196 134.755 518.835 135.267 518.592 135.918C518.35 136.563 518.228 137.297 518.228 138.12C518.228 138.954 518.35 139.685 518.592 140.312C518.841 140.934 519.205 141.419 519.684 141.768C520.17 142.112 520.764 142.283 521.469 142.283ZM538.424 145.266C537.056 145.266 535.876 144.982 534.881 144.414C533.893 143.84 533.132 143.029 532.6 141.982C532.067 140.928 531.801 139.688 531.801 138.262C531.801 136.859 532.067 135.628 532.6 134.569C533.138 133.503 533.89 132.675 534.855 132.083C535.819 131.485 536.953 131.186 538.255 131.186C539.095 131.186 539.888 131.322 540.634 131.594C541.386 131.861 542.049 132.275 542.623 132.837C543.203 133.4 543.659 134.116 543.99 134.986C544.321 135.85 544.487 136.88 544.487 138.075V139.061H533.31V136.895H541.407C541.401 136.279 541.267 135.732 541.007 135.252C540.747 134.767 540.383 134.385 539.915 134.107C539.453 133.829 538.915 133.69 538.299 133.69C537.642 133.69 537.065 133.849 536.568 134.169C536.071 134.483 535.683 134.897 535.405 135.412C535.133 135.921 534.994 136.48 534.988 137.09V138.981C534.988 139.774 535.133 140.455 535.423 141.023C535.713 141.585 536.118 142.017 536.639 142.319C537.16 142.615 537.77 142.763 538.468 142.763C538.936 142.763 539.359 142.698 539.737 142.567C540.116 142.431 540.445 142.233 540.723 141.973C541.001 141.712 541.211 141.39 541.353 141.005L544.354 141.342C544.165 142.135 543.804 142.828 543.271 143.42C542.744 144.006 542.069 144.461 541.247 144.787C540.424 145.107 539.483 145.266 538.424 145.266ZM562.716 131.364V133.849H554.877V131.364H562.716ZM556.813 128.097H560.026V140.898C560.026 141.33 560.092 141.662 560.222 141.893C560.358 142.118 560.535 142.272 560.754 142.354C560.973 142.437 561.216 142.479 561.482 142.479C561.684 142.479 561.867 142.464 562.033 142.434C562.204 142.405 562.335 142.378 562.423 142.354L562.965 144.867C562.793 144.926 562.548 144.991 562.228 145.062C561.914 145.133 561.53 145.175 561.074 145.186C560.269 145.21 559.544 145.089 558.899 144.822C558.254 144.55 557.742 144.13 557.363 143.562C556.99 142.994 556.807 142.283 556.813 141.431V128.097ZM570.161 137.01V145H566.947V126.818H570.09V133.681H570.25C570.569 132.911 571.064 132.305 571.732 131.861C572.407 131.411 573.265 131.186 574.307 131.186C575.254 131.186 576.08 131.384 576.784 131.781C577.488 132.177 578.033 132.757 578.417 133.521C578.808 134.284 579.003 135.217 579.003 136.317V145H575.79V136.815C575.79 135.897 575.553 135.184 575.079 134.675C574.612 134.16 573.955 133.903 573.108 133.903C572.54 133.903 572.031 134.027 571.581 134.276C571.138 134.518 570.788 134.87 570.534 135.332C570.285 135.794 570.161 136.353 570.161 137.01ZM589.566 145.266C588.199 145.266 587.018 144.982 586.024 144.414C585.035 143.84 584.275 143.029 583.742 141.982C583.21 140.928 582.943 139.688 582.943 138.262C582.943 136.859 583.21 135.628 583.742 134.569C584.281 133.503 585.033 132.675 585.997 132.083C586.962 131.485 588.095 131.186 589.397 131.186C590.238 131.186 591.031 131.322 591.777 131.594C592.528 131.861 593.191 132.275 593.765 132.837C594.345 133.4 594.801 134.116 595.133 134.986C595.464 135.85 595.63 136.88 595.63 138.075V139.061H584.453V136.895H592.549C592.543 136.279 592.41 135.732 592.15 135.252C591.889 134.767 591.525 134.385 591.058 134.107C590.596 133.829 590.057 133.69 589.442 133.69C588.785 133.69 588.208 133.849 587.711 134.169C587.214 134.483 586.826 134.897 586.548 135.412C586.275 135.921 586.136 136.48 586.13 137.09V138.981C586.13 139.774 586.275 140.455 586.565 141.023C586.855 141.585 587.261 142.017 587.782 142.319C588.303 142.615 588.912 142.763 589.611 142.763C590.078 142.763 590.501 142.698 590.88 142.567C591.259 142.431 591.587 142.233 591.866 141.973C592.144 141.712 592.354 141.39 592.496 141.005L595.497 141.342C595.307 142.135 594.946 142.828 594.413 143.42C593.887 144.006 593.212 144.461 592.389 144.787C591.567 145.107 590.626 145.266 589.566 145.266ZM612.98 150.398C611.826 150.398 610.835 150.241 610.006 149.927C609.177 149.619 608.512 149.205 608.009 148.684C607.505 148.163 607.156 147.586 606.961 146.953L609.855 146.252C609.985 146.518 610.175 146.781 610.423 147.042C610.672 147.308 611.006 147.527 611.426 147.699C611.853 147.876 612.388 147.965 613.033 147.965C613.945 147.965 614.699 147.743 615.297 147.299C615.895 146.861 616.194 146.139 616.194 145.133V142.55H616.034C615.868 142.881 615.626 143.221 615.306 143.571C614.992 143.92 614.575 144.213 614.054 144.45C613.539 144.686 612.891 144.805 612.11 144.805C611.062 144.805 610.113 144.559 609.26 144.068C608.414 143.571 607.739 142.831 607.236 141.848C606.739 140.86 606.49 139.623 606.49 138.137C606.49 136.64 606.739 135.376 607.236 134.347C607.739 133.311 608.417 132.527 609.269 131.994C610.121 131.455 611.071 131.186 612.119 131.186C612.918 131.186 613.575 131.322 614.09 131.594C614.611 131.861 615.025 132.183 615.333 132.562C615.641 132.935 615.874 133.287 616.034 133.619H616.212V131.364H619.381V145.222C619.381 146.388 619.103 147.353 618.547 148.116C617.99 148.88 617.23 149.451 616.265 149.83C615.3 150.208 614.205 150.398 612.98 150.398ZM613.007 142.283C613.687 142.283 614.267 142.118 614.747 141.786C615.226 141.455 615.59 140.978 615.839 140.357C616.087 139.735 616.212 138.99 616.212 138.12C616.212 137.261 616.087 136.51 615.839 135.865C615.596 135.22 615.235 134.719 614.756 134.364C614.282 134.003 613.699 133.823 613.007 133.823C612.291 133.823 611.693 134.009 611.213 134.382C610.734 134.755 610.373 135.267 610.13 135.918C609.888 136.563 609.766 137.297 609.766 138.12C609.766 138.954 609.888 139.685 610.13 140.312C610.379 140.934 610.743 141.419 611.222 141.768C611.708 142.112 612.302 142.283 613.007 142.283ZM627.849 145.275C626.985 145.275 626.206 145.121 625.514 144.814C624.827 144.5 624.283 144.038 623.88 143.429C623.484 142.819 623.286 142.067 623.286 141.174C623.286 140.404 623.428 139.768 623.712 139.265C623.996 138.762 624.383 138.359 624.875 138.058C625.366 137.756 625.919 137.528 626.535 137.374C627.156 137.214 627.798 137.099 628.461 137.028C629.26 136.945 629.908 136.871 630.406 136.806C630.903 136.735 631.264 136.628 631.489 136.486C631.719 136.338 631.835 136.11 631.835 135.803V135.749C631.835 135.08 631.637 134.563 631.24 134.196C630.844 133.829 630.272 133.645 629.527 133.645C628.739 133.645 628.115 133.817 627.653 134.16C627.198 134.503 626.89 134.909 626.73 135.376L623.729 134.95C623.966 134.122 624.357 133.429 624.901 132.873C625.446 132.311 626.112 131.89 626.899 131.612C627.686 131.328 628.556 131.186 629.509 131.186C630.166 131.186 630.82 131.263 631.471 131.417C632.122 131.571 632.717 131.825 633.255 132.18C633.794 132.53 634.226 133.006 634.551 133.61C634.883 134.213 635.049 134.968 635.049 135.874V145H631.959V143.127H631.853C631.657 143.506 631.382 143.861 631.027 144.192C630.678 144.518 630.237 144.781 629.704 144.982C629.177 145.178 628.559 145.275 627.849 145.275ZM628.683 142.914C629.328 142.914 629.888 142.786 630.361 142.532C630.835 142.272 631.199 141.928 631.453 141.502C631.714 141.076 631.844 140.611 631.844 140.108V138.501C631.743 138.584 631.571 138.661 631.329 138.732C631.092 138.803 630.826 138.865 630.53 138.919C630.234 138.972 629.941 139.019 629.651 139.061C629.361 139.102 629.109 139.138 628.896 139.167C628.417 139.232 627.988 139.339 627.609 139.487C627.23 139.635 626.931 139.842 626.712 140.108C626.493 140.369 626.384 140.706 626.384 141.12C626.384 141.712 626.6 142.159 627.032 142.461C627.464 142.763 628.014 142.914 628.683 142.914ZM639.53 150.114V131.364H642.691V133.619H642.877C643.043 133.287 643.277 132.935 643.578 132.562C643.88 132.183 644.289 131.861 644.804 131.594C645.319 131.322 645.975 131.186 646.775 131.186C647.828 131.186 648.778 131.455 649.624 131.994C650.477 132.527 651.151 133.317 651.648 134.364C652.152 135.406 652.403 136.684 652.403 138.2C652.403 139.697 652.157 140.969 651.666 142.017C651.175 143.065 650.506 143.864 649.66 144.414C648.813 144.964 647.855 145.24 646.783 145.24C646.002 145.24 645.354 145.109 644.839 144.849C644.324 144.589 643.91 144.275 643.596 143.908C643.288 143.535 643.049 143.183 642.877 142.852H642.744V150.114H639.53ZM642.682 138.182C642.682 139.064 642.806 139.836 643.055 140.499C643.309 141.162 643.673 141.68 644.147 142.053C644.626 142.42 645.206 142.603 645.887 142.603C646.597 142.603 647.192 142.414 647.671 142.035C648.151 141.65 648.512 141.126 648.754 140.463C649.003 139.795 649.127 139.034 649.127 138.182C649.127 137.335 649.006 136.584 648.763 135.927C648.52 135.27 648.159 134.755 647.68 134.382C647.201 134.009 646.603 133.823 645.887 133.823C645.2 133.823 644.617 134.003 644.138 134.364C643.658 134.725 643.294 135.231 643.046 135.882C642.803 136.533 642.682 137.3 642.682 138.182ZM658.385 145.195C657.846 145.195 657.385 145.006 657 144.627C656.615 144.248 656.426 143.787 656.432 143.242C656.426 142.71 656.615 142.254 657 141.875C657.385 141.496 657.846 141.307 658.385 141.307C658.906 141.307 659.359 141.496 659.743 141.875C660.134 142.254 660.332 142.71 660.338 143.242C660.332 143.603 660.237 143.932 660.054 144.228C659.876 144.524 659.64 144.76 659.344 144.938C659.054 145.109 658.734 145.195 658.385 145.195Z" fill="white"/>
<defs>
<filter id="filter0_d_231_26" x="0" y="11" width="671" height="170" filterUnits="userSpaceOnUse" color-interpolation-filters="sRGB">
<feFlood flood-opacity="0" result="BackgroundImageFix"/>
<feColorMatrix in="SourceAlpha" type="matrix" values="0 0 0 0 0 0 0 0 0 0 0 0 0 0 0 0 0 0 127 0" result="hardAlpha"/>
<feOffset dy="4"/>
<feGaussianBlur stdDeviation="2"/>
<feComposite in2="hardAlpha" operator="out"/>
<feColorMatrix type="matrix" values="0 0 0 0 0 0 0 0 0 0 0 0 0 0 0 0 0 0 0.25 0"/>
<feBlend mode="normal" in2="BackgroundImageFix" result="effect1_dropShadow_231_26"/>
<feBlend mode="normal" in="SourceGraphic" in2="effect1_dropShadow_231_26" result="shape"/>
</filter>
<filter id="filter1_d_231_26" x="650.535" y="12.417" width="117.781" height="166.853" filterUnits="userSpaceOnUse" color-interpolation-filters="sRGB">
<feFlood flood-opacity="0" result="BackgroundImageFix"/>
<feColorMatrix in="SourceAlpha" type="matrix" values="0 0 0 0 0 0 0 0 0 0 0 0 0 0 0 0 0 0 127 0" result="hardAlpha"/>
<feOffset dy="4"/>
<feGaussianBlur stdDeviation="2"/>
<feComposite in2="hardAlpha" operator="out"/>
<feColorMatrix type="matrix" values="0 0 0 0 0 0 0 0 0 0 0 0 0 0 0 0 0 0 0.25 0"/>
<feBlend mode="normal" in2="BackgroundImageFix" result="effect1_dropShadow_231_26"/>
<feBlend mode="normal" in="SourceGraphic" in2="effect1_dropShadow_231_26" result="shape"/>
</filter>
</defs>
</svg>
